<svg width="629" height="146" viewBox="0 0 629 146" fill="none" xmlns="http://www.w3.org/2000/svg">
<mask id="path-1-inside-1_184_174" fill="white">
<path d="M0 0.663757H629V146H0V0.663757Z"/>
</mask>
<path d="M0 3.66376H629V-2.33624H0V3.66376ZM629 143H0V149H629V143Z" fill="black" mask="url(#path-1-inside-1_184_174)"/>
<path d="M92.8332 27.448H99.8772V28.72H92.8332V27.448ZM91.6092 31.444H101.665V32.716H91.6092V31.444ZM98.9172 27.448H100.489V28.336C100.489 29.296 100.489 30.328 100.153 31.768L98.5692 31.744C98.9172 30.304 98.9172 29.284 98.9172 28.336V27.448ZM92.7852 33.88H100.441V37.948H92.7852V33.88ZM98.8692 35.116H94.3452V36.688H98.8692V35.116ZM104.868 32.692H106.464V34.876H104.868V32.692ZM108.876 32.692H110.472V34.876H108.876V32.692ZM102.636 31.936H112.68V33.208H102.636V31.936ZM107.64 34.012C110.04 34.012 111.492 34.744 111.492 36.052C111.492 37.348 110.04 38.08 107.64 38.08C105.228 38.08 103.776 37.348 103.776 36.052C103.776 34.744 105.228 34.012 107.64 34.012ZM107.64 35.224C106.152 35.224 105.396 35.488 105.396 36.052C105.396 36.616 106.152 36.868 107.64 36.868C109.128 36.868 109.884 36.616 109.884 36.052C109.884 35.488 109.128 35.224 107.64 35.224ZM107.664 27.136C110.112 27.136 111.684 27.952 111.684 29.284C111.684 30.604 110.112 31.408 107.664 31.408C105.204 31.408 103.644 30.604 103.644 29.284C103.644 27.952 105.204 27.136 107.664 27.136ZM107.664 28.36C106.14 28.36 105.288 28.66 105.288 29.284C105.288 29.896 106.14 30.196 107.664 30.196C109.176 30.196 110.04 29.896 110.04 29.284C110.04 28.66 109.176 28.36 107.664 28.36ZM117.195 31.912H125.007V33.184H117.195V31.912ZM116.031 35.512H126.087V36.82H116.031V35.512ZM120.243 32.488H121.839V35.932H120.243V32.488ZM117.195 27.712H124.923V28.996H118.791V32.464H117.195V27.712ZM127.37 28.096H131.762V35.296H127.37V28.096ZM130.274 29.344H128.858V34.048H130.274V29.344ZM135.086 26.956H136.61V38.068H135.086V26.956ZM130.958 30.988H133.454V32.272H130.958V30.988ZM132.818 27.124H134.318V37.564H132.818V27.124ZM145.729 26.968H147.337V34.948H145.729V26.968ZM139.933 36.604H147.613V37.876H139.933V36.604ZM139.933 34.144H141.529V37.12H139.933V34.144ZM141.289 27.664C142.993 27.664 144.301 28.84 144.301 30.484C144.301 32.116 142.993 33.304 141.289 33.304C139.585 33.304 138.265 32.116 138.265 30.484C138.265 28.84 139.585 27.664 141.289 27.664ZM141.289 29.044C140.461 29.044 139.825 29.572 139.825 30.484C139.825 31.384 140.461 31.912 141.289 31.912C142.105 31.912 142.741 31.384 142.741 30.484C142.741 29.572 142.105 29.044 141.289 29.044ZM152.772 27.868C154.464 27.868 155.676 28.912 155.676 30.424C155.676 31.948 154.464 32.992 152.772 32.992C151.08 32.992 149.856 31.948 149.856 30.424C149.856 28.912 151.08 27.868 152.772 27.868ZM152.772 28.732C151.644 28.732 150.828 29.416 150.828 30.424C150.828 31.432 151.644 32.128 152.772 32.128C153.888 32.128 154.704 31.432 154.704 30.424C154.704 29.416 153.888 28.732 152.772 28.732ZM157.092 27.076H158.088V37.948H157.092V27.076ZM149.448 35.572L149.304 34.744C151.284 34.744 154.02 34.732 156.384 34.36L156.468 35.092C154.032 35.56 151.38 35.572 149.448 35.572ZM168.145 30.76H171.169V31.576H168.145V30.76ZM165.529 28.024H166.345V29.956C166.345 32.392 165.061 34.72 163.345 35.644L162.709 34.852C164.305 34.06 165.529 31.972 165.529 29.956V28.024ZM165.721 28.024H166.525V29.956C166.525 31.936 167.749 33.904 169.321 34.648L168.733 35.452C166.981 34.564 165.721 32.332 165.721 29.956V28.024ZM170.677 27.076H171.661V37.948H170.677V27.076ZM181.644 27.076H182.64V37.948H181.644V27.076ZM174.384 28H175.368V30.868H178.5V28H179.496V35.332H174.384V28ZM175.368 31.66V34.516H178.5V31.66H175.368ZM189.155 27.832H190.019V28.66C190.019 31.024 187.823 32.86 185.651 33.352L185.207 32.524C187.115 32.164 189.155 30.508 189.155 28.66V27.832ZM189.335 27.832H190.199V28.66C190.199 30.52 192.251 32.164 194.147 32.524L193.703 33.352C191.543 32.86 189.335 31.036 189.335 28.66V27.832ZM184.811 35.656H194.639V36.472H184.811V35.656ZM201.372 33.592H202.38V35.38H201.372V33.592ZM206.124 27.088H207.12V37.936H206.124V27.088ZM198.479 35.872L198.348 35.044C200.4 35.032 203.1 35.008 205.44 34.708L205.512 35.44C203.1 35.848 200.484 35.872 198.479 35.872ZM198.576 28.408H205.164V29.212H198.576V28.408ZM201.864 29.836C203.424 29.836 204.48 30.628 204.48 31.84C204.48 33.064 203.424 33.844 201.864 33.844C200.316 33.844 199.26 33.064 199.26 31.84C199.26 30.628 200.316 29.836 201.864 29.836ZM201.864 30.604C200.892 30.604 200.208 31.096 200.208 31.84C200.208 32.584 200.892 33.076 201.864 33.076C202.848 33.076 203.532 32.584 203.532 31.84C203.532 31.096 202.848 30.604 201.864 30.604ZM201.372 27.088H202.368V28.852H201.372V27.088ZM211.979 28.024H212.795V29.968C212.795 32.368 211.499 34.708 209.783 35.62L209.171 34.828C210.743 34.036 211.979 31.948 211.979 29.968V28.024ZM212.159 28.024H212.963V29.968C212.963 31.876 214.175 33.856 215.711 34.624L215.099 35.416C213.419 34.516 212.159 32.296 212.159 29.968V28.024ZM216.659 27.088H217.667V37.936H216.659V27.088ZM217.427 31.48H219.443V32.32H217.427V31.48ZM224.758 31.3H226.81V32.128H224.758V31.3ZM228.622 27.088H229.582V37.936H228.622V27.088ZM226.474 27.316H227.422V37.396H226.474V27.316ZM222.802 27.988C224.206 27.988 225.118 29.44 225.118 31.768C225.118 34.096 224.206 35.548 222.802 35.548C221.398 35.548 220.498 34.096 220.498 31.768C220.498 29.44 221.398 27.988 222.802 27.988ZM222.802 28.912C221.95 28.912 221.41 30.016 221.41 31.768C221.41 33.52 221.95 34.624 222.802 34.624C223.666 34.624 224.206 33.52 224.206 31.768C224.206 30.016 223.666 28.912 222.802 28.912ZM236.817 30.76H239.841V31.576H236.817V30.76ZM234.201 28.024H235.017V29.956C235.017 32.392 233.733 34.72 232.017 35.644L231.381 34.852C232.977 34.06 234.201 31.972 234.201 29.956V28.024ZM234.393 28.024H235.197V29.956C235.197 31.936 236.421 33.904 237.993 34.648L237.405 35.452C235.653 34.564 234.393 32.332 234.393 29.956V28.024ZM239.349 27.076H240.333V37.948H239.349V27.076ZM249.765 34.576C252.141 34.576 253.485 35.164 253.485 36.256C253.485 37.348 252.141 37.924 249.765 37.924C247.401 37.924 246.045 37.348 246.045 36.256C246.045 35.164 247.401 34.576 249.765 34.576ZM249.765 35.32C248.037 35.32 247.065 35.644 247.065 36.256C247.065 36.868 248.037 37.18 249.765 37.18C251.505 37.18 252.465 36.868 252.465 36.256C252.465 35.644 251.505 35.32 249.765 35.32ZM245.385 28.012H254.109V28.792H245.385V28.012ZM249.777 29.224C252.009 29.224 253.281 29.776 253.281 30.796C253.281 31.816 252.009 32.368 249.777 32.368C247.533 32.368 246.273 31.816 246.273 30.796C246.273 29.776 247.533 29.224 249.777 29.224ZM249.777 29.932C248.205 29.932 247.329 30.244 247.329 30.796C247.329 31.348 248.205 31.66 249.777 31.66C251.337 31.66 252.213 31.348 252.213 30.796C252.213 30.244 251.337 29.932 249.777 29.932ZM249.285 26.92H250.269V28.48H249.285V26.92ZM244.869 33.064H254.673V33.856H244.869V33.064ZM256.532 28.144H261.524V35.212H256.532V28.144ZM260.552 28.948H257.504V34.408H260.552V28.948ZM263.792 27.076H264.788V37.948H263.792V27.076ZM266.947 32.632H276.787V33.448H266.947V32.632ZM271.363 31.324H272.359V33.04H271.363V31.324ZM268.267 33.988H269.251V35.032H274.543V33.988H275.527V37.792H268.267V33.988ZM269.251 35.812V37H274.543V35.812H269.251ZM268.195 27.316H275.515V29.812H269.203V31.24H268.219V29.068H274.543V28.084H268.195V27.316ZM268.219 30.832H275.755V31.612H268.219V30.832ZM279.03 28.168H286.014V28.996H279.03V28.168ZM277.998 35.596H287.802V36.424H277.998V35.596ZM281.802 31.72H282.798V36.004H281.802V31.72ZM285.642 28.168H286.626V29.248C286.626 30.592 286.626 32.08 286.23 34.276L285.234 34.144C285.642 32.068 285.642 30.544 285.642 29.248V28.168ZM293.743 28.108H294.523V30.172C294.523 32.44 293.563 34.636 291.979 35.596L291.343 34.852C292.843 33.976 293.743 32.032 293.743 30.172V28.108ZM293.923 28.108H294.703V30.112C294.703 31.9 295.543 33.736 296.983 34.54L296.383 35.32C294.799 34.408 293.923 32.296 293.923 30.112V28.108ZM299.731 27.088H300.691V37.936H299.731V27.088ZM298.015 31.444H300.091V32.272H298.015V31.444ZM297.343 27.316H298.291V37.396H297.343V27.316ZM302.514 35.776H312.342V36.604H302.514V35.776ZM306.906 33.448H307.902V36.124H306.906V33.448ZM303.702 27.892H311.13V31.18H304.722V33.352H303.738V30.376H310.146V28.696H303.702V27.892ZM303.738 32.932H311.382V33.748H303.738V32.932ZM313.541 32.584H323.381V33.4H313.541V32.584ZM318.029 33.1H319.037V35.596H318.029V33.1ZM314.789 36.868H322.289V37.696H314.789V36.868ZM314.789 34.528H315.785V37.096H314.789V34.528ZM318.449 27.352C320.741 27.352 322.253 28.192 322.253 29.536C322.253 30.88 320.741 31.72 318.449 31.72C316.145 31.72 314.645 30.88 314.645 29.536C314.645 28.192 316.145 27.352 318.449 27.352ZM318.449 28.168C316.793 28.168 315.701 28.696 315.701 29.536C315.701 30.388 316.793 30.904 318.449 30.904C320.105 30.904 321.197 30.388 321.197 29.536C321.197 28.696 320.105 28.168 318.449 28.168ZM327.03 35.716H336.858V36.544H327.03V35.716ZM327.882 28.168H335.934V28.984H327.882V28.168ZM327.906 32.752H335.922V33.568H327.906V32.752ZM329.574 28.924H330.57V32.836H329.574V28.924ZM333.27 28.924H334.254V32.836H333.27V28.924ZM338.069 35.776H347.897V36.604H338.069V35.776ZM342.461 33.448H343.457V36.124H342.461V33.448ZM339.257 27.892H346.685V31.18H340.277V33.352H339.293V30.376H345.701V28.696H339.257V27.892ZM339.293 32.932H346.937V33.748H339.293V32.932ZM349.696 32.248H350.5C352.624 32.248 353.824 32.2 355.216 31.912L355.336 32.716C353.896 33.004 352.66 33.076 350.5 33.076H349.696V32.248ZM349.696 27.844H354.628V28.648H350.668V32.512H349.696V27.844ZM350.788 34.132H358.024V37.936H357.028V34.948H350.788V34.132ZM357.028 27.088H358.024V33.58H357.028V27.088ZM353.992 29.896H357.304V30.7H353.992V29.896ZM361.407 32.932H368.859V33.736H361.407V32.932ZM360.147 35.716H369.975V36.544H360.147V35.716ZM361.407 28.012H368.739V28.828H362.415V33.184H361.407V28.012ZM362.091 30.436H368.511V31.228H362.091V30.436ZM371.174 32.128H381.014V32.884H371.174V32.128ZM372.338 33.76H379.778V36.076H373.358V37.348H372.374V35.392H378.806V34.468H372.338V33.76ZM372.374 37.084H380.126V37.804H372.374V37.084ZM372.422 27.4H379.742V29.656H373.43V30.832H372.446V28.984H378.77V28.108H372.422V27.4ZM372.446 30.592H379.946V31.312H372.446V30.592ZM392.835 27.088H393.795V33.808H392.835V27.088ZM390.879 27.28H391.827V33.772H390.879V27.28ZM388.983 32.464H391.347V33.172H388.983V32.464ZM387.062 31.684H388.011V33.772H387.062V31.684ZM384.699 32.08L384.591 31.3C386.079 31.3 388.503 31.276 390.303 30.988L390.375 31.672C388.515 32.056 386.199 32.08 384.699 32.08ZM386.499 34.204H387.483V35.212H392.811V34.204H393.795V37.792H386.499V34.204ZM387.483 35.98V37H392.811V35.98H387.483ZM387.519 27.46C388.923 27.46 389.871 28.084 389.871 29.068C389.871 30.064 388.923 30.688 387.519 30.688C386.103 30.688 385.155 30.064 385.155 29.068C385.155 28.084 386.103 27.46 387.519 27.46ZM387.519 28.168C386.631 28.168 386.055 28.516 386.055 29.068C386.055 29.632 386.631 29.968 387.519 29.968C388.395 29.968 388.971 29.632 388.971 29.068C388.971 28.516 388.395 28.168 387.519 28.168ZM398.162 33.556H399.158V37.936H398.162V33.556ZM402.038 33.556H403.046V37.936H402.038V33.556ZM395.69 33.424H405.53V34.24H395.69V33.424ZM396.926 27.508H397.922V28.96H403.286V27.508H404.27V32.152H396.926V27.508ZM397.922 29.776V31.324H403.286V29.776H397.922ZM416.582 27.088H417.578V35.584H416.582V27.088ZM417.158 30.868H419.162V31.696H417.158V30.868ZM410.714 36.88H417.962V37.696H410.714V36.88ZM410.714 35.02H411.71V37.132H410.714V35.02ZM412.01 32.392H413.006V33.868H412.01V32.392ZM409.238 34.336L409.106 33.532C411.026 33.532 413.702 33.496 415.934 33.148L416.018 33.856C413.726 34.276 411.122 34.324 409.238 34.336ZM409.382 28.144H415.61V28.9H409.382V28.144ZM412.502 29.344C414.026 29.344 415.022 29.98 415.022 31.012C415.022 32.056 414.026 32.692 412.502 32.692C410.978 32.692 409.97 32.056 409.97 31.012C409.97 29.98 410.978 29.344 412.502 29.344ZM412.502 30.052C411.53 30.052 410.906 30.424 410.906 31.012C410.906 31.612 411.53 31.972 412.502 31.972C413.462 31.972 414.086 31.612 414.086 31.012C414.086 30.424 413.462 30.052 412.502 30.052ZM412.01 27.04H413.006V28.48H412.01V27.04ZM425.401 29.08H428.305V29.896H425.401V29.08ZM425.305 31.336H428.233V32.152H425.305V31.336ZM428.137 27.088H429.133V33.592H428.137V27.088ZM424.741 27.904H425.809C425.809 30.7 423.877 32.656 420.757 33.592L420.349 32.788C423.121 31.984 424.741 30.388 424.741 28.336V27.904ZM420.913 27.904H425.425V28.72H420.913V27.904ZM425.605 33.712C427.801 33.712 429.193 34.492 429.193 35.8C429.193 37.108 427.801 37.888 425.605 37.888C423.409 37.888 422.017 37.108 422.017 35.8C422.017 34.492 423.409 33.712 425.605 33.712ZM425.605 34.492C424.021 34.492 423.001 34.984 423.001 35.8C423.001 36.616 424.021 37.096 425.605 37.096C427.201 37.096 428.221 36.616 428.221 35.8C428.221 34.984 427.201 34.492 425.605 34.492ZM435.648 31.3H437.7V32.128H435.648V31.3ZM439.512 27.088H440.472V37.936H439.512V27.088ZM437.364 27.316H438.312V37.396H437.364V27.316ZM433.692 27.988C435.096 27.988 436.008 29.44 436.008 31.768C436.008 34.096 435.096 35.548 433.692 35.548C432.288 35.548 431.388 34.096 431.388 31.768C431.388 29.44 432.288 27.988 433.692 27.988ZM433.692 28.912C432.84 28.912 432.3 30.016 432.3 31.768C432.3 33.52 432.84 34.624 433.692 34.624C434.556 34.624 435.096 33.52 435.096 31.768C435.096 30.016 434.556 28.912 433.692 28.912ZM447.707 30.76H450.731V31.576H447.707V30.76ZM445.091 28.024H445.907V29.956C445.907 32.392 444.623 34.72 442.907 35.644L442.271 34.852C443.867 34.06 445.091 31.972 445.091 29.956V28.024ZM445.283 28.024H446.087V29.956C446.087 31.936 447.311 33.904 448.883 34.648L448.295 35.452C446.543 34.564 445.283 32.332 445.283 29.956V28.024ZM450.239 27.076H451.223V37.948H450.239V27.076ZM464.004 27.088H464.964V37.936H464.004V27.088ZM462.252 31.444H464.328V32.26H462.252V31.444ZM459.444 28.48H460.404C460.404 31.276 459.444 33.868 456.348 35.608L455.76 34.9C458.484 33.376 459.444 31.18 459.444 28.672V28.48ZM456.18 28.48H459.78V29.308H456.18V28.48ZM461.592 27.376H462.54V37.408H461.592V27.376ZM467.255 27.532H468.239V29.092H471.299V27.532H472.271V32.272H467.255V27.532ZM468.239 29.872V31.468H471.299V29.872H468.239ZM474.227 27.088H475.223V32.68H474.227V27.088ZM474.791 29.416H476.819V30.244H474.791V29.416ZM468.335 33.208H475.223V35.836H469.343V37.468H468.359V35.092H474.251V34H468.335V33.208ZM468.359 37.024H475.619V37.816H468.359V37.024ZM485.194 27.088H486.19V37.936H485.194V27.088ZM485.95 31.54H487.966V32.38H485.95V31.54ZM477.79 28.816H484.186V29.632H477.79V28.816ZM481.03 30.532C482.566 30.532 483.67 31.564 483.67 33.028C483.67 34.492 482.566 35.524 481.03 35.524C479.506 35.524 478.39 34.492 478.39 33.028C478.39 31.564 479.506 30.532 481.03 30.532ZM481.03 31.36C480.046 31.36 479.338 32.044 479.338 33.028C479.338 34 480.046 34.696 481.03 34.696C482.014 34.696 482.722 34 482.722 33.028C482.722 32.044 482.014 31.36 481.03 31.36ZM480.514 27.22H481.51V29.188H480.514V27.22ZM489.921 28.168H496.905V28.996H489.921V28.168ZM488.889 35.596H498.693V36.424H488.889V35.596ZM492.693 31.72H493.689V36.004H492.693V31.72ZM496.533 28.168H497.517V29.248C497.517 30.592 497.517 32.08 497.121 34.276L496.125 34.144C496.533 32.068 496.533 30.544 496.533 29.248V28.168ZM505.066 33.76H505.834V34.348C505.834 35.764 504.946 37.192 503.386 37.792L502.882 37.048C504.25 36.556 505.066 35.392 505.066 34.348V33.76ZM505.282 33.76H506.026V34.348C506.026 35.44 506.674 36.604 507.97 37.132L507.55 37.888C505.99 37.276 505.282 35.788 505.282 34.348V33.76ZM509.074 33.76H509.818V34.348C509.818 35.62 509.098 37.228 507.55 37.888L507.13 37.132C508.414 36.544 509.074 35.284 509.074 34.348V33.76ZM509.278 33.76H510.046V34.348C510.046 35.464 510.85 36.58 512.23 37.048L511.726 37.792C510.142 37.216 509.278 35.848 509.278 34.348V33.76ZM510.25 27.1H511.258V33.292H510.25V27.1ZM505.438 27.724C507.082 27.724 508.258 28.756 508.258 30.256C508.258 31.756 507.082 32.776 505.438 32.776C503.794 32.776 502.606 31.756 502.606 30.256C502.606 28.756 503.794 27.724 505.438 27.724ZM505.438 28.552C504.358 28.552 503.578 29.248 503.578 30.256C503.578 31.264 504.358 31.948 505.438 31.948C506.518 31.948 507.298 31.264 507.298 30.256C507.298 29.248 506.518 28.552 505.438 28.552ZM516.297 27.916C517.869 27.916 518.997 29.392 518.997 31.696C518.997 34.012 517.869 35.488 516.297 35.488C514.713 35.488 513.597 34.012 513.597 31.696C513.597 29.392 514.713 27.916 516.297 27.916ZM516.297 28.816C515.253 28.816 514.545 29.944 514.545 31.696C514.545 33.46 515.253 34.612 516.297 34.612C517.341 34.612 518.049 33.46 518.049 31.696C518.049 29.944 517.341 28.816 516.297 28.816ZM521.349 27.076H522.333V37.948H521.349V27.076ZM518.673 31.216H521.781V32.032H518.673V31.216ZM526.844 32.668H527.828V35.92H526.844V32.668ZM530.852 32.668H531.848V35.92H530.852V32.668ZM524.444 35.728H534.272V36.556H524.444V35.728ZM529.34 27.772C531.632 27.772 533.276 28.864 533.276 30.568C533.276 32.26 531.632 33.352 529.34 33.352C527.036 33.352 525.392 32.26 525.392 30.568C525.392 28.864 527.036 27.772 529.34 27.772ZM529.34 28.564C527.6 28.564 526.352 29.356 526.352 30.568C526.352 31.768 527.6 32.56 529.34 32.56C531.08 32.56 532.316 31.768 532.316 30.568C532.316 29.356 531.08 28.564 529.34 28.564ZM536.383 36.8828C536.195 36.8828 536.037 36.8184 535.908 36.6895C535.779 36.5605 535.715 36.4023 535.715 36.2148C535.715 36.0273 535.779 35.8691 535.908 35.7402C536.037 35.6113 536.195 35.5469 536.383 35.5469C536.57 35.5469 536.729 35.6113 536.857 35.7402C536.986 35.8691 537.051 36.0273 537.051 36.2148C537.051 36.4023 536.986 36.5605 536.857 36.6895C536.729 36.8184 536.57 36.8828 536.383 36.8828ZM135.674 44.432C136.45 44.432 137.09 44.528 137.594 44.72C138.098 44.904 138.474 45.188 138.722 45.572C138.97 45.948 139.094 46.424 139.094 47C139.094 47.392 139.018 47.736 138.866 48.032C138.722 48.32 138.526 48.568 138.278 48.776C138.038 48.976 137.778 49.14 137.498 49.268L140.018 53H138.002L135.962 49.712H134.99V53H133.178V44.432H135.674ZM135.542 45.92H134.99V48.236H135.578C135.978 48.236 136.302 48.192 136.55 48.104C136.798 48.016 136.978 47.884 137.09 47.708C137.202 47.524 137.258 47.304 137.258 47.048C137.258 46.776 137.194 46.56 137.066 46.4C136.946 46.232 136.758 46.112 136.502 46.04C136.254 45.96 135.934 45.92 135.542 45.92ZM143.656 46.328C144.264 46.328 144.784 46.444 145.216 46.676C145.656 46.908 145.996 47.244 146.236 47.684C146.476 48.124 146.596 48.664 146.596 49.304V50.168H142.372C142.388 50.672 142.536 51.068 142.816 51.356C143.104 51.644 143.5 51.788 144.004 51.788C144.428 51.788 144.812 51.748 145.156 51.668C145.5 51.58 145.856 51.448 146.224 51.272V52.652C145.904 52.812 145.564 52.928 145.204 53C144.852 53.08 144.424 53.12 143.92 53.12C143.264 53.12 142.684 53 142.18 52.76C141.676 52.512 141.28 52.14 140.992 51.644C140.704 51.148 140.56 50.524 140.56 49.772C140.56 49.004 140.688 48.368 140.944 47.864C141.208 47.352 141.572 46.968 142.036 46.712C142.5 46.456 143.04 46.328 143.656 46.328ZM143.668 47.6C143.324 47.6 143.036 47.712 142.804 47.936C142.58 48.16 142.448 48.508 142.408 48.98H144.916C144.916 48.716 144.868 48.48 144.772 48.272C144.684 48.064 144.548 47.9 144.364 47.78C144.18 47.66 143.948 47.6 143.668 47.6ZM150.733 46.316C151.613 46.316 152.285 46.508 152.749 46.892C153.221 47.268 153.457 47.848 153.457 48.632V53H152.209L151.861 52.112H151.813C151.629 52.344 151.437 52.536 151.237 52.688C151.045 52.84 150.821 52.948 150.565 53.012C150.317 53.084 150.009 53.12 149.641 53.12C149.257 53.12 148.909 53.048 148.597 52.904C148.293 52.752 148.053 52.524 147.877 52.22C147.701 51.908 147.613 51.516 147.613 51.044C147.613 50.348 147.857 49.836 148.345 49.508C148.833 49.172 149.565 48.988 150.541 48.956L151.681 48.92V48.632C151.681 48.288 151.589 48.036 151.405 47.876C151.229 47.716 150.981 47.636 150.661 47.636C150.341 47.636 150.029 47.684 149.725 47.78C149.421 47.868 149.117 47.98 148.813 48.116L148.225 46.904C148.577 46.72 148.965 46.576 149.389 46.472C149.821 46.368 150.269 46.316 150.733 46.316ZM150.985 49.988C150.409 50.004 150.009 50.108 149.785 50.3C149.561 50.492 149.449 50.744 149.449 51.056C149.449 51.328 149.529 51.524 149.689 51.644C149.849 51.756 150.057 51.812 150.313 51.812C150.697 51.812 151.021 51.7 151.285 51.476C151.549 51.244 151.681 50.92 151.681 50.504V49.964L150.985 49.988ZM157.952 53.12C157.304 53.12 156.752 53.004 156.296 52.772C155.84 52.532 155.492 52.164 155.252 51.668C155.012 51.172 154.892 50.536 154.892 49.76C154.892 48.96 155.028 48.308 155.3 47.804C155.572 47.3 155.948 46.928 156.428 46.688C156.916 46.448 157.476 46.328 158.108 46.328C158.556 46.328 158.944 46.372 159.272 46.46C159.608 46.548 159.9 46.652 160.148 46.772L159.62 48.152C159.34 48.04 159.076 47.948 158.828 47.876C158.588 47.804 158.348 47.768 158.108 47.768C157.796 47.768 157.536 47.844 157.328 47.996C157.12 48.14 156.964 48.36 156.86 48.656C156.764 48.944 156.716 49.308 156.716 49.748C156.716 50.18 156.768 50.54 156.872 50.828C156.984 51.108 157.144 51.32 157.352 51.464C157.56 51.6 157.812 51.668 158.108 51.668C158.484 51.668 158.816 51.62 159.104 51.524C159.392 51.42 159.672 51.28 159.944 51.104V52.628C159.672 52.804 159.384 52.928 159.08 53C158.784 53.08 158.408 53.12 157.952 53.12ZM164.212 51.692C164.412 51.692 164.604 51.672 164.788 51.632C164.972 51.592 165.156 51.544 165.34 51.488V52.82C165.148 52.9 164.908 52.968 164.62 53.024C164.34 53.088 164.032 53.12 163.696 53.12C163.304 53.12 162.952 53.056 162.64 52.928C162.336 52.8 162.092 52.58 161.908 52.268C161.732 51.948 161.644 51.508 161.644 50.948V47.792H160.792V47.036L161.776 46.436L162.292 45.056H163.432V46.448H165.268V47.792H163.432V50.948C163.432 51.196 163.504 51.384 163.648 51.512C163.792 51.632 163.98 51.692 164.212 51.692ZM169.055 48.56H170.051V51.152H169.055V48.56ZM169.547 43.784C171.215 43.784 172.415 44.828 172.415 46.34C172.415 47.852 171.215 48.896 169.547 48.896C167.879 48.896 166.679 47.852 166.679 46.34C166.679 44.828 167.879 43.784 169.547 43.784ZM169.547 44.636C168.443 44.636 167.651 45.332 167.651 46.34C167.651 47.348 168.443 48.044 169.547 48.044C170.651 48.044 171.443 47.348 171.443 46.34C171.443 45.332 170.651 44.636 169.547 44.636ZM173.651 43.088H174.647V53.936H173.651V43.088ZM174.359 47.552H176.363V48.392H174.359V47.552ZM166.331 51.596L166.187 50.768C168.143 50.756 170.759 50.744 172.967 50.444L173.051 51.188C170.759 51.572 168.227 51.596 166.331 51.596ZM187.871 53H185.567L181.835 46.52H181.787C181.795 46.72 181.803 46.924 181.811 47.132C181.819 47.332 181.827 47.536 181.835 47.744C181.851 47.944 181.863 48.148 181.871 48.356C181.879 48.556 181.887 48.76 181.895 48.968V53H180.275V44.432H182.567L186.287 50.852H186.323C186.315 50.652 186.307 50.456 186.299 50.264C186.291 50.064 186.283 49.868 186.275 49.676C186.275 49.476 186.271 49.28 186.263 49.088C186.255 48.888 186.247 48.688 186.239 48.488V44.432H187.871V53ZM192.593 46.328C193.201 46.328 193.721 46.444 194.153 46.676C194.593 46.908 194.933 47.244 195.173 47.684C195.413 48.124 195.533 48.664 195.533 49.304V50.168H191.309C191.325 50.672 191.473 51.068 191.753 51.356C192.041 51.644 192.437 51.788 192.941 51.788C193.365 51.788 193.749 51.748 194.093 51.668C194.437 51.58 194.793 51.448 195.161 51.272V52.652C194.841 52.812 194.501 52.928 194.141 53C193.789 53.08 193.361 53.12 192.857 53.12C192.201 53.12 191.621 53 191.117 52.76C190.613 52.512 190.217 52.14 189.929 51.644C189.641 51.148 189.497 50.524 189.497 49.772C189.497 49.004 189.625 48.368 189.881 47.864C190.145 47.352 190.509 46.968 190.973 46.712C191.437 46.456 191.977 46.328 192.593 46.328ZM192.605 47.6C192.261 47.6 191.973 47.712 191.741 47.936C191.517 48.16 191.385 48.508 191.345 48.98H193.853C193.853 48.716 193.805 48.48 193.709 48.272C193.621 48.064 193.485 47.9 193.301 47.78C193.117 47.66 192.885 47.6 192.605 47.6ZM198.093 49.652L195.981 46.448H198.009L199.281 48.536L200.565 46.448H202.592L200.457 49.652L202.689 53H200.661L199.281 50.756L197.901 53H195.873L198.093 49.652ZM206.446 51.692C206.646 51.692 206.838 51.672 207.022 51.632C207.206 51.592 207.39 51.544 207.574 51.488V52.82C207.382 52.9 207.142 52.968 206.854 53.024C206.574 53.088 206.266 53.12 205.93 53.12C205.538 53.12 205.186 53.056 204.874 52.928C204.57 52.8 204.326 52.58 204.142 52.268C203.966 51.948 203.878 51.508 203.878 50.948V47.792H203.026V47.036L204.01 46.436L204.526 45.056H205.666V46.448H207.502V47.792H205.666V50.948C205.666 51.196 205.738 51.384 205.882 51.512C206.026 51.632 206.214 51.692 206.446 51.692ZM209.6 52.7715C209.342 52.7715 209.121 52.6816 208.938 52.502C208.758 52.3223 208.668 52.1016 208.668 51.8398C208.668 51.582 208.758 51.3633 208.938 51.1836C209.121 51.0039 209.342 50.9141 209.6 50.9141C209.861 50.9141 210.082 51.0039 210.262 51.1836C210.441 51.3633 210.531 51.582 210.531 51.8398C210.531 52.1016 210.441 52.3223 210.262 52.502C210.082 52.6816 209.861 52.7715 209.6 52.7715ZM211.666 55.88C211.466 55.88 211.258 55.864 211.042 55.832C210.818 55.808 210.634 55.776 210.49 55.736V54.332C210.634 54.364 210.77 54.388 210.898 54.404C211.026 54.428 211.17 54.44 211.33 54.44C211.57 54.44 211.774 54.372 211.942 54.236C212.11 54.1 212.194 53.836 212.194 53.444V46.448H213.982V53.708C213.982 54.108 213.906 54.472 213.754 54.8C213.602 55.128 213.354 55.388 213.01 55.58C212.674 55.78 212.226 55.88 211.666 55.88ZM212.122 44.756C212.122 44.42 212.214 44.192 212.398 44.072C212.59 43.944 212.822 43.88 213.094 43.88C213.358 43.88 213.586 43.944 213.778 44.072C213.97 44.192 214.066 44.42 214.066 44.756C214.066 45.084 213.97 45.312 213.778 45.44C213.586 45.568 213.358 45.632 213.094 45.632C212.822 45.632 212.59 45.568 212.398 45.44C212.214 45.312 212.122 45.084 212.122 44.756ZM220.422 51.056C220.422 51.496 220.318 51.872 220.11 52.184C219.902 52.488 219.59 52.72 219.174 52.88C218.758 53.04 218.242 53.12 217.626 53.12C217.17 53.12 216.778 53.088 216.45 53.024C216.122 52.968 215.794 52.872 215.466 52.736V51.26C215.818 51.42 216.198 51.552 216.606 51.656C217.014 51.76 217.374 51.812 217.686 51.812C218.038 51.812 218.286 51.76 218.43 51.656C218.582 51.552 218.658 51.416 218.658 51.248C218.658 51.136 218.626 51.036 218.562 50.948C218.506 50.86 218.378 50.76 218.178 50.648C217.978 50.536 217.666 50.392 217.242 50.216C216.834 50.04 216.498 49.868 216.234 49.7C215.97 49.524 215.774 49.316 215.646 49.076C215.518 48.828 215.454 48.52 215.454 48.152C215.454 47.544 215.69 47.088 216.162 46.784C216.634 46.48 217.262 46.328 218.046 46.328C218.454 46.328 218.842 46.368 219.21 46.448C219.578 46.528 219.958 46.66 220.35 46.844L219.81 48.128C219.594 48.032 219.386 47.948 219.186 47.876C218.986 47.804 218.79 47.748 218.598 47.708C218.414 47.668 218.222 47.648 218.022 47.648C217.758 47.648 217.558 47.684 217.422 47.756C217.294 47.828 217.23 47.936 217.23 48.08C217.23 48.184 217.262 48.28 217.326 48.368C217.398 48.448 217.53 48.536 217.722 48.632C217.922 48.728 218.214 48.856 218.598 49.016C218.974 49.168 219.298 49.328 219.57 49.496C219.842 49.656 220.05 49.86 220.194 50.108C220.346 50.348 220.422 50.664 220.422 51.056ZM221.467 48.128H231.307V48.884H221.467V48.128ZM222.631 49.76H230.071V52.076H223.651V53.348H222.667V51.392H229.099V50.468H222.631V49.76ZM222.667 53.084H230.419V53.804H222.667V53.084ZM222.715 43.4H230.035V45.656H223.723V46.832H222.739V44.984H229.063V44.108H222.715V43.4ZM222.739 46.592H230.239V47.312H222.739V46.592ZM237.607 44.024H238.423V45.968C238.423 48.368 237.127 50.708 235.411 51.62L234.799 50.828C236.371 50.036 237.607 47.948 237.607 45.968V44.024ZM237.787 44.024H238.591V45.968C238.591 47.876 239.803 49.856 241.339 50.624L240.727 51.416C239.047 50.516 237.787 48.296 237.787 45.968V44.024ZM242.287 43.088H243.295V53.936H242.287V43.088ZM243.055 47.48H245.071V48.32H243.055V47.48ZM248.407 46.76H249.391V48.812H248.407V46.76ZM252.391 46.76H253.375V48.812H252.391V46.76ZM245.983 48.452H255.787V49.256H245.983V48.452ZM250.879 50.072C253.207 50.072 254.599 50.756 254.599 51.992C254.599 53.228 253.207 53.924 250.879 53.924C248.551 53.924 247.159 53.228 247.159 51.992C247.159 50.756 248.551 50.072 250.879 50.072ZM250.879 50.84C249.187 50.84 248.167 51.26 248.167 51.992C248.167 52.736 249.187 53.144 250.879 53.144C252.583 53.144 253.591 52.736 253.591 51.992C253.591 51.26 252.583 50.84 250.879 50.84ZM250.891 43.28C253.243 43.28 254.707 44.036 254.707 45.308C254.707 46.568 253.243 47.312 250.891 47.312C248.527 47.312 247.075 46.568 247.075 45.308C247.075 44.036 248.527 43.28 250.891 43.28ZM250.891 44.06C249.163 44.06 248.095 44.516 248.095 45.308C248.095 46.088 249.163 46.544 250.891 46.544C252.619 46.544 253.687 46.088 253.687 45.308C253.687 44.516 252.619 44.06 250.891 44.06ZM257.01 44.936H262.386V45.752H257.01V44.936ZM259.698 46.472C261.054 46.472 262.038 47.492 262.038 48.956C262.038 50.408 261.054 51.428 259.698 51.428C258.354 51.428 257.37 50.408 257.37 48.956C257.37 47.492 258.354 46.472 259.698 46.472ZM259.698 47.324C258.87 47.324 258.27 47.996 258.27 48.956C258.27 49.916 258.87 50.588 259.698 50.588C260.538 50.588 261.15 49.916 261.15 48.956C261.15 47.996 260.538 47.324 259.698 47.324ZM265.254 43.088H266.214V53.936H265.254V43.088ZM263.526 47.648H265.578V48.476H263.526V47.648ZM262.938 43.328H263.874V53.408H262.938V43.328ZM259.218 43.4H260.202V45.44H259.218V43.4ZM277.842 43.076H278.85V53.948H277.842V43.076ZM278.61 47.36H280.626V48.2H278.61V47.36ZM270.966 50.408H271.818C273.822 50.408 275.226 50.336 276.846 50.036L276.954 50.876C275.286 51.188 273.858 51.248 271.818 51.248H270.966V50.408ZM270.966 44.132H276.006V44.948H271.95V50.78H270.966V44.132ZM289.661 44.708H291.545V45.536H289.661V44.708ZM289.661 47.012H291.545V47.84H289.661V47.012ZM284.573 43.724C286.205 43.724 287.405 44.78 287.405 46.292C287.405 47.792 286.205 48.836 284.573 48.836C282.941 48.836 281.741 47.792 281.741 46.292C281.741 44.78 282.941 43.724 284.573 43.724ZM284.573 44.564C283.493 44.564 282.713 45.272 282.713 46.292C282.713 47.312 283.493 48.008 284.573 48.008C285.653 48.008 286.433 47.312 286.433 46.292C286.433 45.272 285.653 44.564 284.573 44.564ZM288.965 43.088H289.961V49.508H288.965V43.088ZM286.505 49.856C288.713 49.856 290.069 50.612 290.069 51.884C290.069 53.168 288.713 53.912 286.505 53.912C284.297 53.912 282.941 53.168 282.941 51.884C282.941 50.612 284.297 49.856 286.505 49.856ZM286.505 50.66C284.897 50.66 283.913 51.104 283.913 51.884C283.913 52.664 284.897 53.12 286.505 53.12C288.113 53.12 289.097 52.664 289.097 51.884C289.097 51.104 288.113 50.66 286.505 50.66ZM300.004 43.1H301V51.236H300.004V43.1ZM300.688 46.652H302.608V47.492H300.688V46.652ZM292.612 44.408H299.02V45.212H292.612V44.408ZM295.816 45.812C297.352 45.812 298.408 46.616 298.408 47.84C298.408 49.052 297.352 49.856 295.816 49.856C294.268 49.856 293.212 49.052 293.212 47.84C293.212 46.616 294.268 45.812 295.816 45.812ZM295.816 46.592C294.832 46.592 294.16 47.084 294.16 47.84C294.16 48.584 294.832 49.076 295.816 49.076C296.788 49.076 297.46 48.584 297.46 47.84C297.46 47.084 296.788 46.592 295.816 46.592ZM295.312 43.088H296.308V44.828H295.312V43.088ZM294.244 52.88H301.492V53.696H294.244V52.88ZM294.244 50.588H295.24V53.228H294.244V50.588ZM307.709 53H306.629V44.432H311.417V45.38H307.709V48.416H311.189V49.364H307.709V53ZM317.64 53H312.852V44.432H317.64V45.38H313.932V48.056H317.424V48.992H313.932V52.052H317.64V53ZM326.805 46.76H329.829V47.576H326.805V46.76ZM324.189 44.024H325.005V45.956C325.005 48.392 323.721 50.72 322.005 51.644L321.369 50.852C322.965 50.06 324.189 47.972 324.189 45.956V44.024ZM324.381 44.024H325.185V45.956C325.185 47.936 326.409 49.904 327.981 50.648L327.393 51.452C325.641 50.564 324.381 48.332 324.381 45.956V44.024ZM329.337 43.076H330.321V53.948H329.337V43.076ZM340.304 43.076H341.3V53.948H340.304V43.076ZM333.044 44H334.028V46.868H337.16V44H338.156V51.332H333.044V44ZM334.028 47.66V50.516H337.16V47.66H334.028ZM347.815 43.832H348.679V44.66C348.679 47.024 346.483 48.86 344.311 49.352L343.867 48.524C345.775 48.164 347.815 46.508 347.815 44.66V43.832ZM347.995 43.832H348.859V44.66C348.859 46.52 350.911 48.164 352.807 48.524L352.363 49.352C350.203 48.86 347.995 47.036 347.995 44.66V43.832ZM343.471 51.656H353.299V52.472H343.471V51.656ZM354.498 48.128H364.338V48.884H354.498V48.128ZM355.662 49.76H363.102V52.076H356.682V53.348H355.698V51.392H362.13V50.468H355.662V49.76ZM355.698 53.084H363.45V53.804H355.698V53.084ZM355.746 43.4H363.066V45.656H356.754V46.832H355.77V44.984H362.094V44.108H355.746V43.4ZM355.77 46.592H363.27V47.312H355.77V46.592ZM368.371 44.108H369.319V46.76H371.587V44.108H372.511V51.224H368.371V44.108ZM369.319 47.564V50.408H371.587V47.564H369.319ZM376.243 43.088H377.203V53.936H376.243V43.088ZM374.503 47.384H376.591V48.2H374.503V47.384ZM373.843 43.316H374.791V53.396H373.843V43.316ZM379.026 51.764H388.854V52.592H379.026V51.764ZM383.406 48.956H384.402V52.136H383.406V48.956ZM379.878 44.12H387.93V44.936H379.878V44.12ZM379.902 48.488H387.918V49.292H379.902V48.488ZM381.57 44.78H382.566V48.632H381.57V44.78ZM385.266 44.78H386.25V48.632H385.266V44.78ZM397.409 43.088H398.405V53.936H397.409V43.088ZM398.165 47.54H400.181V48.38H398.165V47.54ZM390.005 44.816H396.401V45.632H390.005V44.816ZM393.245 46.532C394.781 46.532 395.885 47.564 395.885 49.028C395.885 50.492 394.781 51.524 393.245 51.524C391.721 51.524 390.605 50.492 390.605 49.028C390.605 47.564 391.721 46.532 393.245 46.532ZM393.245 47.36C392.261 47.36 391.553 48.044 391.553 49.028C391.553 50 392.261 50.696 393.245 50.696C394.229 50.696 394.937 50 394.937 49.028C394.937 48.044 394.229 47.36 393.245 47.36ZM392.729 43.22H393.725V45.188H392.729V43.22ZM402.136 44.168H409.12V44.996H402.136V44.168ZM401.104 51.596H410.908V52.424H401.104V51.596ZM404.908 47.72H405.904V52.004H404.908V47.72ZM408.748 44.168H409.732V45.248C409.732 46.592 409.732 48.08 409.336 50.276L408.34 50.144C408.748 48.068 408.748 46.544 408.748 45.248V44.168ZM413.847 51.74C413.775 52.02 413.683 52.324 413.571 52.652C413.459 52.98 413.335 53.304 413.199 53.624C413.071 53.952 412.943 54.26 412.815 54.548H412.035C412.115 54.244 412.191 53.916 412.263 53.564C412.343 53.22 412.415 52.88 412.479 52.544C412.543 52.2 412.595 51.888 412.635 51.608H413.763L413.847 51.74ZM419.039 43.592H426.023V44.396H419.039V43.592ZM425.375 43.592H426.347V44.432C426.347 45.332 426.347 46.4 426.035 47.828L425.051 47.72C425.375 46.316 425.375 45.32 425.375 44.432V43.592ZM425.651 45.428V46.136L418.895 46.436L418.763 45.644L425.651 45.428ZM417.791 47.528H427.583V48.32H417.791V47.528ZM418.931 49.352H426.431V51.884H419.939V53.348H418.955V51.14H425.447V50.12H418.931V49.352ZM418.955 53.012H426.803V53.792H418.955V53.012ZM436.174 43.076H437.17V53.948H436.174V43.076ZM436.93 47.396H438.946V48.236H436.93V47.396ZM429.262 50.504H430.126C432.166 50.504 433.582 50.432 435.226 50.12L435.334 50.948C433.642 51.248 432.202 51.332 430.126 51.332H429.262V50.504ZM429.238 44.096H434.146V47.984H430.246V50.84H429.262V47.168H433.162V44.912H429.238V44.096ZM447.742 43.076H448.738V53.948H447.742V43.076ZM443.014 43.916C444.622 43.916 445.774 45.392 445.774 47.696C445.774 50.012 444.622 51.488 443.014 51.488C441.418 51.488 440.266 50.012 440.266 47.696C440.266 45.392 441.418 43.916 443.014 43.916ZM443.014 44.816C441.958 44.816 441.214 45.944 441.214 47.696C441.214 49.46 441.958 50.612 443.014 50.612C444.082 50.612 444.814 49.46 444.814 47.696C444.814 45.944 444.082 44.816 443.014 44.816ZM456.309 46.1H459.285V46.904H456.309V46.1ZM458.829 43.1H459.825V51.08H458.829V43.1ZM452.901 52.88H460.125V53.696H452.901V52.88ZM452.901 50.276H453.897V53.228H452.901V50.276ZM453.861 43.784C455.457 43.784 456.657 44.9 456.657 46.472C456.657 48.044 455.457 49.16 453.861 49.16C452.265 49.16 451.065 48.044 451.065 46.472C451.065 44.9 452.265 43.784 453.861 43.784ZM453.861 44.66C452.805 44.66 452.025 45.404 452.025 46.472C452.025 47.54 452.805 48.284 453.861 48.284C454.905 48.284 455.697 47.54 455.697 46.472C455.697 45.404 454.905 44.66 453.861 44.66ZM463.208 48.932H470.66V49.736H463.208V48.932ZM461.948 51.716H471.776V52.544H461.948V51.716ZM463.208 44.012H470.54V44.828H464.216V49.184H463.208V44.012ZM463.892 46.436H470.312V47.228H463.892V46.436ZM477.379 47.3H479.431V48.128H477.379V47.3ZM481.243 43.088H482.203V53.936H481.243V43.088ZM479.095 43.316H480.043V53.396H479.095V43.316ZM475.423 43.988C476.827 43.988 477.739 45.44 477.739 47.768C477.739 50.096 476.827 51.548 475.423 51.548C474.019 51.548 473.119 50.096 473.119 47.768C473.119 45.44 474.019 43.988 475.423 43.988ZM475.423 44.912C474.571 44.912 474.031 46.016 474.031 47.768C474.031 49.52 474.571 50.624 475.423 50.624C476.287 50.624 476.827 49.52 476.827 47.768C476.827 46.016 476.287 44.912 475.423 44.912ZM489.438 46.76H492.462V47.576H489.438V46.76ZM486.822 44.024H487.638V45.956C487.638 48.392 486.354 50.72 484.638 51.644L484.002 50.852C485.598 50.06 486.822 47.972 486.822 45.956V44.024ZM487.014 44.024H487.818V45.956C487.818 47.936 489.042 49.904 490.614 50.648L490.026 51.452C488.274 50.564 487.014 48.332 487.014 45.956V44.024ZM491.97 43.076H492.954V53.948H491.97V43.076ZM150.918 59.088H151.926V64.704H150.918V59.088ZM144.846 65.232H151.926V67.848H145.854V69.48H144.882V67.104H150.93V66.024H144.846V65.232ZM144.882 69.024H152.322V69.816H144.882V69.024ZM143.502 59.82H149.322V60.612H143.502V59.82ZM143.31 64.344L143.202 63.516C145.134 63.516 147.726 63.468 149.838 63.204L149.898 63.936C147.738 64.26 145.218 64.332 143.31 64.344ZM144.57 60.18H145.53V63.876H144.57V60.18ZM147.282 60.18H148.254V63.876H147.282V60.18ZM156.461 64.668H157.445V67.92H156.461V64.668ZM160.469 64.668H161.465V67.92H160.469V64.668ZM154.061 67.728H163.889V68.556H154.061V67.728ZM158.957 59.772C161.249 59.772 162.893 60.864 162.893 62.568C162.893 64.26 161.249 65.352 158.957 65.352C156.653 65.352 155.009 64.26 155.009 62.568C155.009 60.864 156.653 59.772 158.957 59.772ZM158.957 60.564C157.217 60.564 155.969 61.356 155.969 62.568C155.969 63.768 157.217 64.56 158.957 64.56C160.697 64.56 161.933 63.768 161.933 62.568C161.933 61.356 160.697 60.564 158.957 60.564ZM172.516 59.1H173.512V67.236H172.516V59.1ZM173.2 62.652H175.12V63.492H173.2V62.652ZM165.124 60.408H171.532V61.212H165.124V60.408ZM168.328 61.812C169.864 61.812 170.92 62.616 170.92 63.84C170.92 65.052 169.864 65.856 168.328 65.856C166.78 65.856 165.724 65.052 165.724 63.84C165.724 62.616 166.78 61.812 168.328 61.812ZM168.328 62.592C167.344 62.592 166.672 63.084 166.672 63.84C166.672 64.584 167.344 65.076 168.328 65.076C169.3 65.076 169.972 64.584 169.972 63.84C169.972 63.084 169.3 62.592 168.328 62.592ZM167.824 59.088H168.82V60.828H167.824V59.088ZM166.756 68.88H174.004V69.696H166.756V68.88ZM166.756 66.588H167.752V69.228H166.756V66.588ZM184.361 61.896H186.809V62.724H184.361V61.896ZM186.497 59.088H187.493V65.556H186.497V59.088ZM183.929 65.88C186.161 65.88 187.541 66.636 187.541 67.908C187.541 69.192 186.161 69.924 183.929 69.924C181.685 69.924 180.305 69.192 180.305 67.908C180.305 66.636 181.685 65.88 183.929 65.88ZM183.929 66.66C182.297 66.66 181.301 67.116 181.301 67.908C181.301 68.688 182.297 69.144 183.929 69.144C185.561 69.144 186.557 68.688 186.557 67.908C186.557 67.116 185.561 66.66 183.929 66.66ZM181.337 60.18H182.153V61.056C182.153 63.06 180.929 64.776 179.129 65.448L178.613 64.656C180.221 64.068 181.337 62.616 181.337 61.056V60.18ZM181.529 60.18H182.333V61.056C182.333 62.46 183.389 63.804 184.961 64.356L184.457 65.148C182.693 64.512 181.529 62.88 181.529 61.056V60.18ZM178.913 59.88H184.709V60.696H178.913V59.88ZM189.616 67.728H199.444V68.556H189.616V67.728ZM194.008 65.136H195.004V67.968H194.008V65.136ZM190.768 59.856H191.752V61.788H197.284V59.856H198.268V65.4H190.768V59.856ZM191.752 62.592V64.584H197.284V62.592H191.752ZM201.975 62.34H209.343V63.156H201.975V62.34ZM200.643 64.608H210.483V65.424H200.643V64.608ZM201.975 59.484H202.959V62.748H201.975V59.484ZM201.903 68.856H209.403V69.672H201.903V68.856ZM201.903 66.504H202.887V69.072H201.903V66.504ZM213.795 71.88C213.595 71.88 213.419 71.864 213.267 71.832C213.115 71.808 212.983 71.776 212.871 71.736V70.884C212.991 70.916 213.115 70.944 213.243 70.968C213.371 70.992 213.511 71.004 213.663 71.004C213.919 71.004 214.131 70.932 214.299 70.788C214.467 70.652 214.551 70.388 214.551 69.996V62.568H215.607V69.96C215.607 70.36 215.543 70.704 215.415 70.992C215.287 71.28 215.091 71.5 214.827 71.652C214.563 71.804 214.219 71.88 213.795 71.88ZM214.467 60.828C214.467 60.596 214.527 60.428 214.647 60.324C214.767 60.212 214.915 60.156 215.091 60.156C215.251 60.156 215.391 60.212 215.511 60.324C215.639 60.428 215.703 60.596 215.703 60.828C215.703 61.052 215.639 61.22 215.511 61.332C215.391 61.444 215.251 61.5 215.091 61.5C214.915 61.5 214.767 61.444 214.647 61.332C214.527 61.22 214.467 61.052 214.467 60.828ZM221.833 67.224C221.833 67.64 221.729 67.988 221.521 68.268C221.313 68.548 221.017 68.76 220.633 68.904C220.249 69.048 219.793 69.12 219.265 69.12C218.817 69.12 218.429 69.084 218.101 69.012C217.781 68.94 217.497 68.84 217.249 68.712V67.752C217.505 67.88 217.813 68 218.173 68.112C218.541 68.216 218.913 68.268 219.289 68.268C219.825 68.268 220.213 68.184 220.453 68.016C220.693 67.84 220.813 67.608 220.813 67.32C220.813 67.16 220.769 67.016 220.681 66.888C220.593 66.76 220.433 66.632 220.201 66.504C219.977 66.376 219.653 66.232 219.229 66.072C218.813 65.912 218.457 65.752 218.161 65.592C217.865 65.432 217.637 65.24 217.477 65.016C217.317 64.792 217.237 64.504 217.237 64.152C217.237 63.608 217.457 63.188 217.897 62.892C218.345 62.596 218.929 62.448 219.649 62.448C220.041 62.448 220.405 62.488 220.741 62.568C221.085 62.64 221.405 62.744 221.701 62.88L221.341 63.72C221.165 63.64 220.977 63.572 220.777 63.516C220.585 63.452 220.389 63.404 220.189 63.372C219.989 63.332 219.785 63.312 219.577 63.312C219.145 63.312 218.813 63.384 218.581 63.528C218.357 63.664 218.245 63.852 218.245 64.092C218.245 64.268 218.297 64.42 218.401 64.548C218.505 64.668 218.677 64.788 218.917 64.908C219.165 65.02 219.493 65.156 219.901 65.316C220.309 65.468 220.657 65.624 220.945 65.784C221.233 65.944 221.453 66.14 221.605 66.372C221.757 66.596 221.833 66.88 221.833 67.224ZM225.823 62.46C226.607 62.46 227.187 62.632 227.563 62.976C227.939 63.32 228.127 63.868 228.127 64.62V69H227.359L227.155 68.088H227.107C226.923 68.32 226.731 68.516 226.531 68.676C226.339 68.828 226.115 68.94 225.859 69.012C225.611 69.084 225.307 69.12 224.947 69.12C224.563 69.12 224.215 69.052 223.903 68.916C223.599 68.78 223.359 68.572 223.183 68.292C223.007 68.004 222.919 67.644 222.919 67.212C222.919 66.572 223.171 66.08 223.675 65.736C224.179 65.384 224.955 65.192 226.003 65.16L227.095 65.124V64.74C227.095 64.204 226.979 63.832 226.747 63.624C226.515 63.416 226.187 63.312 225.763 63.312C225.427 63.312 225.107 63.364 224.803 63.468C224.499 63.564 224.215 63.676 223.951 63.804L223.627 63.012C223.907 62.86 224.239 62.732 224.623 62.628C225.007 62.516 225.407 62.46 225.823 62.46ZM226.135 65.892C225.335 65.924 224.779 66.052 224.467 66.276C224.163 66.5 224.011 66.816 224.011 67.224C224.011 67.584 224.119 67.848 224.335 68.016C224.559 68.184 224.843 68.268 225.187 68.268C225.731 68.268 226.183 68.12 226.543 67.824C226.903 67.52 227.083 67.056 227.083 66.432V65.856L226.135 65.892ZM233.174 62.448C233.966 62.448 234.602 62.724 235.082 63.276C235.57 63.828 235.814 64.66 235.814 65.772C235.814 66.5 235.702 67.116 235.478 67.62C235.262 68.116 234.954 68.492 234.554 68.748C234.162 68.996 233.698 69.12 233.162 69.12C232.834 69.12 232.542 69.076 232.286 68.988C232.03 68.9 231.81 68.788 231.626 68.652C231.45 68.508 231.298 68.352 231.17 68.184H231.098C231.114 68.32 231.13 68.492 231.146 68.7C231.162 68.908 231.17 69.088 231.17 69.24V71.88H230.114V62.568H230.978L231.122 63.444H231.17C231.298 63.26 231.45 63.092 231.626 62.94C231.81 62.788 232.026 62.668 232.274 62.58C232.53 62.492 232.83 62.448 233.174 62.448ZM232.982 63.336C232.55 63.336 232.202 63.42 231.938 63.588C231.674 63.748 231.482 63.992 231.362 64.32C231.242 64.648 231.178 65.064 231.17 65.568V65.772C231.17 66.3 231.226 66.748 231.338 67.116C231.45 67.484 231.638 67.764 231.902 67.956C232.174 68.148 232.542 68.244 233.006 68.244C233.398 68.244 233.718 68.136 233.966 67.92C234.222 67.704 234.41 67.412 234.53 67.044C234.658 66.668 234.722 66.24 234.722 65.76C234.722 65.024 234.578 64.436 234.29 63.996C234.01 63.556 233.574 63.336 232.982 63.336ZM238.553 62.568V69H237.497V62.568H238.553ZM238.037 60.156C238.197 60.156 238.337 60.212 238.457 60.324C238.585 60.428 238.649 60.596 238.649 60.828C238.649 61.052 238.585 61.22 238.457 61.332C238.337 61.444 238.197 61.5 238.037 61.5C237.861 61.5 237.713 61.444 237.593 61.332C237.473 61.22 237.413 61.052 237.413 60.828C237.413 60.596 237.473 60.428 237.593 60.324C237.713 60.212 237.861 60.156 238.037 60.156ZM240.158 64.128H249.998V64.884H240.158V64.128ZM241.322 65.76H248.762V68.076H242.342V69.348H241.358V67.392H247.79V66.468H241.322V65.76ZM241.358 69.084H249.11V69.804H241.358V69.084ZM241.406 59.4H248.726V61.656H242.414V62.832H241.43V60.984H247.754V60.108H241.406V59.4ZM241.43 62.592H248.93V63.312H241.43V62.592ZM261.051 59.088H262.047V65.484H261.051V59.088ZM261.627 61.86H263.631V62.688H261.627V61.86ZM255.027 65.976H262.047V68.172H256.023V69.324H255.051V67.512H261.075V66.684H255.027V65.976ZM255.051 69.108H262.467V69.816H255.051V69.108ZM256.479 63.54H257.475V64.92H256.479V63.54ZM253.695 65.244L253.575 64.512C255.507 64.512 258.171 64.5 260.403 64.188L260.487 64.824C258.171 65.232 255.591 65.244 253.695 65.244ZM253.851 59.916H260.079V60.624H253.851V59.916ZM256.971 60.96C258.507 60.96 259.491 61.488 259.491 62.388C259.491 63.288 258.507 63.816 256.971 63.816C255.423 63.816 254.439 63.288 254.439 62.388C254.439 61.488 255.423 60.96 256.971 60.96ZM256.971 61.62C255.999 61.62 255.375 61.908 255.375 62.388C255.375 62.868 255.999 63.168 256.971 63.168C257.943 63.168 258.555 62.868 258.555 62.388C258.555 61.908 257.943 61.62 256.971 61.62ZM256.479 58.98H257.475V60.288H256.479V58.98ZM267.098 62.76H268.082V64.812H267.098V62.76ZM271.082 62.76H272.066V64.812H271.082V62.76ZM264.674 64.452H274.478V65.256H264.674V64.452ZM269.57 66.072C271.898 66.072 273.29 66.756 273.29 67.992C273.29 69.228 271.898 69.924 269.57 69.924C267.242 69.924 265.85 69.228 265.85 67.992C265.85 66.756 267.242 66.072 269.57 66.072ZM269.57 66.84C267.878 66.84 266.858 67.26 266.858 67.992C266.858 68.736 267.878 69.144 269.57 69.144C271.274 69.144 272.282 68.736 272.282 67.992C272.282 67.26 271.274 66.84 269.57 66.84ZM269.582 59.28C271.934 59.28 273.398 60.036 273.398 61.308C273.398 62.568 271.934 63.312 269.582 63.312C267.218 63.312 265.766 62.568 265.766 61.308C265.766 60.036 267.218 59.28 269.582 59.28ZM269.582 60.06C267.854 60.06 266.786 60.516 266.786 61.308C266.786 62.088 267.854 62.544 269.582 62.544C271.31 62.544 272.378 62.088 272.378 61.308C272.378 60.516 271.31 60.06 269.582 60.06ZM283.069 59.088H284.065V69.936H283.069V59.088ZM283.825 63.54H285.841V64.38H283.825V63.54ZM275.665 60.816H282.061V61.632H275.665V60.816ZM278.905 62.532C280.441 62.532 281.545 63.564 281.545 65.028C281.545 66.492 280.441 67.524 278.905 67.524C277.381 67.524 276.265 66.492 276.265 65.028C276.265 63.564 277.381 62.532 278.905 62.532ZM278.905 63.36C277.921 63.36 277.213 64.044 277.213 65.028C277.213 66 277.921 66.696 278.905 66.696C279.889 66.696 280.597 66 280.597 65.028C280.597 64.044 279.889 63.36 278.905 63.36ZM278.389 59.22H279.385V61.188H278.389V59.22ZM291.648 61.5H294.924V62.328H291.648V61.5ZM291.648 64.932H294.924V65.76H291.648V64.932ZM289.656 59.916C291.228 59.916 292.356 61.392 292.356 63.696C292.356 66.012 291.228 67.488 289.656 67.488C288.072 67.488 286.956 66.012 286.956 63.696C286.956 61.392 288.072 59.916 289.656 59.916ZM289.656 60.816C288.612 60.816 287.892 61.944 287.892 63.696C287.892 65.46 288.612 66.612 289.656 66.612C290.7 66.612 291.42 65.46 291.42 63.696C291.42 61.944 290.7 60.816 289.656 60.816ZM294.708 59.076H295.692V69.948H294.708V59.076ZM302.893 60.024H303.709V61.968C303.709 64.368 302.413 66.708 300.697 67.62L300.085 66.828C301.657 66.036 302.893 63.948 302.893 61.968V60.024ZM303.073 60.024H303.877V61.968C303.877 63.876 305.089 65.856 306.625 66.624L306.013 67.416C304.333 66.516 303.073 64.296 303.073 61.968V60.024ZM307.573 59.088H308.581V69.936H307.573V59.088ZM308.341 63.48H310.357V64.32H308.341V63.48ZM313.692 62.76H314.676V64.812H313.692V62.76ZM317.676 62.76H318.66V64.812H317.676V62.76ZM311.268 64.452H321.072V65.256H311.268V64.452ZM316.164 66.072C318.492 66.072 319.884 66.756 319.884 67.992C319.884 69.228 318.492 69.924 316.164 69.924C313.836 69.924 312.444 69.228 312.444 67.992C312.444 66.756 313.836 66.072 316.164 66.072ZM316.164 66.84C314.472 66.84 313.452 67.26 313.452 67.992C313.452 68.736 314.472 69.144 316.164 69.144C317.868 69.144 318.876 68.736 318.876 67.992C318.876 67.26 317.868 66.84 316.164 66.84ZM316.176 59.28C318.528 59.28 319.992 60.036 319.992 61.308C319.992 62.568 318.528 63.312 316.176 63.312C313.812 63.312 312.36 62.568 312.36 61.308C312.36 60.036 313.812 59.28 316.176 59.28ZM316.176 60.06C314.448 60.06 313.38 60.516 313.38 61.308C313.38 62.088 314.448 62.544 316.176 62.544C317.904 62.544 318.972 62.088 318.972 61.308C318.972 60.516 317.904 60.06 316.176 60.06ZM324.995 60.636H325.787V62.4C325.787 64.656 324.407 66.984 322.715 67.848L322.139 67.056C323.687 66.3 324.995 64.236 324.995 62.4V60.636ZM325.175 60.636H325.967V62.4C325.967 64.116 327.191 66.048 328.763 66.792L328.199 67.584C326.483 66.732 325.175 64.548 325.175 62.4V60.636ZM322.523 60.192H328.367V61.032H322.523V60.192ZM329.651 59.088H330.659V69.936H329.651V59.088ZM330.419 63.468H332.435V64.308H330.419V63.468ZM337.75 63.3H339.802V64.128H337.75V63.3ZM341.614 59.088H342.574V69.936H341.614V59.088ZM339.466 59.316H340.414V69.396H339.466V59.316ZM335.794 59.988C337.198 59.988 338.11 61.44 338.11 63.768C338.11 66.096 337.198 67.548 335.794 67.548C334.39 67.548 333.49 66.096 333.49 63.768C333.49 61.44 334.39 59.988 335.794 59.988ZM335.794 60.912C334.942 60.912 334.402 62.016 334.402 63.768C334.402 65.52 334.942 66.624 335.794 66.624C336.658 66.624 337.198 65.52 337.198 63.768C337.198 62.016 336.658 60.912 335.794 60.912ZM352.653 59.088H353.613V69.936H352.653V59.088ZM347.949 63.516H350.685V64.32H347.949V63.516ZM350.397 59.364H351.333V69.384H350.397V59.364ZM348.081 60.456H349.041C349.041 63.3 347.901 65.856 344.973 67.596L344.385 66.888C346.941 65.352 348.081 63.192 348.081 60.636V60.456ZM344.865 60.456H348.453V61.272H344.865V60.456ZM365.793 59.088H366.789V67.164H365.793V59.088ZM358.185 59.964H363.897V60.78H358.185V59.964ZM358.005 65.532L357.897 64.68C359.673 64.68 362.205 64.656 364.233 64.416L364.293 65.16C362.205 65.496 359.769 65.532 358.005 65.532ZM359.265 60.66H360.225V64.824H359.265V60.66ZM361.857 60.66H362.817V64.824H361.857V60.66ZM363.993 61.14H366.321V61.956H363.993V61.14ZM363.993 63.216H366.321V64.032H363.993V63.216ZM359.853 68.88H367.077V69.696H359.853V68.88ZM359.853 66.504H360.849V69.396H359.853V66.504ZM376.809 59.076H377.805V69.948H376.809V59.076ZM369.537 66.504H370.437C372.249 66.504 373.869 66.432 375.789 66.12L375.897 66.936C373.929 67.26 372.297 67.332 370.437 67.332H369.537V66.504ZM369.513 60.096H374.529V63.972H370.533V66.816H369.537V63.156H373.521V60.912H369.513V60.096ZM387.368 59.1H388.364V67.236H387.368V59.1ZM388.052 62.652H389.972V63.492H388.052V62.652ZM379.976 60.408H386.384V61.212H379.976V60.408ZM383.18 61.812C384.716 61.812 385.772 62.616 385.772 63.84C385.772 65.052 384.716 65.856 383.18 65.856C381.632 65.856 380.576 65.052 380.576 63.84C380.576 62.616 381.632 61.812 383.18 61.812ZM383.18 62.592C382.196 62.592 381.524 63.084 381.524 63.84C381.524 64.584 382.196 65.076 383.18 65.076C384.152 65.076 384.824 64.584 384.824 63.84C384.824 63.084 384.152 62.592 383.18 62.592ZM382.676 59.088H383.672V60.828H382.676V59.088ZM381.608 68.88H388.856V69.696H381.608V68.88ZM381.608 66.588H382.604V69.228H381.608V66.588ZM398.612 61.08H401.516V61.896H398.612V61.08ZM398.516 63.336H401.444V64.152H398.516V63.336ZM401.348 59.088H402.344V65.592H401.348V59.088ZM397.952 59.904H399.02C399.02 62.7 397.088 64.656 393.968 65.592L393.56 64.788C396.332 63.984 397.952 62.388 397.952 60.336V59.904ZM394.124 59.904H398.636V60.72H394.124V59.904ZM398.816 65.712C401.012 65.712 402.404 66.492 402.404 67.8C402.404 69.108 401.012 69.888 398.816 69.888C396.62 69.888 395.228 69.108 395.228 67.8C395.228 66.492 396.62 65.712 398.816 65.712ZM398.816 66.492C397.232 66.492 396.212 66.984 396.212 67.8C396.212 68.616 397.232 69.096 398.816 69.096C400.412 69.096 401.432 68.616 401.432 67.8C401.432 66.984 400.412 66.492 398.816 66.492ZM412.387 59.088H413.383V65.652H412.387V59.088ZM410.587 62.376H412.831V63.204H410.587V62.376ZM406.351 66.228H413.383V69.792H406.351V66.228ZM412.411 67.032H407.323V68.988H412.411V67.032ZM404.479 60.216H410.755V61.02H404.479V60.216ZM407.611 61.572C409.075 61.572 410.119 62.364 410.119 63.516C410.119 64.668 409.075 65.436 407.611 65.436C406.147 65.436 405.103 64.668 405.103 63.516C405.103 62.364 406.147 61.572 407.611 61.572ZM407.611 62.34C406.699 62.34 406.051 62.808 406.051 63.516C406.051 64.212 406.699 64.68 407.611 64.68C408.523 64.68 409.171 64.212 409.171 63.516C409.171 62.808 408.523 62.34 407.611 62.34ZM407.119 58.98H408.115V60.792H407.119V58.98ZM420.402 59.268C422.79 59.268 424.218 59.94 424.218 61.152C424.218 62.364 422.79 63.036 420.402 63.036C418.002 63.036 416.586 62.364 416.586 61.152C416.586 59.94 418.002 59.268 420.402 59.268ZM420.402 60.024C418.626 60.024 417.606 60.432 417.606 61.152C417.606 61.872 418.626 62.28 420.402 62.28C422.166 62.28 423.186 61.872 423.186 61.152C423.186 60.432 422.166 60.024 420.402 60.024ZM415.494 63.756H425.298V64.56H415.494V63.756ZM416.682 65.484H424.05V67.932H417.69V69.252H416.706V67.212H423.066V66.252H416.682V65.484ZM416.706 69.036H424.374V69.816H416.706V69.036ZM437.227 59.088H438.187V69.936H437.227V59.088ZM433.279 62.976H435.355V63.804H433.279V62.976ZM435.055 59.34H435.991V69.384H435.055V59.34ZM431.191 60.768H431.959V62.148C431.959 64.524 431.047 66.768 429.451 67.776L428.839 67.032C430.351 66.12 431.191 64.14 431.191 62.148V60.768ZM431.395 60.768H432.163V62.148C432.163 64.032 432.979 65.916 434.467 66.78L433.855 67.512C432.271 66.552 431.395 64.416 431.395 62.148V60.768ZM429.139 60.348H434.095V61.176H429.139V60.348ZM444.882 65.928C447.186 65.928 448.662 66.684 448.662 67.932C448.662 69.168 447.186 69.912 444.882 69.912C442.566 69.912 441.102 69.168 441.102 67.932C441.102 66.684 442.566 65.928 444.882 65.928ZM444.882 66.708C443.178 66.708 442.086 67.176 442.086 67.932C442.086 68.676 443.178 69.144 444.882 69.144C446.586 69.144 447.666 68.676 447.666 67.932C447.666 67.176 446.586 66.708 444.882 66.708ZM441.186 59.628H448.17V60.444H441.186V59.628ZM440.022 64.14H449.814V64.944H440.022V64.14ZM444.042 62.052H445.026V64.368H444.042V62.052ZM447.594 59.628H448.566V60.552C448.566 61.428 448.566 62.304 448.278 63.432L447.294 63.312C447.594 62.196 447.594 61.404 447.594 60.552V59.628ZM458.477 59.088H459.473V65.388H458.477V59.088ZM459.041 61.848H461.081V62.688H459.041V61.848ZM452.657 65.868H453.629V67.02H458.489V65.868H459.473V69.792H452.657V65.868ZM453.629 67.788V68.988H458.489V67.788H453.629ZM451.085 60.192H457.493V61.008H451.085V60.192ZM454.289 61.5C455.837 61.5 456.881 62.256 456.881 63.408C456.881 64.56 455.837 65.316 454.289 65.316C452.729 65.316 451.685 64.56 451.685 63.408C451.685 62.256 452.729 61.5 454.289 61.5ZM454.289 62.256C453.293 62.256 452.633 62.712 452.633 63.408C452.633 64.104 453.293 64.56 454.289 64.56C455.261 64.56 455.933 64.104 455.933 63.408C455.933 62.712 455.261 62.256 454.289 62.256ZM453.785 58.98H454.781V60.636H453.785V58.98ZM469.984 59.088H470.98V69.936H469.984V59.088ZM462.784 60.144H463.768V66.864H462.784V60.144ZM462.784 66.276H463.672C465.316 66.276 467.032 66.156 468.868 65.772L468.988 66.624C467.104 67.008 465.388 67.14 463.672 67.14H462.784V66.276ZM480.471 59.076H481.479V69.948H480.471V59.076ZM481.239 63.36H483.255V64.2H481.239V63.36ZM473.595 66.408H474.447C476.451 66.408 477.855 66.336 479.475 66.036L479.583 66.876C477.915 67.188 476.487 67.248 474.447 67.248H473.595V66.408ZM473.595 60.132H478.635V60.948H474.579V66.78H473.595V60.132ZM485.078 68.8828C484.891 68.8828 484.732 68.8184 484.604 68.6895C484.475 68.5605 484.41 68.4023 484.41 68.2148C484.41 68.0273 484.475 67.8691 484.604 67.7402C484.732 67.6113 484.891 67.5469 485.078 67.5469C485.266 67.5469 485.424 67.6113 485.553 67.7402C485.682 67.8691 485.746 68.0273 485.746 68.2148C485.746 68.4023 485.682 68.5605 485.553 68.6895C485.424 68.8184 485.266 68.8828 485.078 68.8828ZM132.235 92.108H133.015V94.172C133.015 96.44 132.055 98.636 130.471 99.596L129.835 98.852C131.335 97.976 132.235 96.032 132.235 94.172V92.108ZM132.415 92.108H133.195V94.112C133.195 95.9 134.035 97.736 135.475 98.54L134.875 99.32C133.291 98.408 132.415 96.296 132.415 94.112V92.108ZM138.223 91.088H139.183V101.936H138.223V91.088ZM136.507 95.444H138.583V96.272H136.507V95.444ZM135.835 91.316H136.783V101.396H135.835V91.316ZM141.006 99.776H150.834V100.604H141.006V99.776ZM145.398 97.448H146.394V100.124H145.398V97.448ZM142.194 91.892H149.622V95.18H143.214V97.352H142.23V94.376H148.638V92.696H142.194V91.892ZM142.23 96.932H149.874V97.748H142.23V96.932ZM152.033 96.584H161.873V97.4H152.033V96.584ZM156.521 97.1H157.529V99.596H156.521V97.1ZM153.281 100.868H160.781V101.696H153.281V100.868ZM153.281 98.528H154.277V101.096H153.281V98.528ZM156.941 91.352C159.233 91.352 160.745 92.192 160.745 93.536C160.745 94.88 159.233 95.72 156.941 95.72C154.637 95.72 153.137 94.88 153.137 93.536C153.137 92.192 154.637 91.352 156.941 91.352ZM156.941 92.168C155.285 92.168 154.193 92.696 154.193 93.536C154.193 94.388 155.285 94.904 156.941 94.904C158.597 94.904 159.689 94.388 159.689 93.536C159.689 92.696 158.597 92.168 156.941 92.168ZM172.926 91.088H173.922V99.584H172.926V91.088ZM173.502 94.868H175.506V95.696H173.502V94.868ZM167.058 100.88H174.306V101.696H167.058V100.88ZM167.058 99.02H168.054V101.132H167.058V99.02ZM168.354 96.392H169.35V97.868H168.354V96.392ZM165.582 98.336L165.45 97.532C167.37 97.532 170.046 97.496 172.278 97.148L172.362 97.856C170.07 98.276 167.466 98.324 165.582 98.336ZM165.726 92.144H171.954V92.9H165.726V92.144ZM168.846 93.344C170.37 93.344 171.366 93.98 171.366 95.012C171.366 96.056 170.37 96.692 168.846 96.692C167.322 96.692 166.314 96.056 166.314 95.012C166.314 93.98 167.322 93.344 168.846 93.344ZM168.846 94.052C167.874 94.052 167.25 94.424 167.25 95.012C167.25 95.612 167.874 95.972 168.846 95.972C169.806 95.972 170.43 95.612 170.43 95.012C170.43 94.424 169.806 94.052 168.846 94.052ZM168.354 91.04H169.35V92.48H168.354V91.04ZM181.745 93.08H184.649V93.896H181.745V93.08ZM181.649 95.336H184.577V96.152H181.649V95.336ZM184.481 91.088H185.477V97.592H184.481V91.088ZM181.085 91.904H182.153C182.153 94.7 180.221 96.656 177.101 97.592L176.693 96.788C179.465 95.984 181.085 94.388 181.085 92.336V91.904ZM177.257 91.904H181.769V92.72H177.257V91.904ZM181.949 97.712C184.145 97.712 185.537 98.492 185.537 99.8C185.537 101.108 184.145 101.888 181.949 101.888C179.753 101.888 178.361 101.108 178.361 99.8C178.361 98.492 179.753 97.712 181.949 97.712ZM181.949 98.492C180.365 98.492 179.345 98.984 179.345 99.8C179.345 100.616 180.365 101.096 181.949 101.096C183.545 101.096 184.565 100.616 184.565 99.8C184.565 98.984 183.545 98.492 181.949 98.492ZM191.992 95.3H194.044V96.128H191.992V95.3ZM195.856 91.088H196.816V101.936H195.856V91.088ZM193.708 91.316H194.656V101.396H193.708V91.316ZM190.036 91.988C191.44 91.988 192.352 93.44 192.352 95.768C192.352 98.096 191.44 99.548 190.036 99.548C188.632 99.548 187.732 98.096 187.732 95.768C187.732 93.44 188.632 91.988 190.036 91.988ZM190.036 92.912C189.184 92.912 188.644 94.016 188.644 95.768C188.644 97.52 189.184 98.624 190.036 98.624C190.9 98.624 191.44 97.52 191.44 95.768C191.44 94.016 190.9 92.912 190.036 92.912ZM208.721 91.088H209.705V101.936H208.721V91.088ZM209.141 95.324H211.145V96.152H209.141V95.324ZM201.269 92.096H202.121V94.88H203.441V92.096H204.269V99.308H201.269V92.096ZM202.121 95.672V98.492H203.441V95.672H202.121ZM204.845 92.096H205.685V94.88H206.969V92.096H207.809V99.308H204.845V92.096ZM205.685 95.672V98.492H206.969V95.672H205.685ZM212.116 99.74H221.944V100.58H212.116V99.74ZM213.304 91.916H220.732V95.204H214.324V97.376H213.34V94.412H219.748V92.732H213.304V91.916ZM213.34 96.956H220.984V97.772H213.34V96.956ZM231.411 91.088H232.371V101.936H231.411V91.088ZM226.707 95.516H229.443V96.32H226.707V95.516ZM229.155 91.364H230.091V101.384H229.155V91.364ZM226.839 92.456H227.799C227.799 95.3 226.659 97.856 223.731 99.596L223.143 98.888C225.699 97.352 226.839 95.192 226.839 92.636V92.456ZM223.623 92.456H227.211V93.272H223.623V92.456ZM239.391 92.192H240.207V93.068C240.207 95.048 238.983 96.74 237.171 97.412L236.655 96.62C238.275 96.044 239.391 94.604 239.391 93.068V92.192ZM239.583 92.192H240.387V93.068C240.387 94.46 241.443 95.816 243.015 96.368L242.511 97.16C240.747 96.512 239.583 94.88 239.583 93.068V92.192ZM242.427 93.908H244.839V94.736H242.427V93.908ZM236.967 91.832H242.763V92.636H236.967V91.832ZM238.311 98.168H245.547V101.936H244.551V98.984H238.311V98.168ZM244.551 91.088H245.547V97.58H244.551V91.088ZM247.658 96.356H257.462V97.172H247.658V96.356ZM252.554 98.06C254.882 98.06 256.274 98.756 256.274 99.992C256.274 101.24 254.882 101.936 252.554 101.936C250.226 101.936 248.834 101.24 248.834 99.992C248.834 98.756 250.226 98.06 252.554 98.06ZM252.554 98.84C250.862 98.84 249.842 99.26 249.842 99.992C249.842 100.748 250.862 101.156 252.554 101.156C254.258 101.156 255.266 100.748 255.266 99.992C255.266 99.26 254.258 98.84 252.554 98.84ZM252.566 91.352C254.906 91.352 256.382 92.132 256.382 93.428C256.382 94.712 254.906 95.492 252.566 95.492C250.214 95.492 248.75 94.712 248.75 93.428C248.75 92.132 250.214 91.352 252.566 91.352ZM252.566 92.144C250.838 92.144 249.77 92.624 249.77 93.428C249.77 94.232 250.838 94.7 252.566 94.7C254.282 94.7 255.362 94.232 255.362 93.428C255.362 92.624 254.282 92.144 252.566 92.144ZM266.053 91.088H267.049V101.936H266.053V91.088ZM266.809 95.54H268.825V96.38H266.809V95.54ZM258.649 92.816H265.045V93.632H258.649V92.816ZM261.889 94.532C263.425 94.532 264.529 95.564 264.529 97.028C264.529 98.492 263.425 99.524 261.889 99.524C260.365 99.524 259.249 98.492 259.249 97.028C259.249 95.564 260.365 94.532 261.889 94.532ZM261.889 95.36C260.905 95.36 260.197 96.044 260.197 97.028C260.197 98 260.905 98.696 261.889 98.696C262.873 98.696 263.581 98 263.581 97.028C263.581 96.044 262.873 95.36 261.889 95.36ZM261.373 91.22H262.369V93.188H261.373V91.22ZM274.728 93.68H278.076V94.496H274.728V93.68ZM274.728 96.668H278.076V97.496H274.728V96.668ZM270.18 92.144H275.112V99.2H270.18V92.144ZM274.128 92.948H271.152V98.396H274.128V92.948ZM277.692 91.076H278.676V101.948H277.692V91.076ZM282.492 99.74C282.42 100.02 282.328 100.324 282.216 100.652C282.104 100.98 281.98 101.304 281.844 101.624C281.716 101.952 281.588 102.26 281.46 102.548H280.68C280.76 102.244 280.836 101.916 280.908 101.564C280.988 101.22 281.06 100.88 281.124 100.544C281.188 100.2 281.24 99.888 281.28 99.608H282.408L282.492 99.74ZM286.76 98.324H287.228C287.876 98.324 288.632 98.312 289.484 98.096L289.604 98.924C288.68 99.14 287.936 99.152 287.228 99.152H286.76V98.324ZM286.76 92.18H289.436V92.996H287.744V98.708H286.76V92.18ZM290.024 98.324H290.576C291.656 98.324 292.46 98.288 293.396 98.06L293.492 98.888C292.508 99.128 291.704 99.152 290.576 99.152H290.024V98.324ZM290.024 92.18H292.964V92.996H291.008V98.72H290.024V92.18ZM294.476 91.088H295.472V101.936H294.476V91.088ZM292.424 95.048H294.836V95.876H292.424V95.048ZM301.867 97.22H302.863V99.92H301.867V97.22ZM302.371 91.796C304.663 91.796 306.307 92.912 306.307 94.64C306.307 96.368 304.663 97.484 302.371 97.484C300.079 97.484 298.423 96.368 298.423 94.64C298.423 92.912 300.079 91.796 302.371 91.796ZM302.371 92.588C300.643 92.588 299.383 93.404 299.383 94.64C299.383 95.876 300.643 96.692 302.371 96.692C304.087 96.692 305.347 95.876 305.347 94.64C305.347 93.404 304.087 92.588 302.371 92.588ZM297.475 99.728H307.303V100.556H297.475V99.728ZM308.502 97.1H318.342V97.904H308.502V97.1ZM309.798 100.88H317.31V101.696H309.798V100.88ZM309.798 98.756H310.794V101.192H309.798V98.756ZM309.75 91.448H317.07V94.136H310.758V95.6H309.774V93.404H316.098V92.228H309.75V91.448ZM309.774 95.336H317.31V96.116H309.774V95.336ZM321.979 96.632H331.807V97.448H321.979V96.632ZM326.467 97.136H327.463V99.632H326.467V97.136ZM323.239 91.592H330.535V95.408H323.239V91.592ZM329.551 92.396H324.211V94.604H329.551V92.396ZM323.227 100.88H330.715V101.696H323.227V100.88ZM323.227 98.588H324.211V101.168H323.227V98.588ZM341.274 91.088H342.234V101.936H341.274V91.088ZM337.326 94.976H339.402V95.804H337.326V94.976ZM339.102 91.34H340.038V101.384H339.102V91.34ZM335.238 92.768H336.006V94.148C336.006 96.524 335.094 98.768 333.498 99.776L332.886 99.032C334.398 98.12 335.238 96.14 335.238 94.148V92.768ZM335.442 92.768H336.21V94.148C336.21 96.032 337.026 97.916 338.514 98.78L337.902 99.512C336.318 98.552 335.442 96.416 335.442 94.148V92.768ZM333.186 92.348H338.142V93.176H333.186V92.348ZM345.389 94.34H352.757V95.156H345.389V94.34ZM344.057 96.608H353.897V97.424H344.057V96.608ZM345.389 91.484H346.373V94.748H345.389V91.484ZM345.317 100.856H352.817V101.672H345.317V100.856ZM345.317 98.504H346.301V101.072H345.317V98.504ZM357.425 95.024H367.481V96.296H357.425V95.024ZM358.361 91.328H360.953V92.588H358.361V91.328ZM360.485 91.328H362.045V91.928C362.045 92.72 362.045 93.932 361.493 95.54L359.957 95.324C360.485 93.728 360.485 92.696 360.485 91.928V91.328ZM362.669 91.328H365.525V92.588H362.669V91.328ZM364.781 91.328H366.341V92.096C366.341 92.996 366.341 94.124 365.873 95.6L364.325 95.384C364.781 93.932 364.781 92.96 364.781 92.096V91.328ZM358.649 97.052H366.305V98.228H360.245V101.036H358.649V97.052ZM358.649 100.76H366.389V101.948H358.649V100.76ZM359.597 98.912H366.041V100.04H359.597V98.912ZM375.7 90.956H377.296V102.068H375.7V90.956ZM376.804 95.3H378.736V96.62H376.804V95.3ZM370.252 92.084H371.74C371.74 95.168 371.452 97.532 369.484 99.74L368.236 98.84C369.952 96.944 370.252 95.096 370.252 92.276V92.084ZM368.728 92.084H370.876V93.38H368.728V92.084ZM373.312 92.084H374.8C374.8 95.312 374.536 98.036 372.604 100.448L371.356 99.56C373.036 97.436 373.312 95.3 373.312 92.264V92.084ZM372.112 92.084H373.972V93.38H372.112V92.084ZM382.179 92.708H383.451V93.956C383.451 96.524 382.407 99.032 380.319 99.98L379.419 98.72C381.279 97.892 382.179 95.84 382.179 93.956V92.708ZM382.539 92.708H383.799V93.956C383.799 95.756 384.687 97.676 386.547 98.444L385.683 99.704C383.571 98.792 382.539 96.428 382.539 93.956V92.708ZM379.863 92.024H386.091V93.332H379.863V92.024ZM387.123 90.956H388.731V102.068H387.123V90.956ZM392.874 92.624H398.19V93.896H392.874V92.624ZM395.55 94.388C396.966 94.388 397.986 95.48 397.986 97.04C397.986 98.588 396.966 99.68 395.55 99.68C394.146 99.68 393.114 98.588 393.114 97.04C393.114 95.48 394.146 94.388 395.55 94.388ZM395.55 95.72C394.95 95.72 394.53 96.2 394.53 97.04C394.53 97.88 394.95 98.348 395.55 98.348C396.15 98.348 396.582 97.88 396.582 97.04C396.582 96.2 396.15 95.72 395.55 95.72ZM400.914 90.956H402.438V102.068H400.914V90.956ZM399.582 95.468H401.418V96.752H399.582V95.468ZM398.586 91.16H400.074V101.6H398.586V91.16ZM394.77 91.256H396.342V93.428H394.77V91.256ZM411.629 90.956H413.225V96.536H411.629V90.956ZM407.921 91.376H409.661C409.661 94.328 407.957 96.056 404.585 96.788L404.057 95.504C406.841 94.952 407.921 93.728 407.921 92.24V91.376ZM404.693 91.376H408.593V92.648H404.693V91.376ZM409.229 92.336H411.833V93.548H409.229V92.336ZM409.157 94.496H411.773V95.696H409.157V94.496ZM405.881 96.944H413.225V100.004H407.501V101.384H405.905V98.828H411.629V98.192H405.881V96.944ZM405.905 100.712H413.453V101.96H405.905V100.712ZM422.428 91.088H423.424V101.936H422.428V91.088ZM423.184 95.54H425.2V96.38H423.184V95.54ZM415.024 92.816H421.42V93.632H415.024V92.816ZM418.264 94.532C419.8 94.532 420.904 95.564 420.904 97.028C420.904 98.492 419.8 99.524 418.264 99.524C416.74 99.524 415.624 98.492 415.624 97.028C415.624 95.564 416.74 94.532 418.264 94.532ZM418.264 95.36C417.28 95.36 416.572 96.044 416.572 97.028C416.572 98 417.28 98.696 418.264 98.696C419.248 98.696 419.956 98 419.956 97.028C419.956 96.044 419.248 95.36 418.264 95.36ZM417.748 91.22H418.744V93.188H417.748V91.22ZM434.043 91.076H435.039V101.948H434.043V91.076ZM431.907 93.56H434.307V94.376H431.907V93.56ZM426.519 98.588H427.323C429.003 98.588 430.383 98.54 432.039 98.276L432.135 99.104C430.431 99.368 429.039 99.428 427.323 99.428H426.519V98.588ZM426.495 92.06H431.235V95.948H427.503V98.78H426.519V95.132H430.251V92.888H426.495V92.06ZM431.835 96.524H434.235V97.34H431.835V96.524ZM438.195 92.168H445.179V92.996H438.195V92.168ZM437.163 99.596H446.967V100.424H437.163V99.596ZM440.967 95.72H441.963V100.004H440.967V95.72ZM444.807 92.168H445.791V93.248C445.791 94.592 445.791 96.08 445.395 98.276L444.399 98.144C444.807 96.068 444.807 94.544 444.807 93.248V92.168ZM451.839 96.008H459.351V96.824H451.839V96.008ZM450.639 99.716H460.467V100.544H450.639V99.716ZM455.043 96.512H456.027V99.98H455.043V96.512ZM451.839 92H452.835V96.368H451.839V92ZM462.122 96.464H462.902C465.038 96.464 466.094 96.428 467.39 96.2L467.498 97.004C466.154 97.244 465.074 97.28 462.902 97.28H462.122V96.464ZM462.098 91.736H466.778V94.82H463.106V96.956H462.122V94.04H465.794V92.552H462.098V91.736ZM469.598 91.1H470.594V97.76H469.598V91.1ZM467.498 92.696H469.826V93.512H467.498V92.696ZM467.498 94.94H469.826V95.756H467.498V94.94ZM463.334 98.348H470.594V101.96H469.598V99.164H463.334V98.348ZM472.693 92.936H478.069V93.752H472.693V92.936ZM475.381 94.472C476.737 94.472 477.721 95.492 477.721 96.956C477.721 98.408 476.737 99.428 475.381 99.428C474.037 99.428 473.053 98.408 473.053 96.956C473.053 95.492 474.037 94.472 475.381 94.472ZM475.381 95.324C474.553 95.324 473.953 95.996 473.953 96.956C473.953 97.916 474.553 98.588 475.381 98.588C476.221 98.588 476.833 97.916 476.833 96.956C476.833 95.996 476.221 95.324 475.381 95.324ZM480.937 91.088H481.897V101.936H480.937V91.088ZM479.209 95.648H481.261V96.476H479.209V95.648ZM478.621 91.328H479.557V101.408H478.621V91.328ZM474.901 91.4H475.885V93.44H474.901V91.4ZM486.156 96.668H487.14V99.92H486.156V96.668ZM490.164 96.668H491.16V99.92H490.164V96.668ZM483.756 99.728H493.584V100.556H483.756V99.728ZM488.652 91.772C490.944 91.772 492.588 92.864 492.588 94.568C492.588 96.26 490.944 97.352 488.652 97.352C486.348 97.352 484.704 96.26 484.704 94.568C484.704 92.864 486.348 91.772 488.652 91.772ZM488.652 92.564C486.912 92.564 485.664 93.356 485.664 94.568C485.664 95.768 486.912 96.56 488.652 96.56C490.392 96.56 491.628 95.768 491.628 94.568C491.628 93.356 490.392 92.564 488.652 92.564ZM495.695 100.883C495.508 100.883 495.35 100.818 495.221 100.689C495.092 100.561 495.027 100.402 495.027 100.215C495.027 100.027 495.092 99.8691 495.221 99.7402C495.35 99.6113 495.508 99.5469 495.695 99.5469C495.883 99.5469 496.041 99.6113 496.17 99.7402C496.299 99.8691 496.363 100.027 496.363 100.215C496.363 100.402 496.299 100.561 496.17 100.689C496.041 100.818 495.883 100.883 495.695 100.883ZM127.062 108.24H134.046V109.044H127.062V108.24ZM126.006 115.524H135.81V116.352H126.006V115.524ZM133.518 108.24H134.49V109.32C134.49 110.712 134.49 112.26 134.082 114.6L133.086 114.504C133.518 112.284 133.518 110.664 133.518 109.32V108.24ZM137.393 114.516H138.113C139.433 114.516 140.633 114.468 142.097 114.216L142.181 115.044C140.681 115.308 139.457 115.344 138.113 115.344H137.393V114.516ZM137.369 108.264H141.437V112.08H138.365V114.828H137.393V111.264H140.465V109.08H137.369V108.264ZM145.289 107.088H146.249V117.936H145.289V107.088ZM143.453 111.372H145.541V112.188H143.453V111.372ZM142.829 107.328H143.765V117.384H142.829V107.328ZM149.32 112.152H156.772V112.968H149.32V112.152ZM148.084 115.74H157.912V116.58H148.084V115.74ZM152.476 112.5H153.472V116.076H152.476V112.5ZM149.32 107.952H156.664V108.768H150.316V112.512H149.32V107.952ZM161.537 108.936H166.913V109.752H161.537V108.936ZM164.225 110.472C165.581 110.472 166.565 111.492 166.565 112.956C166.565 114.408 165.581 115.428 164.225 115.428C162.881 115.428 161.897 114.408 161.897 112.956C161.897 111.492 162.881 110.472 164.225 110.472ZM164.225 111.324C163.397 111.324 162.797 111.996 162.797 112.956C162.797 113.916 163.397 114.588 164.225 114.588C165.065 114.588 165.677 113.916 165.677 112.956C165.677 111.996 165.065 111.324 164.225 111.324ZM169.781 107.088H170.741V117.936H169.781V107.088ZM168.053 111.648H170.105V112.476H168.053V111.648ZM167.465 107.328H168.401V117.408H167.465V107.328ZM163.745 107.4H164.729V109.44H163.745V107.4ZM180.52 107.088H181.516V112.62H180.52V107.088ZM177.088 107.616H178.168C178.168 110.352 176.284 112.104 173.116 112.872L172.768 112.056C175.576 111.408 177.088 109.98 177.088 108.108V107.616ZM173.332 107.616H177.544V108.432H173.332V107.616ZM177.784 108.648H180.688V109.44H177.784V108.648ZM177.688 110.724H180.628V111.504H177.688V110.724ZM174.532 113.124H181.516V115.788H175.552V117.516H174.568V115.02H180.532V113.928H174.532V113.124ZM174.568 117.036H181.876V117.828H174.568V117.036ZM191.511 107.076H192.507V117.948H191.511V107.076ZM186.783 107.916C188.391 107.916 189.543 109.392 189.543 111.696C189.543 114.012 188.391 115.488 186.783 115.488C185.187 115.488 184.035 114.012 184.035 111.696C184.035 109.392 185.187 107.916 186.783 107.916ZM186.783 108.816C185.727 108.816 184.983 109.944 184.983 111.696C184.983 113.46 185.727 114.612 186.783 114.612C187.851 114.612 188.583 113.46 188.583 111.696C188.583 109.944 187.851 108.816 186.783 108.816ZM200.008 107.916C201.58 107.916 202.708 109.392 202.708 111.696C202.708 114.012 201.58 115.488 200.008 115.488C198.424 115.488 197.308 114.012 197.308 111.696C197.308 109.392 198.424 107.916 200.008 107.916ZM200.008 108.816C198.964 108.816 198.256 109.944 198.256 111.696C198.256 113.46 198.964 114.612 200.008 114.612C201.052 114.612 201.76 113.46 201.76 111.696C201.76 109.944 201.052 108.816 200.008 108.816ZM205.06 107.076H206.044V117.948H205.06V107.076ZM202.384 111.216H205.492V112.032H202.384V111.216ZM216.075 107.076H217.071V117.948H216.075V107.076ZM213.939 109.56H216.339V110.376H213.939V109.56ZM208.551 114.588H209.355C211.035 114.588 212.415 114.54 214.071 114.276L214.167 115.104C212.463 115.368 211.071 115.428 209.355 115.428H208.551V114.588ZM208.527 108.06H213.267V111.948H209.535V114.78H208.551V111.132H212.283V108.888H208.527V108.06ZM213.867 112.524H216.267V113.34H213.867V112.524ZM219.182 112.584H229.022V113.4H219.182V112.584ZM223.67 113.1H224.678V115.596H223.67V113.1ZM220.43 116.868H227.93V117.696H220.43V116.868ZM220.43 114.528H221.426V117.096H220.43V114.528ZM224.09 107.352C226.382 107.352 227.894 108.192 227.894 109.536C227.894 110.88 226.382 111.72 224.09 111.72C221.786 111.72 220.286 110.88 220.286 109.536C220.286 108.192 221.786 107.352 224.09 107.352ZM224.09 108.168C222.434 108.168 221.342 108.696 221.342 109.536C221.342 110.388 222.434 110.904 224.09 110.904C225.746 110.904 226.838 110.388 226.838 109.536C226.838 108.696 225.746 108.168 224.09 108.168ZM233.15 108.276H238.058V109.08H233.15V108.276ZM234.842 111.372H235.826V115.044H234.842V111.372ZM237.65 108.276H238.622V108.852C238.622 109.74 238.622 111.156 238.31 113.172L237.326 113.076C237.65 111.12 237.65 109.728 237.65 108.852V108.276ZM239.99 107.088H240.974V117.936H239.99V107.088ZM240.71 111.624H242.714V112.464H240.71V111.624ZM232.67 115.572L232.55 114.732C234.518 114.732 237.134 114.696 239.33 114.42L239.378 115.152C237.134 115.512 234.59 115.56 232.67 115.572ZM251.953 107.088H252.913V117.936H251.953V107.088ZM248.005 110.976H250.081V111.804H248.005V110.976ZM249.781 107.34H250.717V117.384H249.781V107.34ZM245.917 108.768H246.685V110.148C246.685 112.524 245.773 114.768 244.177 115.776L243.565 115.032C245.077 114.12 245.917 112.14 245.917 110.148V108.768ZM246.121 108.768H246.889V110.148C246.889 112.032 247.705 113.916 249.193 114.78L248.581 115.512C246.997 114.552 246.121 112.416 246.121 110.148V108.768ZM243.865 108.348H248.821V109.176H243.865V108.348ZM256.068 110.34H263.436V111.156H256.068V110.34ZM254.736 112.608H264.576V113.424H254.736V112.608ZM256.068 107.484H257.052V110.748H256.068V107.484ZM255.996 116.856H263.496V117.672H255.996V116.856ZM255.996 114.504H256.98V117.072H255.996V114.504ZM270.985 108.192H271.801V109.068C271.801 111.048 270.577 112.74 268.765 113.412L268.249 112.62C269.869 112.044 270.985 110.604 270.985 109.068V108.192ZM271.177 108.192H271.981V109.068C271.981 110.46 273.037 111.816 274.609 112.368L274.105 113.16C272.341 112.512 271.177 110.88 271.177 109.068V108.192ZM274.021 109.908H276.433V110.736H274.021V109.908ZM268.561 107.832H274.357V108.636H268.561V107.832ZM269.905 114.168H277.141V117.936H276.145V114.984H269.905V114.168ZM276.145 107.088H277.141V113.58H276.145V107.088ZM280.512 107.604H287.496V108.42H280.512V107.604ZM279.264 111.648H289.092V112.464H279.264V111.648ZM286.848 107.604H287.82V108.348C287.82 109.236 287.82 110.388 287.484 111.972L286.512 111.864C286.848 110.316 286.848 109.212 286.848 108.348V107.604ZM280.308 114.084H287.892V117.972H286.896V114.888H280.308V114.084ZM293.063 108.192H293.879V109.068C293.879 111.048 292.655 112.74 290.843 113.412L290.327 112.62C291.947 112.044 293.063 110.604 293.063 109.068V108.192ZM293.255 108.192H294.059V109.068C294.059 110.46 295.115 111.816 296.687 112.368L296.183 113.16C294.419 112.512 293.255 110.88 293.255 109.068V108.192ZM296.099 109.908H298.511V110.736H296.099V109.908ZM290.639 107.832H296.435V108.636H290.639V107.832ZM291.983 114.168H299.219V117.936H298.223V114.984H291.983V114.168ZM298.223 107.088H299.219V113.58H298.223V107.088ZM306.238 107.772C308.494 107.772 310.174 108.972 310.174 110.772C310.174 112.584 308.494 113.772 306.238 113.772C303.982 113.772 302.29 112.584 302.29 110.772C302.29 108.972 303.982 107.772 306.238 107.772ZM306.238 108.588C304.522 108.588 303.25 109.464 303.25 110.772C303.25 112.068 304.522 112.956 306.238 112.956C307.954 112.956 309.226 112.068 309.226 110.772C309.226 109.464 307.954 108.588 306.238 108.588ZM301.342 115.668H311.17V116.508H301.342V115.668ZM312.381 115.776H322.209V116.604H312.381V115.776ZM316.773 113.448H317.769V116.124H316.773V113.448ZM313.569 107.892H320.997V111.18H314.589V113.352H313.605V110.376H320.013V108.696H313.569V107.892ZM313.605 112.932H321.249V113.748H313.605V112.932ZM330.718 113.928C333.022 113.928 334.498 114.684 334.498 115.932C334.498 117.168 333.022 117.912 330.718 117.912C328.402 117.912 326.938 117.168 326.938 115.932C326.938 114.684 328.402 113.928 330.718 113.928ZM330.718 114.708C329.014 114.708 327.922 115.176 327.922 115.932C327.922 116.676 329.014 117.144 330.718 117.144C332.422 117.144 333.502 116.676 333.502 115.932C333.502 115.176 332.422 114.708 330.718 114.708ZM327.022 107.628H334.006V108.444H327.022V107.628ZM325.858 112.14H335.65V112.944H325.858V112.14ZM329.878 110.052H330.862V112.368H329.878V110.052ZM333.43 107.628H334.402V108.552C334.402 109.428 334.402 110.304 334.114 111.432L333.13 111.312C333.43 110.196 333.43 109.404 333.43 108.552V107.628ZM339.405 113.796H340.425V117.936H339.405V113.796ZM343.137 113.796H344.157V117.936H343.137V113.796ZM336.885 113.256H346.725V114.084H336.885V113.256ZM341.781 107.52C344.049 107.52 345.573 108.432 345.573 109.884C345.573 111.324 344.049 112.248 341.781 112.248C339.525 112.248 337.989 111.324 337.989 109.884C337.989 108.432 339.525 107.52 341.781 107.52ZM341.781 108.324C340.125 108.324 338.997 108.936 338.997 109.884C338.997 110.832 340.125 111.444 341.781 111.444C343.437 111.444 344.553 110.832 344.553 109.884C344.553 108.936 343.437 108.324 341.781 108.324ZM355.28 107.088H356.276V117.936H355.28V107.088ZM356.036 111.54H358.052V112.38H356.036V111.54ZM347.876 108.816H354.272V109.632H347.876V108.816ZM351.116 110.532C352.652 110.532 353.756 111.564 353.756 113.028C353.756 114.492 352.652 115.524 351.116 115.524C349.592 115.524 348.476 114.492 348.476 113.028C348.476 111.564 349.592 110.532 351.116 110.532ZM351.116 111.36C350.132 111.36 349.424 112.044 349.424 113.028C349.424 114 350.132 114.696 351.116 114.696C352.1 114.696 352.808 114 352.808 113.028C352.808 112.044 352.1 111.36 351.116 111.36ZM350.6 107.22H351.596V109.188H350.6V107.22ZM363.955 109.68H367.303V110.496H363.955V109.68ZM363.955 112.668H367.303V113.496H363.955V112.668ZM359.407 108.144H364.339V115.2H359.407V108.144ZM363.355 108.948H360.379V114.396H363.355V108.948ZM366.919 107.076H367.903V117.948H366.919V107.076ZM373.076 112.104H373.952C376.292 112.104 377.576 112.056 379.1 111.792L379.208 112.584C377.636 112.86 376.316 112.896 373.952 112.896H373.076V112.104ZM373.076 107.748H378.236V108.552H374.06V112.512H373.076V107.748ZM373.736 109.884H377.936V110.688H373.736V109.884ZM380.336 107.1H381.344V113.556H380.336V107.1ZM374.336 114.096H381.344V117.792H374.336V114.096ZM380.36 114.9H375.308V116.988H380.36V114.9ZM386.563 112.548H387.559V114.96H386.563V112.548ZM391.375 107.088H392.371V115.344H391.375V107.088ZM384.967 116.88H392.635V117.696H384.967V116.88ZM384.967 114.54H385.963V117.108H384.967V114.54ZM383.563 112.92L383.431 112.104C385.435 112.104 388.123 112.08 390.427 111.78L390.499 112.512C388.159 112.884 385.531 112.92 383.563 112.92ZM389.167 113.496H391.627V114.228H389.167V113.496ZM386.959 107.532C388.543 107.532 389.623 108.276 389.623 109.416C389.623 110.568 388.543 111.312 386.959 111.312C385.363 111.312 384.283 110.568 384.283 109.416C384.283 108.276 385.363 107.532 386.959 107.532ZM386.959 108.276C385.939 108.276 385.231 108.72 385.231 109.416C385.231 110.112 385.939 110.556 386.959 110.556C387.967 110.556 388.675 110.112 388.675 109.416C388.675 108.72 387.967 108.276 386.959 108.276ZM394.53 111.612H404.334V112.428H394.53V111.612ZM395.826 109.932H403.17V110.736H395.826V109.932ZM395.826 107.436H403.05V108.252H396.81V110.58H395.826V107.436ZM395.706 113.364H403.074V115.92H396.714V117.288H395.73V115.176H402.09V114.144H395.706V113.364ZM395.73 117.024H403.398V117.816H395.73V117.024ZM406.049 108.276H410.957V109.08H406.049V108.276ZM407.741 111.372H408.725V115.044H407.741V111.372ZM410.549 108.276H411.521V108.852C411.521 109.74 411.521 111.156 411.209 113.172L410.225 113.076C410.549 111.12 410.549 109.728 410.549 108.852V108.276ZM412.889 107.088H413.873V117.936H412.889V107.088ZM413.609 111.624H415.613V112.464H413.609V111.624ZM405.569 115.572L405.449 114.732C407.417 114.732 410.033 114.696 412.229 114.42L412.277 115.152C410.033 115.512 407.489 115.56 405.569 115.572ZM428.899 107.088H429.895V113.616H428.899V107.088ZM429.619 109.968H431.503V110.796H429.619V109.968ZM423.079 114.228H429.895V117.792H423.079V114.228ZM428.923 115.032H424.051V116.988H428.923V115.032ZM421.507 108.228H427.915V109.044H421.507V108.228ZM424.711 109.572C426.259 109.572 427.303 110.34 427.303 111.516C427.303 112.692 426.259 113.436 424.711 113.436C423.151 113.436 422.107 112.692 422.107 111.516C422.107 110.34 423.151 109.572 424.711 109.572ZM424.711 110.34C423.715 110.34 423.055 110.796 423.055 111.516C423.055 112.224 423.715 112.68 424.711 112.68C425.683 112.68 426.355 112.224 426.355 111.516C426.355 110.796 425.683 110.34 424.711 110.34ZM424.207 106.992H425.203V108.648H424.207V106.992ZM434.334 108.384H435.174C435.174 110.712 434.862 113.268 433.314 115.38L432.534 114.924C434.022 112.992 434.334 110.724 434.334 108.456V108.384ZM432.762 108.384H434.826V109.212H432.762V108.384ZM436.722 108.384H437.574C437.574 110.676 437.43 113.724 435.726 116.076L434.934 115.62C436.59 113.46 436.722 110.64 436.722 108.468V108.384ZM435.534 108.384H437.25V109.212H435.534V108.384ZM440.814 107.088H441.774V117.936H440.814V107.088ZM437.07 111.348H439.014V112.164H437.07V111.348ZM438.81 107.364H439.746V117.384H438.81V107.364ZM447.246 107.604H454.23V108.42H447.246V107.604ZM445.998 111.648H455.826V112.464H445.998V111.648ZM453.582 107.604H454.554V108.348C454.554 109.236 454.554 110.388 454.218 111.972L453.246 111.864C453.582 110.316 453.582 109.212 453.582 108.348V107.604ZM447.042 114.084H454.626V117.972H453.63V114.888H447.042V114.084ZM457.026 112.68H466.83V113.496H457.026V112.68ZM461.442 111.06H462.426V112.932H461.442V111.06ZM458.118 114.552H465.618V117.936H464.622V115.368H458.118V114.552ZM458.334 107.34H459.318V108.564H464.562V107.34H465.558V111.396H458.334V107.34ZM459.318 109.344V110.604H464.562V109.344H459.318ZM475.493 107.088H476.489V113.388H475.493V107.088ZM476.057 109.848H478.097V110.688H476.057V109.848ZM469.673 113.868H470.645V115.02H475.505V113.868H476.489V117.792H469.673V113.868ZM470.645 115.788V116.988H475.505V115.788H470.645ZM468.101 108.192H474.509V109.008H468.101V108.192ZM471.305 109.5C472.853 109.5 473.897 110.256 473.897 111.408C473.897 112.56 472.853 113.316 471.305 113.316C469.745 113.316 468.701 112.56 468.701 111.408C468.701 110.256 469.745 109.5 471.305 109.5ZM471.305 110.256C470.309 110.256 469.649 110.712 469.649 111.408C469.649 112.104 470.309 112.56 471.305 112.56C472.277 112.56 472.949 112.104 472.949 111.408C472.949 110.712 472.277 110.256 471.305 110.256ZM470.801 106.98H471.797V108.636H470.801V106.98ZM487 107.088H487.996V117.936H487V107.088ZM479.8 108.144H480.784V114.864H479.8V108.144ZM479.8 114.276H480.688C482.332 114.276 484.048 114.156 485.884 113.772L486.004 114.624C484.12 115.008 482.404 115.14 480.688 115.14H479.8V114.276ZM497.487 107.076H498.495V117.948H497.487V107.076ZM498.255 111.36H500.271V112.2H498.255V111.36ZM490.611 114.408H491.463C493.467 114.408 494.871 114.336 496.491 114.036L496.599 114.876C494.931 115.188 493.503 115.248 491.463 115.248H490.611V114.408ZM490.611 108.132H495.651V108.948H491.595V114.78H490.611V108.132ZM502.094 116.883C501.906 116.883 501.748 116.818 501.619 116.689C501.49 116.561 501.426 116.402 501.426 116.215C501.426 116.027 501.49 115.869 501.619 115.74C501.748 115.611 501.906 115.547 502.094 115.547C502.281 115.547 502.439 115.611 502.568 115.74C502.697 115.869 502.762 116.027 502.762 116.215C502.762 116.402 502.697 116.561 502.568 116.689C502.439 116.818 502.281 116.883 502.094 116.883Z" fill="black"/>
</svg>
