<svg width="629" height="146" viewBox="0 0 629 146" fill="none" xmlns="http://www.w3.org/2000/svg">
<mask id="path-1-inside-1_184_184" fill="white">
<path d="M0 0H629V145.336H0V0Z"/>
</mask>
<path d="M0 3H629V-3H0V3ZM629 142.336H0V148.336H629V142.336Z" fill="white" mask="url(#path-1-inside-1_184_184)"/>
<path d="M92.8332 26.7842H99.8772V28.0562H92.8332V26.7842ZM91.6092 30.7802H101.665V32.0522H91.6092V30.7802ZM98.9172 26.7842H100.489V27.6722C100.489 28.6322 100.489 29.6642 100.153 31.1042L98.5692 31.0802C98.9172 29.6402 98.9172 28.6202 98.9172 27.6722V26.7842ZM92.7852 33.2162H100.441V37.2842H92.7852V33.2162ZM98.8692 34.4522H94.3452V36.0242H98.8692V34.4522ZM104.868 32.0282H106.464V34.2122H104.868V32.0282ZM108.876 32.0282H110.472V34.2122H108.876V32.0282ZM102.636 31.2722H112.68V32.5442H102.636V31.2722ZM107.64 33.3482C110.04 33.3482 111.492 34.0802 111.492 35.3882C111.492 36.6842 110.04 37.4162 107.64 37.4162C105.228 37.4162 103.776 36.6842 103.776 35.3882C103.776 34.0802 105.228 33.3482 107.64 33.3482ZM107.64 34.5602C106.152 34.5602 105.396 34.8242 105.396 35.3882C105.396 35.9522 106.152 36.2042 107.64 36.2042C109.128 36.2042 109.884 35.9522 109.884 35.3882C109.884 34.8242 109.128 34.5602 107.64 34.5602ZM107.664 26.4722C110.112 26.4722 111.684 27.2882 111.684 28.6202C111.684 29.9402 110.112 30.7442 107.664 30.7442C105.204 30.7442 103.644 29.9402 103.644 28.6202C103.644 27.2882 105.204 26.4722 107.664 26.4722ZM107.664 27.6962C106.14 27.6962 105.288 27.9962 105.288 28.6202C105.288 29.2322 106.14 29.5322 107.664 29.5322C109.176 29.5322 110.04 29.2322 110.04 28.6202C110.04 27.9962 109.176 27.6962 107.664 27.6962ZM117.195 31.2482H125.007V32.5202H117.195V31.2482ZM116.031 34.8482H126.087V36.1562H116.031V34.8482ZM120.243 31.8242H121.839V35.2682H120.243V31.8242ZM117.195 27.0482H124.923V28.3322H118.791V31.8002H117.195V27.0482ZM127.37 27.4322H131.762V34.6322H127.37V27.4322ZM130.274 28.6802H128.858V33.3842H130.274V28.6802ZM135.086 26.2922H136.61V37.4042H135.086V26.2922ZM130.958 30.3242H133.454V31.6082H130.958V30.3242ZM132.818 26.4602H134.318V36.9002H132.818V26.4602ZM145.729 26.3042H147.337V34.2842H145.729V26.3042ZM139.933 35.9402H147.613V37.2122H139.933V35.9402ZM139.933 33.4802H141.529V36.4562H139.933V33.4802ZM141.289 27.0002C142.993 27.0002 144.301 28.1762 144.301 29.8202C144.301 31.4522 142.993 32.6402 141.289 32.6402C139.585 32.6402 138.265 31.4522 138.265 29.8202C138.265 28.1762 139.585 27.0002 141.289 27.0002ZM141.289 28.3802C140.461 28.3802 139.825 28.9082 139.825 29.8202C139.825 30.7202 140.461 31.2482 141.289 31.2482C142.105 31.2482 142.741 30.7202 142.741 29.8202C142.741 28.9082 142.105 28.3802 141.289 28.3802ZM152.772 27.2042C154.464 27.2042 155.676 28.2482 155.676 29.7602C155.676 31.2842 154.464 32.3282 152.772 32.3282C151.08 32.3282 149.856 31.2842 149.856 29.7602C149.856 28.2482 151.08 27.2042 152.772 27.2042ZM152.772 28.0682C151.644 28.0682 150.828 28.7522 150.828 29.7602C150.828 30.7682 151.644 31.4642 152.772 31.4642C153.888 31.4642 154.704 30.7682 154.704 29.7602C154.704 28.7522 153.888 28.0682 152.772 28.0682ZM157.092 26.4122H158.088V37.2842H157.092V26.4122ZM149.448 34.9082L149.304 34.0802C151.284 34.0802 154.02 34.0682 156.384 33.6962L156.468 34.4282C154.032 34.8962 151.38 34.9082 149.448 34.9082ZM168.145 30.0962H171.169V30.9122H168.145V30.0962ZM165.529 27.3602H166.345V29.2922C166.345 31.7282 165.061 34.0562 163.345 34.9802L162.709 34.1882C164.305 33.3962 165.529 31.3082 165.529 29.2922V27.3602ZM165.721 27.3602H166.525V29.2922C166.525 31.2722 167.749 33.2402 169.321 33.9842L168.733 34.7882C166.981 33.9002 165.721 31.6682 165.721 29.2922V27.3602ZM170.677 26.4122H171.661V37.2842H170.677V26.4122ZM181.644 26.4122H182.64V37.2842H181.644V26.4122ZM174.384 27.3362H175.368V30.2042H178.5V27.3362H179.496V34.6682H174.384V27.3362ZM175.368 30.9962V33.8522H178.5V30.9962H175.368ZM189.155 27.1682H190.019V27.9962C190.019 30.3602 187.823 32.1962 185.651 32.6882L185.207 31.8602C187.115 31.5002 189.155 29.8442 189.155 27.9962V27.1682ZM189.335 27.1682H190.199V27.9962C190.199 29.8562 192.251 31.5002 194.147 31.8602L193.703 32.6882C191.543 32.1962 189.335 30.3722 189.335 27.9962V27.1682ZM184.811 34.9922H194.639V35.8082H184.811V34.9922ZM201.372 32.9282H202.38V34.7162H201.372V32.9282ZM206.124 26.4242H207.12V37.2722H206.124V26.4242ZM198.479 35.2082L198.348 34.3802C200.4 34.3682 203.1 34.3442 205.44 34.0442L205.512 34.7762C203.1 35.1842 200.484 35.2082 198.479 35.2082ZM198.576 27.7442H205.164V28.5482H198.576V27.7442ZM201.864 29.1722C203.424 29.1722 204.48 29.9642 204.48 31.1762C204.48 32.4002 203.424 33.1802 201.864 33.1802C200.316 33.1802 199.26 32.4002 199.26 31.1762C199.26 29.9642 200.316 29.1722 201.864 29.1722ZM201.864 29.9402C200.892 29.9402 200.208 30.4322 200.208 31.1762C200.208 31.9202 200.892 32.4122 201.864 32.4122C202.848 32.4122 203.532 31.9202 203.532 31.1762C203.532 30.4322 202.848 29.9402 201.864 29.9402ZM201.372 26.4242H202.368V28.1882H201.372V26.4242ZM211.979 27.3602H212.795V29.3042C212.795 31.7042 211.499 34.0442 209.783 34.9562L209.171 34.1642C210.743 33.3722 211.979 31.2842 211.979 29.3042V27.3602ZM212.159 27.3602H212.963V29.3042C212.963 31.2122 214.175 33.1922 215.711 33.9602L215.099 34.7522C213.419 33.8522 212.159 31.6322 212.159 29.3042V27.3602ZM216.659 26.4242H217.667V37.2722H216.659V26.4242ZM217.427 30.8162H219.443V31.6562H217.427V30.8162ZM224.758 30.6362H226.81V31.4642H224.758V30.6362ZM228.622 26.4242H229.582V37.2722H228.622V26.4242ZM226.474 26.6522H227.422V36.7322H226.474V26.6522ZM222.802 27.3242C224.206 27.3242 225.118 28.7762 225.118 31.1042C225.118 33.4322 224.206 34.8842 222.802 34.8842C221.398 34.8842 220.498 33.4322 220.498 31.1042C220.498 28.7762 221.398 27.3242 222.802 27.3242ZM222.802 28.2482C221.95 28.2482 221.41 29.3522 221.41 31.1042C221.41 32.8562 221.95 33.9602 222.802 33.9602C223.666 33.9602 224.206 32.8562 224.206 31.1042C224.206 29.3522 223.666 28.2482 222.802 28.2482ZM236.817 30.0962H239.841V30.9122H236.817V30.0962ZM234.201 27.3602H235.017V29.2922C235.017 31.7282 233.733 34.0562 232.017 34.9802L231.381 34.1882C232.977 33.3962 234.201 31.3082 234.201 29.2922V27.3602ZM234.393 27.3602H235.197V29.2922C235.197 31.2722 236.421 33.2402 237.993 33.9842L237.405 34.7882C235.653 33.9002 234.393 31.6682 234.393 29.2922V27.3602ZM239.349 26.4122H240.333V37.2842H239.349V26.4122ZM249.765 33.9122C252.141 33.9122 253.485 34.5002 253.485 35.5922C253.485 36.6842 252.141 37.2602 249.765 37.2602C247.401 37.2602 246.045 36.6842 246.045 35.5922C246.045 34.5002 247.401 33.9122 249.765 33.9122ZM249.765 34.6562C248.037 34.6562 247.065 34.9802 247.065 35.5922C247.065 36.2042 248.037 36.5162 249.765 36.5162C251.505 36.5162 252.465 36.2042 252.465 35.5922C252.465 34.9802 251.505 34.6562 249.765 34.6562ZM245.385 27.3482H254.109V28.1282H245.385V27.3482ZM249.777 28.5602C252.009 28.5602 253.281 29.1122 253.281 30.1322C253.281 31.1522 252.009 31.7042 249.777 31.7042C247.533 31.7042 246.273 31.1522 246.273 30.1322C246.273 29.1122 247.533 28.5602 249.777 28.5602ZM249.777 29.2682C248.205 29.2682 247.329 29.5802 247.329 30.1322C247.329 30.6842 248.205 30.9962 249.777 30.9962C251.337 30.9962 252.213 30.6842 252.213 30.1322C252.213 29.5802 251.337 29.2682 249.777 29.2682ZM249.285 26.2562H250.269V27.8162H249.285V26.2562ZM244.869 32.4002H254.673V33.1922H244.869V32.4002ZM256.532 27.4802H261.524V34.5482H256.532V27.4802ZM260.552 28.2842H257.504V33.7442H260.552V28.2842ZM263.792 26.4122H264.788V37.2842H263.792V26.4122ZM266.947 31.9682H276.787V32.7842H266.947V31.9682ZM271.363 30.6602H272.359V32.3762H271.363V30.6602ZM268.267 33.3242H269.251V34.3682H274.543V33.3242H275.527V37.1282H268.267V33.3242ZM269.251 35.1482V36.3362H274.543V35.1482H269.251ZM268.195 26.6522H275.515V29.1482H269.203V30.5762H268.219V28.4042H274.543V27.4202H268.195V26.6522ZM268.219 30.1682H275.755V30.9482H268.219V30.1682ZM279.03 27.5042H286.014V28.3322H279.03V27.5042ZM277.998 34.9322H287.802V35.7602H277.998V34.9322ZM281.802 31.0562H282.798V35.3402H281.802V31.0562ZM285.642 27.5042H286.626V28.5842C286.626 29.9282 286.626 31.4162 286.23 33.6122L285.234 33.4802C285.642 31.4042 285.642 29.8802 285.642 28.5842V27.5042ZM293.743 27.4442H294.523V29.5082C294.523 31.7762 293.563 33.9722 291.979 34.9322L291.343 34.1882C292.843 33.3122 293.743 31.3682 293.743 29.5082V27.4442ZM293.923 27.4442H294.703V29.4482C294.703 31.2362 295.543 33.0722 296.983 33.8762L296.383 34.6562C294.799 33.7442 293.923 31.6322 293.923 29.4482V27.4442ZM299.731 26.4242H300.691V37.2722H299.731V26.4242ZM298.015 30.7802H300.091V31.6082H298.015V30.7802ZM297.343 26.6522H298.291V36.7322H297.343V26.6522ZM302.514 35.1122H312.342V35.9402H302.514V35.1122ZM306.906 32.7842H307.902V35.4602H306.906V32.7842ZM303.702 27.2282H311.13V30.5162H304.722V32.6882H303.738V29.7122H310.146V28.0322H303.702V27.2282ZM303.738 32.2682H311.382V33.0842H303.738V32.2682ZM313.541 31.9202H323.381V32.7362H313.541V31.9202ZM318.029 32.4362H319.037V34.9322H318.029V32.4362ZM314.789 36.2042H322.289V37.0322H314.789V36.2042ZM314.789 33.8642H315.785V36.4322H314.789V33.8642ZM318.449 26.6882C320.741 26.6882 322.253 27.5282 322.253 28.8722C322.253 30.2162 320.741 31.0562 318.449 31.0562C316.145 31.0562 314.645 30.2162 314.645 28.8722C314.645 27.5282 316.145 26.6882 318.449 26.6882ZM318.449 27.5042C316.793 27.5042 315.701 28.0322 315.701 28.8722C315.701 29.7242 316.793 30.2402 318.449 30.2402C320.105 30.2402 321.197 29.7242 321.197 28.8722C321.197 28.0322 320.105 27.5042 318.449 27.5042ZM327.03 35.0522H336.858V35.8802H327.03V35.0522ZM327.882 27.5042H335.934V28.3202H327.882V27.5042ZM327.906 32.0882H335.922V32.9042H327.906V32.0882ZM329.574 28.2602H330.57V32.1722H329.574V28.2602ZM333.27 28.2602H334.254V32.1722H333.27V28.2602ZM338.069 35.1122H347.897V35.9402H338.069V35.1122ZM342.461 32.7842H343.457V35.4602H342.461V32.7842ZM339.257 27.2282H346.685V30.5162H340.277V32.6882H339.293V29.7122H345.701V28.0322H339.257V27.2282ZM339.293 32.2682H346.937V33.0842H339.293V32.2682ZM349.696 31.5842H350.5C352.624 31.5842 353.824 31.5362 355.216 31.2482L355.336 32.0522C353.896 32.3402 352.66 32.4122 350.5 32.4122H349.696V31.5842ZM349.696 27.1802H354.628V27.9842H350.668V31.8482H349.696V27.1802ZM350.788 33.4682H358.024V37.2722H357.028V34.2842H350.788V33.4682ZM357.028 26.4242H358.024V32.9162H357.028V26.4242ZM353.992 29.2322H357.304V30.0362H353.992V29.2322ZM361.407 32.2682H368.859V33.0722H361.407V32.2682ZM360.147 35.0522H369.975V35.8802H360.147V35.0522ZM361.407 27.3482H368.739V28.1642H362.415V32.5202H361.407V27.3482ZM362.091 29.7722H368.511V30.5642H362.091V29.7722ZM371.174 31.4642H381.014V32.2202H371.174V31.4642ZM372.338 33.0962H379.778V35.4122H373.358V36.6842H372.374V34.7282H378.806V33.8042H372.338V33.0962ZM372.374 36.4202H380.126V37.1402H372.374V36.4202ZM372.422 26.7362H379.742V28.9922H373.43V30.1682H372.446V28.3202H378.77V27.4442H372.422V26.7362ZM372.446 29.9282H379.946V30.6482H372.446V29.9282ZM392.835 26.4242H393.795V33.1442H392.835V26.4242ZM390.879 26.6162H391.827V33.1082H390.879V26.6162ZM388.983 31.8002H391.347V32.5082H388.983V31.8002ZM387.062 31.0202H388.011V33.1082H387.062V31.0202ZM384.699 31.4162L384.591 30.6362C386.079 30.6362 388.503 30.6122 390.303 30.3242L390.375 31.0082C388.515 31.3922 386.199 31.4162 384.699 31.4162ZM386.499 33.5402H387.483V34.5482H392.811V33.5402H393.795V37.1282H386.499V33.5402ZM387.483 35.3162V36.3362H392.811V35.3162H387.483ZM387.519 26.7962C388.923 26.7962 389.871 27.4202 389.871 28.4042C389.871 29.4002 388.923 30.0242 387.519 30.0242C386.103 30.0242 385.155 29.4002 385.155 28.4042C385.155 27.4202 386.103 26.7962 387.519 26.7962ZM387.519 27.5042C386.631 27.5042 386.055 27.8522 386.055 28.4042C386.055 28.9682 386.631 29.3042 387.519 29.3042C388.395 29.3042 388.971 28.9682 388.971 28.4042C388.971 27.8522 388.395 27.5042 387.519 27.5042ZM398.162 32.8922H399.158V37.2722H398.162V32.8922ZM402.038 32.8922H403.046V37.2722H402.038V32.8922ZM395.69 32.7602H405.53V33.5762H395.69V32.7602ZM396.926 26.8442H397.922V28.2962H403.286V26.8442H404.27V31.4882H396.926V26.8442ZM397.922 29.1122V30.6602H403.286V29.1122H397.922ZM416.582 26.4242H417.578V34.9202H416.582V26.4242ZM417.158 30.2042H419.162V31.0322H417.158V30.2042ZM410.714 36.2162H417.962V37.0322H410.714V36.2162ZM410.714 34.3562H411.71V36.4682H410.714V34.3562ZM412.01 31.7282H413.006V33.2042H412.01V31.7282ZM409.238 33.6722L409.106 32.8682C411.026 32.8682 413.702 32.8322 415.934 32.4842L416.018 33.1922C413.726 33.6122 411.122 33.6602 409.238 33.6722ZM409.382 27.4802H415.61V28.2362H409.382V27.4802ZM412.502 28.6802C414.026 28.6802 415.022 29.3162 415.022 30.3482C415.022 31.3922 414.026 32.0282 412.502 32.0282C410.978 32.0282 409.97 31.3922 409.97 30.3482C409.97 29.3162 410.978 28.6802 412.502 28.6802ZM412.502 29.3882C411.53 29.3882 410.906 29.7602 410.906 30.3482C410.906 30.9482 411.53 31.3082 412.502 31.3082C413.462 31.3082 414.086 30.9482 414.086 30.3482C414.086 29.7602 413.462 29.3882 412.502 29.3882ZM412.01 26.3762H413.006V27.8162H412.01V26.3762ZM425.401 28.4162H428.305V29.2322H425.401V28.4162ZM425.305 30.6722H428.233V31.4882H425.305V30.6722ZM428.137 26.4242H429.133V32.9282H428.137V26.4242ZM424.741 27.2402H425.809C425.809 30.0362 423.877 31.9922 420.757 32.9282L420.349 32.1242C423.121 31.3202 424.741 29.7242 424.741 27.6722V27.2402ZM420.913 27.2402H425.425V28.0562H420.913V27.2402ZM425.605 33.0482C427.801 33.0482 429.193 33.8282 429.193 35.1362C429.193 36.4442 427.801 37.2242 425.605 37.2242C423.409 37.2242 422.017 36.4442 422.017 35.1362C422.017 33.8282 423.409 33.0482 425.605 33.0482ZM425.605 33.8282C424.021 33.8282 423.001 34.3202 423.001 35.1362C423.001 35.9522 424.021 36.4322 425.605 36.4322C427.201 36.4322 428.221 35.9522 428.221 35.1362C428.221 34.3202 427.201 33.8282 425.605 33.8282ZM435.648 30.6362H437.7V31.4642H435.648V30.6362ZM439.512 26.4242H440.472V37.2722H439.512V26.4242ZM437.364 26.6522H438.312V36.7322H437.364V26.6522ZM433.692 27.3242C435.096 27.3242 436.008 28.7762 436.008 31.1042C436.008 33.4322 435.096 34.8842 433.692 34.8842C432.288 34.8842 431.388 33.4322 431.388 31.1042C431.388 28.7762 432.288 27.3242 433.692 27.3242ZM433.692 28.2482C432.84 28.2482 432.3 29.3522 432.3 31.1042C432.3 32.8562 432.84 33.9602 433.692 33.9602C434.556 33.9602 435.096 32.8562 435.096 31.1042C435.096 29.3522 434.556 28.2482 433.692 28.2482ZM447.707 30.0962H450.731V30.9122H447.707V30.0962ZM445.091 27.3602H445.907V29.2922C445.907 31.7282 444.623 34.0562 442.907 34.9802L442.271 34.1882C443.867 33.3962 445.091 31.3082 445.091 29.2922V27.3602ZM445.283 27.3602H446.087V29.2922C446.087 31.2722 447.311 33.2402 448.883 33.9842L448.295 34.7882C446.543 33.9002 445.283 31.6682 445.283 29.2922V27.3602ZM450.239 26.4122H451.223V37.2842H450.239V26.4122ZM464.004 26.4242H464.964V37.2722H464.004V26.4242ZM462.252 30.7802H464.328V31.5962H462.252V30.7802ZM459.444 27.8162H460.404C460.404 30.6122 459.444 33.2042 456.348 34.9442L455.76 34.2362C458.484 32.7122 459.444 30.5162 459.444 28.0082V27.8162ZM456.18 27.8162H459.78V28.6442H456.18V27.8162ZM461.592 26.7122H462.54V36.7442H461.592V26.7122ZM467.255 26.8682H468.239V28.4282H471.299V26.8682H472.271V31.6082H467.255V26.8682ZM468.239 29.2082V30.8042H471.299V29.2082H468.239ZM474.227 26.4242H475.223V32.0162H474.227V26.4242ZM474.791 28.7522H476.819V29.5802H474.791V28.7522ZM468.335 32.5442H475.223V35.1722H469.343V36.8042H468.359V34.4282H474.251V33.3362H468.335V32.5442ZM468.359 36.3602H475.619V37.1522H468.359V36.3602ZM485.194 26.4242H486.19V37.2722H485.194V26.4242ZM485.95 30.8762H487.966V31.7162H485.95V30.8762ZM477.79 28.1522H484.186V28.9682H477.79V28.1522ZM481.03 29.8682C482.566 29.8682 483.67 30.9002 483.67 32.3642C483.67 33.8282 482.566 34.8602 481.03 34.8602C479.506 34.8602 478.39 33.8282 478.39 32.3642C478.39 30.9002 479.506 29.8682 481.03 29.8682ZM481.03 30.6962C480.046 30.6962 479.338 31.3802 479.338 32.3642C479.338 33.3362 480.046 34.0322 481.03 34.0322C482.014 34.0322 482.722 33.3362 482.722 32.3642C482.722 31.3802 482.014 30.6962 481.03 30.6962ZM480.514 26.5562H481.51V28.5242H480.514V26.5562ZM489.921 27.5042H496.905V28.3322H489.921V27.5042ZM488.889 34.9322H498.693V35.7602H488.889V34.9322ZM492.693 31.0562H493.689V35.3402H492.693V31.0562ZM496.533 27.5042H497.517V28.5842C497.517 29.9282 497.517 31.4162 497.121 33.6122L496.125 33.4802C496.533 31.4042 496.533 29.8802 496.533 28.5842V27.5042ZM505.066 33.0962H505.834V33.6842C505.834 35.1002 504.946 36.5282 503.386 37.1282L502.882 36.3842C504.25 35.8922 505.066 34.7282 505.066 33.6842V33.0962ZM505.282 33.0962H506.026V33.6842C506.026 34.7762 506.674 35.9402 507.97 36.4682L507.55 37.2242C505.99 36.6122 505.282 35.1242 505.282 33.6842V33.0962ZM509.074 33.0962H509.818V33.6842C509.818 34.9562 509.098 36.5642 507.55 37.2242L507.13 36.4682C508.414 35.8802 509.074 34.6202 509.074 33.6842V33.0962ZM509.278 33.0962H510.046V33.6842C510.046 34.8002 510.85 35.9162 512.23 36.3842L511.726 37.1282C510.142 36.5522 509.278 35.1842 509.278 33.6842V33.0962ZM510.25 26.4362H511.258V32.6282H510.25V26.4362ZM505.438 27.0602C507.082 27.0602 508.258 28.0922 508.258 29.5922C508.258 31.0922 507.082 32.1122 505.438 32.1122C503.794 32.1122 502.606 31.0922 502.606 29.5922C502.606 28.0922 503.794 27.0602 505.438 27.0602ZM505.438 27.8882C504.358 27.8882 503.578 28.5842 503.578 29.5922C503.578 30.6002 504.358 31.2842 505.438 31.2842C506.518 31.2842 507.298 30.6002 507.298 29.5922C507.298 28.5842 506.518 27.8882 505.438 27.8882ZM516.297 27.2522C517.869 27.2522 518.997 28.7282 518.997 31.0322C518.997 33.3482 517.869 34.8242 516.297 34.8242C514.713 34.8242 513.597 33.3482 513.597 31.0322C513.597 28.7282 514.713 27.2522 516.297 27.2522ZM516.297 28.1522C515.253 28.1522 514.545 29.2802 514.545 31.0322C514.545 32.7962 515.253 33.9482 516.297 33.9482C517.341 33.9482 518.049 32.7962 518.049 31.0322C518.049 29.2802 517.341 28.1522 516.297 28.1522ZM521.349 26.4122H522.333V37.2842H521.349V26.4122ZM518.673 30.5522H521.781V31.3682H518.673V30.5522ZM526.844 32.0042H527.828V35.2562H526.844V32.0042ZM530.852 32.0042H531.848V35.2562H530.852V32.0042ZM524.444 35.0642H534.272V35.8922H524.444V35.0642ZM529.34 27.1082C531.632 27.1082 533.276 28.2002 533.276 29.9042C533.276 31.5962 531.632 32.6882 529.34 32.6882C527.036 32.6882 525.392 31.5962 525.392 29.9042C525.392 28.2002 527.036 27.1082 529.34 27.1082ZM529.34 27.9002C527.6 27.9002 526.352 28.6922 526.352 29.9042C526.352 31.1042 527.6 31.8962 529.34 31.8962C531.08 31.8962 532.316 31.1042 532.316 29.9042C532.316 28.6922 531.08 27.9002 529.34 27.9002ZM536.383 36.2191C536.195 36.2191 536.037 36.1546 535.908 36.0257C535.779 35.8968 535.715 35.7386 535.715 35.5511C535.715 35.3636 535.779 35.2054 535.908 35.0765C536.037 34.9476 536.195 34.8831 536.383 34.8831C536.57 34.8831 536.729 34.9476 536.857 35.0765C536.986 35.2054 537.051 35.3636 537.051 35.5511C537.051 35.7386 536.986 35.8968 536.857 36.0257C536.729 36.1546 536.57 36.2191 536.383 36.2191ZM135.674 43.7682C136.45 43.7682 137.09 43.8642 137.594 44.0562C138.098 44.2402 138.474 44.5242 138.722 44.9082C138.97 45.2842 139.094 45.7602 139.094 46.3362C139.094 46.7282 139.018 47.0722 138.866 47.3682C138.722 47.6562 138.526 47.9042 138.278 48.1122C138.038 48.3122 137.778 48.4762 137.498 48.6042L140.018 52.3362H138.002L135.962 49.0482H134.99V52.3362H133.178V43.7682H135.674ZM135.542 45.2562H134.99V47.5722H135.578C135.978 47.5722 136.302 47.5282 136.55 47.4402C136.798 47.3522 136.978 47.2202 137.09 47.0442C137.202 46.8602 137.258 46.6402 137.258 46.3842C137.258 46.1122 137.194 45.8962 137.066 45.7362C136.946 45.5682 136.758 45.4482 136.502 45.3762C136.254 45.2962 135.934 45.2562 135.542 45.2562ZM143.656 45.6642C144.264 45.6642 144.784 45.7802 145.216 46.0122C145.656 46.2442 145.996 46.5802 146.236 47.0202C146.476 47.4602 146.596 48.0002 146.596 48.6402V49.5042H142.372C142.388 50.0082 142.536 50.4042 142.816 50.6922C143.104 50.9802 143.5 51.1242 144.004 51.1242C144.428 51.1242 144.812 51.0842 145.156 51.0042C145.5 50.9162 145.856 50.7842 146.224 50.6082V51.9882C145.904 52.1482 145.564 52.2642 145.204 52.3362C144.852 52.4162 144.424 52.4562 143.92 52.4562C143.264 52.4562 142.684 52.3362 142.18 52.0962C141.676 51.8482 141.28 51.4762 140.992 50.9802C140.704 50.4842 140.56 49.8602 140.56 49.1082C140.56 48.3402 140.688 47.7042 140.944 47.2002C141.208 46.6882 141.572 46.3042 142.036 46.0482C142.5 45.7922 143.04 45.6642 143.656 45.6642ZM143.668 46.9362C143.324 46.9362 143.036 47.0482 142.804 47.2722C142.58 47.4962 142.448 47.8442 142.408 48.3162H144.916C144.916 48.0522 144.868 47.8162 144.772 47.6082C144.684 47.4002 144.548 47.2362 144.364 47.1162C144.18 46.9962 143.948 46.9362 143.668 46.9362ZM150.733 45.6522C151.613 45.6522 152.285 45.8442 152.749 46.2282C153.221 46.6042 153.457 47.1842 153.457 47.9682V52.3362H152.209L151.861 51.4482H151.813C151.629 51.6802 151.437 51.8722 151.237 52.0242C151.045 52.1762 150.821 52.2842 150.565 52.3482C150.317 52.4202 150.009 52.4562 149.641 52.4562C149.257 52.4562 148.909 52.3842 148.597 52.2402C148.293 52.0882 148.053 51.8602 147.877 51.5562C147.701 51.2442 147.613 50.8522 147.613 50.3802C147.613 49.6842 147.857 49.1722 148.345 48.8442C148.833 48.5082 149.565 48.3242 150.541 48.2922L151.681 48.2562V47.9682C151.681 47.6242 151.589 47.3722 151.405 47.2122C151.229 47.0522 150.981 46.9722 150.661 46.9722C150.341 46.9722 150.029 47.0202 149.725 47.1162C149.421 47.2042 149.117 47.3162 148.813 47.4522L148.225 46.2402C148.577 46.0562 148.965 45.9122 149.389 45.8082C149.821 45.7042 150.269 45.6522 150.733 45.6522ZM150.985 49.3242C150.409 49.3402 150.009 49.4442 149.785 49.6362C149.561 49.8282 149.449 50.0802 149.449 50.3922C149.449 50.6642 149.529 50.8602 149.689 50.9802C149.849 51.0922 150.057 51.1482 150.313 51.1482C150.697 51.1482 151.021 51.0362 151.285 50.8122C151.549 50.5802 151.681 50.2562 151.681 49.8402V49.3002L150.985 49.3242ZM157.952 52.4562C157.304 52.4562 156.752 52.3402 156.296 52.1082C155.84 51.8682 155.492 51.5002 155.252 51.0042C155.012 50.5082 154.892 49.8722 154.892 49.0962C154.892 48.2962 155.028 47.6442 155.3 47.1402C155.572 46.6362 155.948 46.2642 156.428 46.0242C156.916 45.7842 157.476 45.6642 158.108 45.6642C158.556 45.6642 158.944 45.7082 159.272 45.7962C159.608 45.8842 159.9 45.9882 160.148 46.1082L159.62 47.4882C159.34 47.3762 159.076 47.2842 158.828 47.2122C158.588 47.1402 158.348 47.1042 158.108 47.1042C157.796 47.1042 157.536 47.1802 157.328 47.3322C157.12 47.4762 156.964 47.6962 156.86 47.9922C156.764 48.2802 156.716 48.6442 156.716 49.0842C156.716 49.5162 156.768 49.8762 156.872 50.1642C156.984 50.4442 157.144 50.6562 157.352 50.8002C157.56 50.9362 157.812 51.0042 158.108 51.0042C158.484 51.0042 158.816 50.9562 159.104 50.8602C159.392 50.7562 159.672 50.6162 159.944 50.4402V51.9642C159.672 52.1402 159.384 52.2642 159.08 52.3362C158.784 52.4162 158.408 52.4562 157.952 52.4562ZM164.212 51.0282C164.412 51.0282 164.604 51.0082 164.788 50.9682C164.972 50.9282 165.156 50.8802 165.34 50.8242V52.1562C165.148 52.2362 164.908 52.3042 164.62 52.3602C164.34 52.4242 164.032 52.4562 163.696 52.4562C163.304 52.4562 162.952 52.3922 162.64 52.2642C162.336 52.1362 162.092 51.9162 161.908 51.6042C161.732 51.2842 161.644 50.8442 161.644 50.2842V47.1282H160.792V46.3722L161.776 45.7722L162.292 44.3922H163.432V45.7842H165.268V47.1282H163.432V50.2842C163.432 50.5322 163.504 50.7202 163.648 50.8482C163.792 50.9682 163.98 51.0282 164.212 51.0282ZM169.055 47.8962H170.051V50.4882H169.055V47.8962ZM169.547 43.1202C171.215 43.1202 172.415 44.1642 172.415 45.6762C172.415 47.1882 171.215 48.2322 169.547 48.2322C167.879 48.2322 166.679 47.1882 166.679 45.6762C166.679 44.1642 167.879 43.1202 169.547 43.1202ZM169.547 43.9722C168.443 43.9722 167.651 44.6682 167.651 45.6762C167.651 46.6842 168.443 47.3802 169.547 47.3802C170.651 47.3802 171.443 46.6842 171.443 45.6762C171.443 44.6682 170.651 43.9722 169.547 43.9722ZM173.651 42.4242H174.647V53.2722H173.651V42.4242ZM174.359 46.8882H176.363V47.7282H174.359V46.8882ZM166.331 50.9322L166.187 50.1042C168.143 50.0922 170.759 50.0802 172.967 49.7802L173.051 50.5242C170.759 50.9082 168.227 50.9322 166.331 50.9322ZM187.871 52.3362H185.567L181.835 45.8562H181.787C181.795 46.0562 181.803 46.2602 181.811 46.4682C181.819 46.6682 181.827 46.8722 181.835 47.0802C181.851 47.2802 181.863 47.4842 181.871 47.6922C181.879 47.8922 181.887 48.0962 181.895 48.3042V52.3362H180.275V43.7682H182.567L186.287 50.1882H186.323C186.315 49.9882 186.307 49.7922 186.299 49.6002C186.291 49.4002 186.283 49.2042 186.275 49.0122C186.275 48.8122 186.271 48.6162 186.263 48.4242C186.255 48.2242 186.247 48.0242 186.239 47.8242V43.7682H187.871V52.3362ZM192.593 45.6642C193.201 45.6642 193.721 45.7802 194.153 46.0122C194.593 46.2442 194.933 46.5802 195.173 47.0202C195.413 47.4602 195.533 48.0002 195.533 48.6402V49.5042H191.309C191.325 50.0082 191.473 50.4042 191.753 50.6922C192.041 50.9802 192.437 51.1242 192.941 51.1242C193.365 51.1242 193.749 51.0842 194.093 51.0042C194.437 50.9162 194.793 50.7842 195.161 50.6082V51.9882C194.841 52.1482 194.501 52.2642 194.141 52.3362C193.789 52.4162 193.361 52.4562 192.857 52.4562C192.201 52.4562 191.621 52.3362 191.117 52.0962C190.613 51.8482 190.217 51.4762 189.929 50.9802C189.641 50.4842 189.497 49.8602 189.497 49.1082C189.497 48.3402 189.625 47.7042 189.881 47.2002C190.145 46.6882 190.509 46.3042 190.973 46.0482C191.437 45.7922 191.977 45.6642 192.593 45.6642ZM192.605 46.9362C192.261 46.9362 191.973 47.0482 191.741 47.2722C191.517 47.4962 191.385 47.8442 191.345 48.3162H193.853C193.853 48.0522 193.805 47.8162 193.709 47.6082C193.621 47.4002 193.485 47.2362 193.301 47.1162C193.117 46.9962 192.885 46.9362 192.605 46.9362ZM198.093 48.9882L195.981 45.7842H198.009L199.281 47.8722L200.565 45.7842H202.592L200.457 48.9882L202.689 52.3362H200.661L199.281 50.0922L197.901 52.3362H195.873L198.093 48.9882ZM206.446 51.0282C206.646 51.0282 206.838 51.0082 207.022 50.9682C207.206 50.9282 207.39 50.8802 207.574 50.8242V52.1562C207.382 52.2362 207.142 52.3042 206.854 52.3602C206.574 52.4242 206.266 52.4562 205.93 52.4562C205.538 52.4562 205.186 52.3922 204.874 52.2642C204.57 52.1362 204.326 51.9162 204.142 51.6042C203.966 51.2842 203.878 50.8442 203.878 50.2842V47.1282H203.026V46.3722L204.01 45.7722L204.526 44.3922H205.666V45.7842H207.502V47.1282H205.666V50.2842C205.666 50.5322 205.738 50.7202 205.882 50.8482C206.026 50.9682 206.214 51.0282 206.446 51.0282ZM209.6 52.1077C209.342 52.1077 209.121 52.0179 208.938 51.8382C208.758 51.6585 208.668 51.4378 208.668 51.1761C208.668 50.9183 208.758 50.6995 208.938 50.5198C209.121 50.3401 209.342 50.2503 209.6 50.2503C209.861 50.2503 210.082 50.3401 210.262 50.5198C210.441 50.6995 210.531 50.9183 210.531 51.1761C210.531 51.4378 210.441 51.6585 210.262 51.8382C210.082 52.0179 209.861 52.1077 209.6 52.1077ZM211.666 55.2162C211.466 55.2162 211.258 55.2002 211.042 55.1682C210.818 55.1442 210.634 55.1122 210.49 55.0722V53.6682C210.634 53.7002 210.77 53.7242 210.898 53.7402C211.026 53.7642 211.17 53.7762 211.33 53.7762C211.57 53.7762 211.774 53.7082 211.942 53.5722C212.11 53.4362 212.194 53.1722 212.194 52.7802V45.7842H213.982V53.0442C213.982 53.4442 213.906 53.8082 213.754 54.1362C213.602 54.4642 213.354 54.7242 213.01 54.9162C212.674 55.1162 212.226 55.2162 211.666 55.2162ZM212.122 44.0922C212.122 43.7562 212.214 43.5282 212.398 43.4082C212.59 43.2802 212.822 43.2162 213.094 43.2162C213.358 43.2162 213.586 43.2802 213.778 43.4082C213.97 43.5282 214.066 43.7562 214.066 44.0922C214.066 44.4202 213.97 44.6482 213.778 44.7762C213.586 44.9042 213.358 44.9682 213.094 44.9682C212.822 44.9682 212.59 44.9042 212.398 44.7762C212.214 44.6482 212.122 44.4202 212.122 44.0922ZM220.422 50.3922C220.422 50.8322 220.318 51.2082 220.11 51.5202C219.902 51.8242 219.59 52.0562 219.174 52.2162C218.758 52.3762 218.242 52.4562 217.626 52.4562C217.17 52.4562 216.778 52.4242 216.45 52.3602C216.122 52.3042 215.794 52.2082 215.466 52.0722V50.5962C215.818 50.7562 216.198 50.8882 216.606 50.9922C217.014 51.0962 217.374 51.1482 217.686 51.1482C218.038 51.1482 218.286 51.0962 218.43 50.9922C218.582 50.8882 218.658 50.7522 218.658 50.5842C218.658 50.4722 218.626 50.3722 218.562 50.2842C218.506 50.1962 218.378 50.0962 218.178 49.9842C217.978 49.8722 217.666 49.7282 217.242 49.5522C216.834 49.3762 216.498 49.2042 216.234 49.0362C215.97 48.8602 215.774 48.6522 215.646 48.4122C215.518 48.1642 215.454 47.8562 215.454 47.4882C215.454 46.8802 215.69 46.4242 216.162 46.1202C216.634 45.8162 217.262 45.6642 218.046 45.6642C218.454 45.6642 218.842 45.7042 219.21 45.7842C219.578 45.8642 219.958 45.9962 220.35 46.1802L219.81 47.4642C219.594 47.3682 219.386 47.2842 219.186 47.2122C218.986 47.1402 218.79 47.0842 218.598 47.0442C218.414 47.0042 218.222 46.9842 218.022 46.9842C217.758 46.9842 217.558 47.0202 217.422 47.0922C217.294 47.1642 217.23 47.2722 217.23 47.4162C217.23 47.5202 217.262 47.6162 217.326 47.7042C217.398 47.7842 217.53 47.8722 217.722 47.9682C217.922 48.0642 218.214 48.1922 218.598 48.3522C218.974 48.5042 219.298 48.6642 219.57 48.8322C219.842 48.9922 220.05 49.1962 220.194 49.4442C220.346 49.6842 220.422 50.0002 220.422 50.3922ZM221.467 47.4642H231.307V48.2202H221.467V47.4642ZM222.631 49.0962H230.071V51.4122H223.651V52.6842H222.667V50.7282H229.099V49.8042H222.631V49.0962ZM222.667 52.4202H230.419V53.1402H222.667V52.4202ZM222.715 42.7362H230.035V44.9922H223.723V46.1682H222.739V44.3202H229.063V43.4442H222.715V42.7362ZM222.739 45.9282H230.239V46.6482H222.739V45.9282ZM237.607 43.3602H238.423V45.3042C238.423 47.7042 237.127 50.0442 235.411 50.9562L234.799 50.1642C236.371 49.3722 237.607 47.2842 237.607 45.3042V43.3602ZM237.787 43.3602H238.591V45.3042C238.591 47.2122 239.803 49.1922 241.339 49.9602L240.727 50.7522C239.047 49.8522 237.787 47.6322 237.787 45.3042V43.3602ZM242.287 42.4242H243.295V53.2722H242.287V42.4242ZM243.055 46.8162H245.071V47.6562H243.055V46.8162ZM248.407 46.0962H249.391V48.1482H248.407V46.0962ZM252.391 46.0962H253.375V48.1482H252.391V46.0962ZM245.983 47.7882H255.787V48.5922H245.983V47.7882ZM250.879 49.4082C253.207 49.4082 254.599 50.0922 254.599 51.3282C254.599 52.5642 253.207 53.2602 250.879 53.2602C248.551 53.2602 247.159 52.5642 247.159 51.3282C247.159 50.0922 248.551 49.4082 250.879 49.4082ZM250.879 50.1762C249.187 50.1762 248.167 50.5962 248.167 51.3282C248.167 52.0722 249.187 52.4802 250.879 52.4802C252.583 52.4802 253.591 52.0722 253.591 51.3282C253.591 50.5962 252.583 50.1762 250.879 50.1762ZM250.891 42.6162C253.243 42.6162 254.707 43.3722 254.707 44.6442C254.707 45.9042 253.243 46.6482 250.891 46.6482C248.527 46.6482 247.075 45.9042 247.075 44.6442C247.075 43.3722 248.527 42.6162 250.891 42.6162ZM250.891 43.3962C249.163 43.3962 248.095 43.8522 248.095 44.6442C248.095 45.4242 249.163 45.8802 250.891 45.8802C252.619 45.8802 253.687 45.4242 253.687 44.6442C253.687 43.8522 252.619 43.3962 250.891 43.3962ZM257.01 44.2722H262.386V45.0882H257.01V44.2722ZM259.698 45.8082C261.054 45.8082 262.038 46.8282 262.038 48.2922C262.038 49.7442 261.054 50.7642 259.698 50.7642C258.354 50.7642 257.37 49.7442 257.37 48.2922C257.37 46.8282 258.354 45.8082 259.698 45.8082ZM259.698 46.6602C258.87 46.6602 258.27 47.3322 258.27 48.2922C258.27 49.2522 258.87 49.9242 259.698 49.9242C260.538 49.9242 261.15 49.2522 261.15 48.2922C261.15 47.3322 260.538 46.6602 259.698 46.6602ZM265.254 42.4242H266.214V53.2722H265.254V42.4242ZM263.526 46.9842H265.578V47.8122H263.526V46.9842ZM262.938 42.6642H263.874V52.7442H262.938V42.6642ZM259.218 42.7362H260.202V44.7762H259.218V42.7362ZM277.842 42.4122H278.85V53.2842H277.842V42.4122ZM278.61 46.6962H280.626V47.5362H278.61V46.6962ZM270.966 49.7442H271.818C273.822 49.7442 275.226 49.6722 276.846 49.3722L276.954 50.2122C275.286 50.5242 273.858 50.5842 271.818 50.5842H270.966V49.7442ZM270.966 43.4682H276.006V44.2842H271.95V50.1162H270.966V43.4682ZM289.661 44.0442H291.545V44.8722H289.661V44.0442ZM289.661 46.3482H291.545V47.1762H289.661V46.3482ZM284.573 43.0602C286.205 43.0602 287.405 44.1162 287.405 45.6282C287.405 47.1282 286.205 48.1722 284.573 48.1722C282.941 48.1722 281.741 47.1282 281.741 45.6282C281.741 44.1162 282.941 43.0602 284.573 43.0602ZM284.573 43.9002C283.493 43.9002 282.713 44.6082 282.713 45.6282C282.713 46.6482 283.493 47.3442 284.573 47.3442C285.653 47.3442 286.433 46.6482 286.433 45.6282C286.433 44.6082 285.653 43.9002 284.573 43.9002ZM288.965 42.4242H289.961V48.8442H288.965V42.4242ZM286.505 49.1922C288.713 49.1922 290.069 49.9482 290.069 51.2202C290.069 52.5042 288.713 53.2482 286.505 53.2482C284.297 53.2482 282.941 52.5042 282.941 51.2202C282.941 49.9482 284.297 49.1922 286.505 49.1922ZM286.505 49.9962C284.897 49.9962 283.913 50.4402 283.913 51.2202C283.913 52.0002 284.897 52.4562 286.505 52.4562C288.113 52.4562 289.097 52.0002 289.097 51.2202C289.097 50.4402 288.113 49.9962 286.505 49.9962ZM300.004 42.4362H301V50.5722H300.004V42.4362ZM300.688 45.9882H302.608V46.8282H300.688V45.9882ZM292.612 43.7442H299.02V44.5482H292.612V43.7442ZM295.816 45.1482C297.352 45.1482 298.408 45.9522 298.408 47.1762C298.408 48.3882 297.352 49.1922 295.816 49.1922C294.268 49.1922 293.212 48.3882 293.212 47.1762C293.212 45.9522 294.268 45.1482 295.816 45.1482ZM295.816 45.9282C294.832 45.9282 294.16 46.4202 294.16 47.1762C294.16 47.9202 294.832 48.4122 295.816 48.4122C296.788 48.4122 297.46 47.9202 297.46 47.1762C297.46 46.4202 296.788 45.9282 295.816 45.9282ZM295.312 42.4242H296.308V44.1642H295.312V42.4242ZM294.244 52.2162H301.492V53.0322H294.244V52.2162ZM294.244 49.9242H295.24V52.5642H294.244V49.9242ZM307.709 52.3362H306.629V43.7682H311.417V44.7162H307.709V47.7522H311.189V48.7002H307.709V52.3362ZM317.64 52.3362H312.852V43.7682H317.64V44.7162H313.932V47.3922H317.424V48.3282H313.932V51.3882H317.64V52.3362ZM326.805 46.0962H329.829V46.9122H326.805V46.0962ZM324.189 43.3602H325.005V45.2922C325.005 47.7282 323.721 50.0562 322.005 50.9802L321.369 50.1882C322.965 49.3962 324.189 47.3082 324.189 45.2922V43.3602ZM324.381 43.3602H325.185V45.2922C325.185 47.2722 326.409 49.2402 327.981 49.9842L327.393 50.7882C325.641 49.9002 324.381 47.6682 324.381 45.2922V43.3602ZM329.337 42.4122H330.321V53.2842H329.337V42.4122ZM340.304 42.4122H341.3V53.2842H340.304V42.4122ZM333.044 43.3362H334.028V46.2042H337.16V43.3362H338.156V50.6682H333.044V43.3362ZM334.028 46.9962V49.8522H337.16V46.9962H334.028ZM347.815 43.1682H348.679V43.9962C348.679 46.3602 346.483 48.1962 344.311 48.6882L343.867 47.8602C345.775 47.5002 347.815 45.8442 347.815 43.9962V43.1682ZM347.995 43.1682H348.859V43.9962C348.859 45.8562 350.911 47.5002 352.807 47.8602L352.363 48.6882C350.203 48.1962 347.995 46.3722 347.995 43.9962V43.1682ZM343.471 50.9922H353.299V51.8082H343.471V50.9922ZM354.498 47.4642H364.338V48.2202H354.498V47.4642ZM355.662 49.0962H363.102V51.4122H356.682V52.6842H355.698V50.7282H362.13V49.8042H355.662V49.0962ZM355.698 52.4202H363.45V53.1402H355.698V52.4202ZM355.746 42.7362H363.066V44.9922H356.754V46.1682H355.77V44.3202H362.094V43.4442H355.746V42.7362ZM355.77 45.9282H363.27V46.6482H355.77V45.9282ZM368.371 43.4442H369.319V46.0962H371.587V43.4442H372.511V50.5602H368.371V43.4442ZM369.319 46.9002V49.7442H371.587V46.9002H369.319ZM376.243 42.4242H377.203V53.2722H376.243V42.4242ZM374.503 46.7202H376.591V47.5362H374.503V46.7202ZM373.843 42.6522H374.791V52.7322H373.843V42.6522ZM379.026 51.1002H388.854V51.9282H379.026V51.1002ZM383.406 48.2922H384.402V51.4722H383.406V48.2922ZM379.878 43.4562H387.93V44.2722H379.878V43.4562ZM379.902 47.8242H387.918V48.6282H379.902V47.8242ZM381.57 44.1162H382.566V47.9682H381.57V44.1162ZM385.266 44.1162H386.25V47.9682H385.266V44.1162ZM397.409 42.4242H398.405V53.2722H397.409V42.4242ZM398.165 46.8762H400.181V47.7162H398.165V46.8762ZM390.005 44.1522H396.401V44.9682H390.005V44.1522ZM393.245 45.8682C394.781 45.8682 395.885 46.9002 395.885 48.3642C395.885 49.8282 394.781 50.8602 393.245 50.8602C391.721 50.8602 390.605 49.8282 390.605 48.3642C390.605 46.9002 391.721 45.8682 393.245 45.8682ZM393.245 46.6962C392.261 46.6962 391.553 47.3802 391.553 48.3642C391.553 49.3362 392.261 50.0322 393.245 50.0322C394.229 50.0322 394.937 49.3362 394.937 48.3642C394.937 47.3802 394.229 46.6962 393.245 46.6962ZM392.729 42.5562H393.725V44.5242H392.729V42.5562ZM402.136 43.5042H409.12V44.3322H402.136V43.5042ZM401.104 50.9322H410.908V51.7602H401.104V50.9322ZM404.908 47.0562H405.904V51.3402H404.908V47.0562ZM408.748 43.5042H409.732V44.5842C409.732 45.9282 409.732 47.4162 409.336 49.6122L408.34 49.4802C408.748 47.4042 408.748 45.8802 408.748 44.5842V43.5042ZM413.847 51.0762C413.775 51.3562 413.683 51.6602 413.571 51.9882C413.459 52.3162 413.335 52.6402 413.199 52.9602C413.071 53.2882 412.943 53.5962 412.815 53.8842H412.035C412.115 53.5802 412.191 53.2522 412.263 52.9002C412.343 52.5562 412.415 52.2162 412.479 51.8802C412.543 51.5362 412.595 51.2242 412.635 50.9442H413.763L413.847 51.0762ZM419.039 42.9282H426.023V43.7322H419.039V42.9282ZM425.375 42.9282H426.347V43.7682C426.347 44.6682 426.347 45.7362 426.035 47.1642L425.051 47.0562C425.375 45.6522 425.375 44.6562 425.375 43.7682V42.9282ZM425.651 44.7642V45.4722L418.895 45.7722L418.763 44.9802L425.651 44.7642ZM417.791 46.8642H427.583V47.6562H417.791V46.8642ZM418.931 48.6882H426.431V51.2202H419.939V52.6842H418.955V50.4762H425.447V49.4562H418.931V48.6882ZM418.955 52.3482H426.803V53.1282H418.955V52.3482ZM436.174 42.4122H437.17V53.2842H436.174V42.4122ZM436.93 46.7322H438.946V47.5722H436.93V46.7322ZM429.262 49.8402H430.126C432.166 49.8402 433.582 49.7682 435.226 49.4562L435.334 50.2842C433.642 50.5842 432.202 50.6682 430.126 50.6682H429.262V49.8402ZM429.238 43.4322H434.146V47.3202H430.246V50.1762H429.262V46.5042H433.162V44.2482H429.238V43.4322ZM447.742 42.4122H448.738V53.2842H447.742V42.4122ZM443.014 43.2522C444.622 43.2522 445.774 44.7282 445.774 47.0322C445.774 49.3482 444.622 50.8242 443.014 50.8242C441.418 50.8242 440.266 49.3482 440.266 47.0322C440.266 44.7282 441.418 43.2522 443.014 43.2522ZM443.014 44.1522C441.958 44.1522 441.214 45.2802 441.214 47.0322C441.214 48.7962 441.958 49.9482 443.014 49.9482C444.082 49.9482 444.814 48.7962 444.814 47.0322C444.814 45.2802 444.082 44.1522 443.014 44.1522ZM456.309 45.4362H459.285V46.2402H456.309V45.4362ZM458.829 42.4362H459.825V50.4162H458.829V42.4362ZM452.901 52.2162H460.125V53.0322H452.901V52.2162ZM452.901 49.6122H453.897V52.5642H452.901V49.6122ZM453.861 43.1202C455.457 43.1202 456.657 44.2362 456.657 45.8082C456.657 47.3802 455.457 48.4962 453.861 48.4962C452.265 48.4962 451.065 47.3802 451.065 45.8082C451.065 44.2362 452.265 43.1202 453.861 43.1202ZM453.861 43.9962C452.805 43.9962 452.025 44.7402 452.025 45.8082C452.025 46.8762 452.805 47.6202 453.861 47.6202C454.905 47.6202 455.697 46.8762 455.697 45.8082C455.697 44.7402 454.905 43.9962 453.861 43.9962ZM463.208 48.2682H470.66V49.0722H463.208V48.2682ZM461.948 51.0522H471.776V51.8802H461.948V51.0522ZM463.208 43.3482H470.54V44.1642H464.216V48.5202H463.208V43.3482ZM463.892 45.7722H470.312V46.5642H463.892V45.7722ZM477.379 46.6362H479.431V47.4642H477.379V46.6362ZM481.243 42.4242H482.203V53.2722H481.243V42.4242ZM479.095 42.6522H480.043V52.7322H479.095V42.6522ZM475.423 43.3242C476.827 43.3242 477.739 44.7762 477.739 47.1042C477.739 49.4322 476.827 50.8842 475.423 50.8842C474.019 50.8842 473.119 49.4322 473.119 47.1042C473.119 44.7762 474.019 43.3242 475.423 43.3242ZM475.423 44.2482C474.571 44.2482 474.031 45.3522 474.031 47.1042C474.031 48.8562 474.571 49.9602 475.423 49.9602C476.287 49.9602 476.827 48.8562 476.827 47.1042C476.827 45.3522 476.287 44.2482 475.423 44.2482ZM489.438 46.0962H492.462V46.9122H489.438V46.0962ZM486.822 43.3602H487.638V45.2922C487.638 47.7282 486.354 50.0562 484.638 50.9802L484.002 50.1882C485.598 49.3962 486.822 47.3082 486.822 45.2922V43.3602ZM487.014 43.3602H487.818V45.2922C487.818 47.2722 489.042 49.2402 490.614 49.9842L490.026 50.7882C488.274 49.9002 487.014 47.6682 487.014 45.2922V43.3602ZM491.97 42.4122H492.954V53.2842H491.97V42.4122ZM150.918 58.4242H151.926V64.0402H150.918V58.4242ZM144.846 64.5682H151.926V67.1842H145.854V68.8162H144.882V66.4402H150.93V65.3602H144.846V64.5682ZM144.882 68.3602H152.322V69.1522H144.882V68.3602ZM143.502 59.1562H149.322V59.9482H143.502V59.1562ZM143.31 63.6802L143.202 62.8522C145.134 62.8522 147.726 62.8042 149.838 62.5402L149.898 63.2722C147.738 63.5962 145.218 63.6682 143.31 63.6802ZM144.57 59.5162H145.53V63.2122H144.57V59.5162ZM147.282 59.5162H148.254V63.2122H147.282V59.5162ZM156.461 64.0042H157.445V67.2562H156.461V64.0042ZM160.469 64.0042H161.465V67.2562H160.469V64.0042ZM154.061 67.0642H163.889V67.8922H154.061V67.0642ZM158.957 59.1082C161.249 59.1082 162.893 60.2002 162.893 61.9042C162.893 63.5962 161.249 64.6882 158.957 64.6882C156.653 64.6882 155.009 63.5962 155.009 61.9042C155.009 60.2002 156.653 59.1082 158.957 59.1082ZM158.957 59.9002C157.217 59.9002 155.969 60.6922 155.969 61.9042C155.969 63.1042 157.217 63.8962 158.957 63.8962C160.697 63.8962 161.933 63.1042 161.933 61.9042C161.933 60.6922 160.697 59.9002 158.957 59.9002ZM172.516 58.4362H173.512V66.5722H172.516V58.4362ZM173.2 61.9882H175.12V62.8282H173.2V61.9882ZM165.124 59.7442H171.532V60.5482H165.124V59.7442ZM168.328 61.1482C169.864 61.1482 170.92 61.9522 170.92 63.1762C170.92 64.3882 169.864 65.1922 168.328 65.1922C166.78 65.1922 165.724 64.3882 165.724 63.1762C165.724 61.9522 166.78 61.1482 168.328 61.1482ZM168.328 61.9282C167.344 61.9282 166.672 62.4202 166.672 63.1762C166.672 63.9202 167.344 64.4122 168.328 64.4122C169.3 64.4122 169.972 63.9202 169.972 63.1762C169.972 62.4202 169.3 61.9282 168.328 61.9282ZM167.824 58.4242H168.82V60.1642H167.824V58.4242ZM166.756 68.2162H174.004V69.0322H166.756V68.2162ZM166.756 65.9242H167.752V68.5642H166.756V65.9242ZM184.361 61.2322H186.809V62.0602H184.361V61.2322ZM186.497 58.4242H187.493V64.8922H186.497V58.4242ZM183.929 65.2162C186.161 65.2162 187.541 65.9722 187.541 67.2442C187.541 68.5282 186.161 69.2602 183.929 69.2602C181.685 69.2602 180.305 68.5282 180.305 67.2442C180.305 65.9722 181.685 65.2162 183.929 65.2162ZM183.929 65.9962C182.297 65.9962 181.301 66.4522 181.301 67.2442C181.301 68.0242 182.297 68.4802 183.929 68.4802C185.561 68.4802 186.557 68.0242 186.557 67.2442C186.557 66.4522 185.561 65.9962 183.929 65.9962ZM181.337 59.5162H182.153V60.3922C182.153 62.3962 180.929 64.1122 179.129 64.7842L178.613 63.9922C180.221 63.4042 181.337 61.9522 181.337 60.3922V59.5162ZM181.529 59.5162H182.333V60.3922C182.333 61.7962 183.389 63.1402 184.961 63.6922L184.457 64.4842C182.693 63.8482 181.529 62.2162 181.529 60.3922V59.5162ZM178.913 59.2162H184.709V60.0322H178.913V59.2162ZM189.616 67.0642H199.444V67.8922H189.616V67.0642ZM194.008 64.4722H195.004V67.3042H194.008V64.4722ZM190.768 59.1922H191.752V61.1242H197.284V59.1922H198.268V64.7362H190.768V59.1922ZM191.752 61.9282V63.9202H197.284V61.9282H191.752ZM201.975 61.6762H209.343V62.4922H201.975V61.6762ZM200.643 63.9442H210.483V64.7602H200.643V63.9442ZM201.975 58.8202H202.959V62.0842H201.975V58.8202ZM201.903 68.1922H209.403V69.0082H201.903V68.1922ZM201.903 65.8402H202.887V68.4082H201.903V65.8402ZM213.795 71.2162C213.595 71.2162 213.419 71.2002 213.267 71.1682C213.115 71.1442 212.983 71.1122 212.871 71.0722V70.2202C212.991 70.2522 213.115 70.2802 213.243 70.3042C213.371 70.3282 213.511 70.3402 213.663 70.3402C213.919 70.3402 214.131 70.2682 214.299 70.1242C214.467 69.9882 214.551 69.7242 214.551 69.3322V61.9042H215.607V69.2962C215.607 69.6962 215.543 70.0402 215.415 70.3282C215.287 70.6162 215.091 70.8362 214.827 70.9882C214.563 71.1402 214.219 71.2162 213.795 71.2162ZM214.467 60.1642C214.467 59.9322 214.527 59.7642 214.647 59.6602C214.767 59.5482 214.915 59.4922 215.091 59.4922C215.251 59.4922 215.391 59.5482 215.511 59.6602C215.639 59.7642 215.703 59.9322 215.703 60.1642C215.703 60.3882 215.639 60.5562 215.511 60.6682C215.391 60.7802 215.251 60.8362 215.091 60.8362C214.915 60.8362 214.767 60.7802 214.647 60.6682C214.527 60.5562 214.467 60.3882 214.467 60.1642ZM221.833 66.5602C221.833 66.9762 221.729 67.3242 221.521 67.6042C221.313 67.8842 221.017 68.0962 220.633 68.2402C220.249 68.3842 219.793 68.4562 219.265 68.4562C218.817 68.4562 218.429 68.4202 218.101 68.3482C217.781 68.2762 217.497 68.1762 217.249 68.0482V67.0882C217.505 67.2162 217.813 67.3362 218.173 67.4482C218.541 67.5522 218.913 67.6042 219.289 67.6042C219.825 67.6042 220.213 67.5202 220.453 67.3522C220.693 67.1762 220.813 66.9442 220.813 66.6562C220.813 66.4962 220.769 66.3522 220.681 66.2242C220.593 66.0962 220.433 65.9682 220.201 65.8402C219.977 65.7122 219.653 65.5682 219.229 65.4082C218.813 65.2482 218.457 65.0882 218.161 64.9282C217.865 64.7682 217.637 64.5762 217.477 64.3522C217.317 64.1282 217.237 63.8402 217.237 63.4882C217.237 62.9442 217.457 62.5242 217.897 62.2282C218.345 61.9322 218.929 61.7842 219.649 61.7842C220.041 61.7842 220.405 61.8242 220.741 61.9042C221.085 61.9762 221.405 62.0802 221.701 62.2162L221.341 63.0562C221.165 62.9762 220.977 62.9082 220.777 62.8522C220.585 62.7882 220.389 62.7402 220.189 62.7082C219.989 62.6682 219.785 62.6482 219.577 62.6482C219.145 62.6482 218.813 62.7202 218.581 62.8642C218.357 63.0002 218.245 63.1882 218.245 63.4282C218.245 63.6042 218.297 63.7562 218.401 63.8842C218.505 64.0042 218.677 64.1242 218.917 64.2442C219.165 64.3562 219.493 64.4922 219.901 64.6522C220.309 64.8042 220.657 64.9602 220.945 65.1202C221.233 65.2802 221.453 65.4762 221.605 65.7082C221.757 65.9322 221.833 66.2162 221.833 66.5602ZM225.823 61.7962C226.607 61.7962 227.187 61.9682 227.563 62.3122C227.939 62.6562 228.127 63.2042 228.127 63.9562V68.3362H227.359L227.155 67.4242H227.107C226.923 67.6562 226.731 67.8522 226.531 68.0122C226.339 68.1642 226.115 68.2762 225.859 68.3482C225.611 68.4202 225.307 68.4562 224.947 68.4562C224.563 68.4562 224.215 68.3882 223.903 68.2522C223.599 68.1162 223.359 67.9082 223.183 67.6282C223.007 67.3402 222.919 66.9802 222.919 66.5482C222.919 65.9082 223.171 65.4162 223.675 65.0722C224.179 64.7202 224.955 64.5282 226.003 64.4962L227.095 64.4602V64.0762C227.095 63.5402 226.979 63.1682 226.747 62.9602C226.515 62.7522 226.187 62.6482 225.763 62.6482C225.427 62.6482 225.107 62.7002 224.803 62.8042C224.499 62.9002 224.215 63.0122 223.951 63.1402L223.627 62.3482C223.907 62.1962 224.239 62.0682 224.623 61.9642C225.007 61.8522 225.407 61.7962 225.823 61.7962ZM226.135 65.2282C225.335 65.2602 224.779 65.3882 224.467 65.6122C224.163 65.8362 224.011 66.1522 224.011 66.5602C224.011 66.9202 224.119 67.1842 224.335 67.3522C224.559 67.5202 224.843 67.6042 225.187 67.6042C225.731 67.6042 226.183 67.4562 226.543 67.1602C226.903 66.8562 227.083 66.3922 227.083 65.7682V65.1922L226.135 65.2282ZM233.174 61.7842C233.966 61.7842 234.602 62.0602 235.082 62.6122C235.57 63.1642 235.814 63.9962 235.814 65.1082C235.814 65.8362 235.702 66.4522 235.478 66.9562C235.262 67.4522 234.954 67.8282 234.554 68.0842C234.162 68.3322 233.698 68.4562 233.162 68.4562C232.834 68.4562 232.542 68.4122 232.286 68.3242C232.03 68.2362 231.81 68.1242 231.626 67.9882C231.45 67.8442 231.298 67.6882 231.17 67.5202H231.098C231.114 67.6562 231.13 67.8282 231.146 68.0362C231.162 68.2442 231.17 68.4242 231.17 68.5762V71.2162H230.114V61.9042H230.978L231.122 62.7802H231.17C231.298 62.5962 231.45 62.4282 231.626 62.2762C231.81 62.1242 232.026 62.0042 232.274 61.9162C232.53 61.8282 232.83 61.7842 233.174 61.7842ZM232.982 62.6722C232.55 62.6722 232.202 62.7562 231.938 62.9242C231.674 63.0842 231.482 63.3282 231.362 63.6562C231.242 63.9842 231.178 64.4002 231.17 64.9042V65.1082C231.17 65.6362 231.226 66.0842 231.338 66.4522C231.45 66.8202 231.638 67.1002 231.902 67.2922C232.174 67.4842 232.542 67.5802 233.006 67.5802C233.398 67.5802 233.718 67.4722 233.966 67.2562C234.222 67.0402 234.41 66.7482 234.53 66.3802C234.658 66.0042 234.722 65.5762 234.722 65.0962C234.722 64.3602 234.578 63.7722 234.29 63.3322C234.01 62.8922 233.574 62.6722 232.982 62.6722ZM238.553 61.9042V68.3362H237.497V61.9042H238.553ZM238.037 59.4922C238.197 59.4922 238.337 59.5482 238.457 59.6602C238.585 59.7642 238.649 59.9322 238.649 60.1642C238.649 60.3882 238.585 60.5562 238.457 60.6682C238.337 60.7802 238.197 60.8362 238.037 60.8362C237.861 60.8362 237.713 60.7802 237.593 60.6682C237.473 60.5562 237.413 60.3882 237.413 60.1642C237.413 59.9322 237.473 59.7642 237.593 59.6602C237.713 59.5482 237.861 59.4922 238.037 59.4922ZM240.158 63.4642H249.998V64.2202H240.158V63.4642ZM241.322 65.0962H248.762V67.4122H242.342V68.6842H241.358V66.7282H247.79V65.8042H241.322V65.0962ZM241.358 68.4202H249.11V69.1402H241.358V68.4202ZM241.406 58.7362H248.726V60.9922H242.414V62.1682H241.43V60.3202H247.754V59.4442H241.406V58.7362ZM241.43 61.9282H248.93V62.6482H241.43V61.9282ZM261.051 58.4242H262.047V64.8202H261.051V58.4242ZM261.627 61.1962H263.631V62.0242H261.627V61.1962ZM255.027 65.3122H262.047V67.5082H256.023V68.6602H255.051V66.8482H261.075V66.0202H255.027V65.3122ZM255.051 68.4442H262.467V69.1522H255.051V68.4442ZM256.479 62.8762H257.475V64.2562H256.479V62.8762ZM253.695 64.5802L253.575 63.8482C255.507 63.8482 258.171 63.8362 260.403 63.5242L260.487 64.1602C258.171 64.5682 255.591 64.5802 253.695 64.5802ZM253.851 59.2522H260.079V59.9602H253.851V59.2522ZM256.971 60.2962C258.507 60.2962 259.491 60.8242 259.491 61.7242C259.491 62.6242 258.507 63.1522 256.971 63.1522C255.423 63.1522 254.439 62.6242 254.439 61.7242C254.439 60.8242 255.423 60.2962 256.971 60.2962ZM256.971 60.9562C255.999 60.9562 255.375 61.2442 255.375 61.7242C255.375 62.2042 255.999 62.5042 256.971 62.5042C257.943 62.5042 258.555 62.2042 258.555 61.7242C258.555 61.2442 257.943 60.9562 256.971 60.9562ZM256.479 58.3162H257.475V59.6242H256.479V58.3162ZM267.098 62.0962H268.082V64.1482H267.098V62.0962ZM271.082 62.0962H272.066V64.1482H271.082V62.0962ZM264.674 63.7882H274.478V64.5922H264.674V63.7882ZM269.57 65.4082C271.898 65.4082 273.29 66.0922 273.29 67.3282C273.29 68.5642 271.898 69.2602 269.57 69.2602C267.242 69.2602 265.85 68.5642 265.85 67.3282C265.85 66.0922 267.242 65.4082 269.57 65.4082ZM269.57 66.1762C267.878 66.1762 266.858 66.5962 266.858 67.3282C266.858 68.0722 267.878 68.4802 269.57 68.4802C271.274 68.4802 272.282 68.0722 272.282 67.3282C272.282 66.5962 271.274 66.1762 269.57 66.1762ZM269.582 58.6162C271.934 58.6162 273.398 59.3722 273.398 60.6442C273.398 61.9042 271.934 62.6482 269.582 62.6482C267.218 62.6482 265.766 61.9042 265.766 60.6442C265.766 59.3722 267.218 58.6162 269.582 58.6162ZM269.582 59.3962C267.854 59.3962 266.786 59.8522 266.786 60.6442C266.786 61.4242 267.854 61.8802 269.582 61.8802C271.31 61.8802 272.378 61.4242 272.378 60.6442C272.378 59.8522 271.31 59.3962 269.582 59.3962ZM283.069 58.4242H284.065V69.2722H283.069V58.4242ZM283.825 62.8762H285.841V63.7162H283.825V62.8762ZM275.665 60.1522H282.061V60.9682H275.665V60.1522ZM278.905 61.8682C280.441 61.8682 281.545 62.9002 281.545 64.3642C281.545 65.8282 280.441 66.8602 278.905 66.8602C277.381 66.8602 276.265 65.8282 276.265 64.3642C276.265 62.9002 277.381 61.8682 278.905 61.8682ZM278.905 62.6962C277.921 62.6962 277.213 63.3802 277.213 64.3642C277.213 65.3362 277.921 66.0322 278.905 66.0322C279.889 66.0322 280.597 65.3362 280.597 64.3642C280.597 63.3802 279.889 62.6962 278.905 62.6962ZM278.389 58.5562H279.385V60.5242H278.389V58.5562ZM291.648 60.8362H294.924V61.6642H291.648V60.8362ZM291.648 64.2682H294.924V65.0962H291.648V64.2682ZM289.656 59.2522C291.228 59.2522 292.356 60.7282 292.356 63.0322C292.356 65.3482 291.228 66.8242 289.656 66.8242C288.072 66.8242 286.956 65.3482 286.956 63.0322C286.956 60.7282 288.072 59.2522 289.656 59.2522ZM289.656 60.1522C288.612 60.1522 287.892 61.2802 287.892 63.0322C287.892 64.7962 288.612 65.9482 289.656 65.9482C290.7 65.9482 291.42 64.7962 291.42 63.0322C291.42 61.2802 290.7 60.1522 289.656 60.1522ZM294.708 58.4122H295.692V69.2842H294.708V58.4122ZM302.893 59.3602H303.709V61.3042C303.709 63.7042 302.413 66.0442 300.697 66.9562L300.085 66.1642C301.657 65.3722 302.893 63.2842 302.893 61.3042V59.3602ZM303.073 59.3602H303.877V61.3042C303.877 63.2122 305.089 65.1922 306.625 65.9602L306.013 66.7522C304.333 65.8522 303.073 63.6322 303.073 61.3042V59.3602ZM307.573 58.4242H308.581V69.2722H307.573V58.4242ZM308.341 62.8162H310.357V63.6562H308.341V62.8162ZM313.692 62.0962H314.676V64.1482H313.692V62.0962ZM317.676 62.0962H318.66V64.1482H317.676V62.0962ZM311.268 63.7882H321.072V64.5922H311.268V63.7882ZM316.164 65.4082C318.492 65.4082 319.884 66.0922 319.884 67.3282C319.884 68.5642 318.492 69.2602 316.164 69.2602C313.836 69.2602 312.444 68.5642 312.444 67.3282C312.444 66.0922 313.836 65.4082 316.164 65.4082ZM316.164 66.1762C314.472 66.1762 313.452 66.5962 313.452 67.3282C313.452 68.0722 314.472 68.4802 316.164 68.4802C317.868 68.4802 318.876 68.0722 318.876 67.3282C318.876 66.5962 317.868 66.1762 316.164 66.1762ZM316.176 58.6162C318.528 58.6162 319.992 59.3722 319.992 60.6442C319.992 61.9042 318.528 62.6482 316.176 62.6482C313.812 62.6482 312.36 61.9042 312.36 60.6442C312.36 59.3722 313.812 58.6162 316.176 58.6162ZM316.176 59.3962C314.448 59.3962 313.38 59.8522 313.38 60.6442C313.38 61.4242 314.448 61.8802 316.176 61.8802C317.904 61.8802 318.972 61.4242 318.972 60.6442C318.972 59.8522 317.904 59.3962 316.176 59.3962ZM324.995 59.9722H325.787V61.7362C325.787 63.9922 324.407 66.3202 322.715 67.1842L322.139 66.3922C323.687 65.6362 324.995 63.5722 324.995 61.7362V59.9722ZM325.175 59.9722H325.967V61.7362C325.967 63.4522 327.191 65.3842 328.763 66.1282L328.199 66.9202C326.483 66.0682 325.175 63.8842 325.175 61.7362V59.9722ZM322.523 59.5282H328.367V60.3682H322.523V59.5282ZM329.651 58.4242H330.659V69.2722H329.651V58.4242ZM330.419 62.8042H332.435V63.6442H330.419V62.8042ZM337.75 62.6362H339.802V63.4642H337.75V62.6362ZM341.614 58.4242H342.574V69.2722H341.614V58.4242ZM339.466 58.6522H340.414V68.7322H339.466V58.6522ZM335.794 59.3242C337.198 59.3242 338.11 60.7762 338.11 63.1042C338.11 65.4322 337.198 66.8842 335.794 66.8842C334.39 66.8842 333.49 65.4322 333.49 63.1042C333.49 60.7762 334.39 59.3242 335.794 59.3242ZM335.794 60.2482C334.942 60.2482 334.402 61.3522 334.402 63.1042C334.402 64.8562 334.942 65.9602 335.794 65.9602C336.658 65.9602 337.198 64.8562 337.198 63.1042C337.198 61.3522 336.658 60.2482 335.794 60.2482ZM352.653 58.4242H353.613V69.2722H352.653V58.4242ZM347.949 62.8522H350.685V63.6562H347.949V62.8522ZM350.397 58.7002H351.333V68.7202H350.397V58.7002ZM348.081 59.7922H349.041C349.041 62.6362 347.901 65.1922 344.973 66.9322L344.385 66.2242C346.941 64.6882 348.081 62.5282 348.081 59.9722V59.7922ZM344.865 59.7922H348.453V60.6082H344.865V59.7922ZM365.793 58.4242H366.789V66.5002H365.793V58.4242ZM358.185 59.3002H363.897V60.1162H358.185V59.3002ZM358.005 64.8682L357.897 64.0162C359.673 64.0162 362.205 63.9922 364.233 63.7522L364.293 64.4962C362.205 64.8322 359.769 64.8682 358.005 64.8682ZM359.265 59.9962H360.225V64.1602H359.265V59.9962ZM361.857 59.9962H362.817V64.1602H361.857V59.9962ZM363.993 60.4762H366.321V61.2922H363.993V60.4762ZM363.993 62.5522H366.321V63.3682H363.993V62.5522ZM359.853 68.2162H367.077V69.0322H359.853V68.2162ZM359.853 65.8402H360.849V68.7322H359.853V65.8402ZM376.809 58.4122H377.805V69.2842H376.809V58.4122ZM369.537 65.8402H370.437C372.249 65.8402 373.869 65.7682 375.789 65.4562L375.897 66.2722C373.929 66.5962 372.297 66.6682 370.437 66.6682H369.537V65.8402ZM369.513 59.4322H374.529V63.3082H370.533V66.1522H369.537V62.4922H373.521V60.2482H369.513V59.4322ZM387.368 58.4362H388.364V66.5722H387.368V58.4362ZM388.052 61.9882H389.972V62.8282H388.052V61.9882ZM379.976 59.7442H386.384V60.5482H379.976V59.7442ZM383.18 61.1482C384.716 61.1482 385.772 61.9522 385.772 63.1762C385.772 64.3882 384.716 65.1922 383.18 65.1922C381.632 65.1922 380.576 64.3882 380.576 63.1762C380.576 61.9522 381.632 61.1482 383.18 61.1482ZM383.18 61.9282C382.196 61.9282 381.524 62.4202 381.524 63.1762C381.524 63.9202 382.196 64.4122 383.18 64.4122C384.152 64.4122 384.824 63.9202 384.824 63.1762C384.824 62.4202 384.152 61.9282 383.18 61.9282ZM382.676 58.4242H383.672V60.1642H382.676V58.4242ZM381.608 68.2162H388.856V69.0322H381.608V68.2162ZM381.608 65.9242H382.604V68.5642H381.608V65.9242ZM398.612 60.4162H401.516V61.2322H398.612V60.4162ZM398.516 62.6722H401.444V63.4882H398.516V62.6722ZM401.348 58.4242H402.344V64.9282H401.348V58.4242ZM397.952 59.2402H399.02C399.02 62.0362 397.088 63.9922 393.968 64.9282L393.56 64.1242C396.332 63.3202 397.952 61.7242 397.952 59.6722V59.2402ZM394.124 59.2402H398.636V60.0562H394.124V59.2402ZM398.816 65.0482C401.012 65.0482 402.404 65.8282 402.404 67.1362C402.404 68.4442 401.012 69.2242 398.816 69.2242C396.62 69.2242 395.228 68.4442 395.228 67.1362C395.228 65.8282 396.62 65.0482 398.816 65.0482ZM398.816 65.8282C397.232 65.8282 396.212 66.3202 396.212 67.1362C396.212 67.9522 397.232 68.4322 398.816 68.4322C400.412 68.4322 401.432 67.9522 401.432 67.1362C401.432 66.3202 400.412 65.8282 398.816 65.8282ZM412.387 58.4242H413.383V64.9882H412.387V58.4242ZM410.587 61.7122H412.831V62.5402H410.587V61.7122ZM406.351 65.5642H413.383V69.1282H406.351V65.5642ZM412.411 66.3682H407.323V68.3242H412.411V66.3682ZM404.479 59.5522H410.755V60.3562H404.479V59.5522ZM407.611 60.9082C409.075 60.9082 410.119 61.7002 410.119 62.8522C410.119 64.0042 409.075 64.7722 407.611 64.7722C406.147 64.7722 405.103 64.0042 405.103 62.8522C405.103 61.7002 406.147 60.9082 407.611 60.9082ZM407.611 61.6762C406.699 61.6762 406.051 62.1442 406.051 62.8522C406.051 63.5482 406.699 64.0162 407.611 64.0162C408.523 64.0162 409.171 63.5482 409.171 62.8522C409.171 62.1442 408.523 61.6762 407.611 61.6762ZM407.119 58.3162H408.115V60.1282H407.119V58.3162ZM420.402 58.6042C422.79 58.6042 424.218 59.2762 424.218 60.4882C424.218 61.7002 422.79 62.3722 420.402 62.3722C418.002 62.3722 416.586 61.7002 416.586 60.4882C416.586 59.2762 418.002 58.6042 420.402 58.6042ZM420.402 59.3602C418.626 59.3602 417.606 59.7682 417.606 60.4882C417.606 61.2082 418.626 61.6162 420.402 61.6162C422.166 61.6162 423.186 61.2082 423.186 60.4882C423.186 59.7682 422.166 59.3602 420.402 59.3602ZM415.494 63.0922H425.298V63.8962H415.494V63.0922ZM416.682 64.8202H424.05V67.2682H417.69V68.5882H416.706V66.5482H423.066V65.5882H416.682V64.8202ZM416.706 68.3722H424.374V69.1522H416.706V68.3722ZM437.227 58.4242H438.187V69.2722H437.227V58.4242ZM433.279 62.3122H435.355V63.1402H433.279V62.3122ZM435.055 58.6762H435.991V68.7202H435.055V58.6762ZM431.191 60.1042H431.959V61.4842C431.959 63.8602 431.047 66.1042 429.451 67.1122L428.839 66.3682C430.351 65.4562 431.191 63.4762 431.191 61.4842V60.1042ZM431.395 60.1042H432.163V61.4842C432.163 63.3682 432.979 65.2522 434.467 66.1162L433.855 66.8482C432.271 65.8882 431.395 63.7522 431.395 61.4842V60.1042ZM429.139 59.6842H434.095V60.5122H429.139V59.6842ZM444.882 65.2642C447.186 65.2642 448.662 66.0202 448.662 67.2682C448.662 68.5042 447.186 69.2482 444.882 69.2482C442.566 69.2482 441.102 68.5042 441.102 67.2682C441.102 66.0202 442.566 65.2642 444.882 65.2642ZM444.882 66.0442C443.178 66.0442 442.086 66.5122 442.086 67.2682C442.086 68.0122 443.178 68.4802 444.882 68.4802C446.586 68.4802 447.666 68.0122 447.666 67.2682C447.666 66.5122 446.586 66.0442 444.882 66.0442ZM441.186 58.9642H448.17V59.7802H441.186V58.9642ZM440.022 63.4762H449.814V64.2802H440.022V63.4762ZM444.042 61.3882H445.026V63.7042H444.042V61.3882ZM447.594 58.9642H448.566V59.8882C448.566 60.7642 448.566 61.6402 448.278 62.7682L447.294 62.6482C447.594 61.5322 447.594 60.7402 447.594 59.8882V58.9642ZM458.477 58.4242H459.473V64.7242H458.477V58.4242ZM459.041 61.1842H461.081V62.0242H459.041V61.1842ZM452.657 65.2042H453.629V66.3562H458.489V65.2042H459.473V69.1282H452.657V65.2042ZM453.629 67.1242V68.3242H458.489V67.1242H453.629ZM451.085 59.5282H457.493V60.3442H451.085V59.5282ZM454.289 60.8362C455.837 60.8362 456.881 61.5922 456.881 62.7442C456.881 63.8962 455.837 64.6522 454.289 64.6522C452.729 64.6522 451.685 63.8962 451.685 62.7442C451.685 61.5922 452.729 60.8362 454.289 60.8362ZM454.289 61.5922C453.293 61.5922 452.633 62.0482 452.633 62.7442C452.633 63.4402 453.293 63.8962 454.289 63.8962C455.261 63.8962 455.933 63.4402 455.933 62.7442C455.933 62.0482 455.261 61.5922 454.289 61.5922ZM453.785 58.3162H454.781V59.9722H453.785V58.3162ZM469.984 58.4242H470.98V69.2722H469.984V58.4242ZM462.784 59.4802H463.768V66.2002H462.784V59.4802ZM462.784 65.6122H463.672C465.316 65.6122 467.032 65.4922 468.868 65.1082L468.988 65.9602C467.104 66.3442 465.388 66.4762 463.672 66.4762H462.784V65.6122ZM480.471 58.4122H481.479V69.2842H480.471V58.4122ZM481.239 62.6962H483.255V63.5362H481.239V62.6962ZM473.595 65.7442H474.447C476.451 65.7442 477.855 65.6722 479.475 65.3722L479.583 66.2122C477.915 66.5242 476.487 66.5842 474.447 66.5842H473.595V65.7442ZM473.595 59.4682H478.635V60.2842H474.579V66.1162H473.595V59.4682ZM485.078 68.2191C484.891 68.2191 484.732 68.1546 484.604 68.0257C484.475 67.8968 484.41 67.7386 484.41 67.5511C484.41 67.3636 484.475 67.2054 484.604 67.0765C484.732 66.9476 484.891 66.8831 485.078 66.8831C485.266 66.8831 485.424 66.9476 485.553 67.0765C485.682 67.2054 485.746 67.3636 485.746 67.5511C485.746 67.7386 485.682 67.8968 485.553 68.0257C485.424 68.1546 485.266 68.2191 485.078 68.2191ZM132.235 91.4442H133.015V93.5082C133.015 95.7762 132.055 97.9722 130.471 98.9322L129.835 98.1882C131.335 97.3122 132.235 95.3682 132.235 93.5082V91.4442ZM132.415 91.4442H133.195V93.4482C133.195 95.2362 134.035 97.0722 135.475 97.8762L134.875 98.6562C133.291 97.7442 132.415 95.6322 132.415 93.4482V91.4442ZM138.223 90.4242H139.183V101.272H138.223V90.4242ZM136.507 94.7802H138.583V95.6082H136.507V94.7802ZM135.835 90.6522H136.783V100.732H135.835V90.6522ZM141.006 99.1122H150.834V99.9402H141.006V99.1122ZM145.398 96.7842H146.394V99.4602H145.398V96.7842ZM142.194 91.2282H149.622V94.5162H143.214V96.6882H142.23V93.7122H148.638V92.0322H142.194V91.2282ZM142.23 96.2682H149.874V97.0842H142.23V96.2682ZM152.033 95.9202H161.873V96.7362H152.033V95.9202ZM156.521 96.4362H157.529V98.9322H156.521V96.4362ZM153.281 100.204H160.781V101.032H153.281V100.204ZM153.281 97.8642H154.277V100.432H153.281V97.8642ZM156.941 90.6882C159.233 90.6882 160.745 91.5282 160.745 92.8722C160.745 94.2162 159.233 95.0562 156.941 95.0562C154.637 95.0562 153.137 94.2162 153.137 92.8722C153.137 91.5282 154.637 90.6882 156.941 90.6882ZM156.941 91.5042C155.285 91.5042 154.193 92.0322 154.193 92.8722C154.193 93.7242 155.285 94.2402 156.941 94.2402C158.597 94.2402 159.689 93.7242 159.689 92.8722C159.689 92.0322 158.597 91.5042 156.941 91.5042ZM172.926 90.4242H173.922V98.9202H172.926V90.4242ZM173.502 94.2042H175.506V95.0322H173.502V94.2042ZM167.058 100.216H174.306V101.032H167.058V100.216ZM167.058 98.3562H168.054V100.468H167.058V98.3562ZM168.354 95.7282H169.35V97.2042H168.354V95.7282ZM165.582 97.6722L165.45 96.8682C167.37 96.8682 170.046 96.8322 172.278 96.4842L172.362 97.1922C170.07 97.6122 167.466 97.6602 165.582 97.6722ZM165.726 91.4802H171.954V92.2362H165.726V91.4802ZM168.846 92.6802C170.37 92.6802 171.366 93.3162 171.366 94.3482C171.366 95.3922 170.37 96.0282 168.846 96.0282C167.322 96.0282 166.314 95.3922 166.314 94.3482C166.314 93.3162 167.322 92.6802 168.846 92.6802ZM168.846 93.3882C167.874 93.3882 167.25 93.7602 167.25 94.3482C167.25 94.9482 167.874 95.3082 168.846 95.3082C169.806 95.3082 170.43 94.9482 170.43 94.3482C170.43 93.7602 169.806 93.3882 168.846 93.3882ZM168.354 90.3762H169.35V91.8162H168.354V90.3762ZM181.745 92.4162H184.649V93.2322H181.745V92.4162ZM181.649 94.6722H184.577V95.4882H181.649V94.6722ZM184.481 90.4242H185.477V96.9282H184.481V90.4242ZM181.085 91.2402H182.153C182.153 94.0362 180.221 95.9922 177.101 96.9282L176.693 96.1242C179.465 95.3202 181.085 93.7242 181.085 91.6722V91.2402ZM177.257 91.2402H181.769V92.0562H177.257V91.2402ZM181.949 97.0482C184.145 97.0482 185.537 97.8282 185.537 99.1362C185.537 100.444 184.145 101.224 181.949 101.224C179.753 101.224 178.361 100.444 178.361 99.1362C178.361 97.8282 179.753 97.0482 181.949 97.0482ZM181.949 97.8282C180.365 97.8282 179.345 98.3202 179.345 99.1362C179.345 99.9522 180.365 100.432 181.949 100.432C183.545 100.432 184.565 99.9522 184.565 99.1362C184.565 98.3202 183.545 97.8282 181.949 97.8282ZM191.992 94.6362H194.044V95.4642H191.992V94.6362ZM195.856 90.4242H196.816V101.272H195.856V90.4242ZM193.708 90.6522H194.656V100.732H193.708V90.6522ZM190.036 91.3242C191.44 91.3242 192.352 92.7762 192.352 95.1042C192.352 97.4322 191.44 98.8842 190.036 98.8842C188.632 98.8842 187.732 97.4322 187.732 95.1042C187.732 92.7762 188.632 91.3242 190.036 91.3242ZM190.036 92.2482C189.184 92.2482 188.644 93.3522 188.644 95.1042C188.644 96.8562 189.184 97.9602 190.036 97.9602C190.9 97.9602 191.44 96.8562 191.44 95.1042C191.44 93.3522 190.9 92.2482 190.036 92.2482ZM208.721 90.4242H209.705V101.272H208.721V90.4242ZM209.141 94.6602H211.145V95.4882H209.141V94.6602ZM201.269 91.4322H202.121V94.2162H203.441V91.4322H204.269V98.6442H201.269V91.4322ZM202.121 95.0082V97.8282H203.441V95.0082H202.121ZM204.845 91.4322H205.685V94.2162H206.969V91.4322H207.809V98.6442H204.845V91.4322ZM205.685 95.0082V97.8282H206.969V95.0082H205.685ZM212.116 99.0762H221.944V99.9162H212.116V99.0762ZM213.304 91.2522H220.732V94.5402H214.324V96.7122H213.34V93.7482H219.748V92.0682H213.304V91.2522ZM213.34 96.2922H220.984V97.1082H213.34V96.2922ZM231.411 90.4242H232.371V101.272H231.411V90.4242ZM226.707 94.8522H229.443V95.6562H226.707V94.8522ZM229.155 90.7002H230.091V100.72H229.155V90.7002ZM226.839 91.7922H227.799C227.799 94.6362 226.659 97.1922 223.731 98.9322L223.143 98.2242C225.699 96.6882 226.839 94.5282 226.839 91.9722V91.7922ZM223.623 91.7922H227.211V92.6082H223.623V91.7922ZM239.391 91.5282H240.207V92.4042C240.207 94.3842 238.983 96.0762 237.171 96.7482L236.655 95.9562C238.275 95.3802 239.391 93.9402 239.391 92.4042V91.5282ZM239.583 91.5282H240.387V92.4042C240.387 93.7962 241.443 95.1522 243.015 95.7042L242.511 96.4962C240.747 95.8482 239.583 94.2162 239.583 92.4042V91.5282ZM242.427 93.2442H244.839V94.0722H242.427V93.2442ZM236.967 91.1682H242.763V91.9722H236.967V91.1682ZM238.311 97.5042H245.547V101.272H244.551V98.3202H238.311V97.5042ZM244.551 90.4242H245.547V96.9162H244.551V90.4242ZM247.658 95.6922H257.462V96.5082H247.658V95.6922ZM252.554 97.3962C254.882 97.3962 256.274 98.0922 256.274 99.3282C256.274 100.576 254.882 101.272 252.554 101.272C250.226 101.272 248.834 100.576 248.834 99.3282C248.834 98.0922 250.226 97.3962 252.554 97.3962ZM252.554 98.1762C250.862 98.1762 249.842 98.5962 249.842 99.3282C249.842 100.084 250.862 100.492 252.554 100.492C254.258 100.492 255.266 100.084 255.266 99.3282C255.266 98.5962 254.258 98.1762 252.554 98.1762ZM252.566 90.6882C254.906 90.6882 256.382 91.4682 256.382 92.7642C256.382 94.0482 254.906 94.8282 252.566 94.8282C250.214 94.8282 248.75 94.0482 248.75 92.7642C248.75 91.4682 250.214 90.6882 252.566 90.6882ZM252.566 91.4802C250.838 91.4802 249.77 91.9602 249.77 92.7642C249.77 93.5682 250.838 94.0362 252.566 94.0362C254.282 94.0362 255.362 93.5682 255.362 92.7642C255.362 91.9602 254.282 91.4802 252.566 91.4802ZM266.053 90.4242H267.049V101.272H266.053V90.4242ZM266.809 94.8762H268.825V95.7162H266.809V94.8762ZM258.649 92.1522H265.045V92.9682H258.649V92.1522ZM261.889 93.8682C263.425 93.8682 264.529 94.9002 264.529 96.3642C264.529 97.8282 263.425 98.8602 261.889 98.8602C260.365 98.8602 259.249 97.8282 259.249 96.3642C259.249 94.9002 260.365 93.8682 261.889 93.8682ZM261.889 94.6962C260.905 94.6962 260.197 95.3802 260.197 96.3642C260.197 97.3362 260.905 98.0322 261.889 98.0322C262.873 98.0322 263.581 97.3362 263.581 96.3642C263.581 95.3802 262.873 94.6962 261.889 94.6962ZM261.373 90.5562H262.369V92.5242H261.373V90.5562ZM274.728 93.0162H278.076V93.8322H274.728V93.0162ZM274.728 96.0042H278.076V96.8322H274.728V96.0042ZM270.18 91.4802H275.112V98.5362H270.18V91.4802ZM274.128 92.2842H271.152V97.7322H274.128V92.2842ZM277.692 90.4122H278.676V101.284H277.692V90.4122ZM282.492 99.0762C282.42 99.3562 282.328 99.6602 282.216 99.9882C282.104 100.316 281.98 100.64 281.844 100.96C281.716 101.288 281.588 101.596 281.46 101.884H280.68C280.76 101.58 280.836 101.252 280.908 100.9C280.988 100.556 281.06 100.216 281.124 99.8802C281.188 99.5362 281.24 99.2242 281.28 98.9442H282.408L282.492 99.0762ZM286.76 97.6602H287.228C287.876 97.6602 288.632 97.6482 289.484 97.4322L289.604 98.2602C288.68 98.4762 287.936 98.4882 287.228 98.4882H286.76V97.6602ZM286.76 91.5162H289.436V92.3322H287.744V98.0442H286.76V91.5162ZM290.024 97.6602H290.576C291.656 97.6602 292.46 97.6242 293.396 97.3962L293.492 98.2242C292.508 98.4642 291.704 98.4882 290.576 98.4882H290.024V97.6602ZM290.024 91.5162H292.964V92.3322H291.008V98.0562H290.024V91.5162ZM294.476 90.4242H295.472V101.272H294.476V90.4242ZM292.424 94.3842H294.836V95.2122H292.424V94.3842ZM301.867 96.5562H302.863V99.2562H301.867V96.5562ZM302.371 91.1322C304.663 91.1322 306.307 92.2482 306.307 93.9762C306.307 95.7042 304.663 96.8202 302.371 96.8202C300.079 96.8202 298.423 95.7042 298.423 93.9762C298.423 92.2482 300.079 91.1322 302.371 91.1322ZM302.371 91.9242C300.643 91.9242 299.383 92.7402 299.383 93.9762C299.383 95.2122 300.643 96.0282 302.371 96.0282C304.087 96.0282 305.347 95.2122 305.347 93.9762C305.347 92.7402 304.087 91.9242 302.371 91.9242ZM297.475 99.0642H307.303V99.8922H297.475V99.0642ZM308.502 96.4362H318.342V97.2402H308.502V96.4362ZM309.798 100.216H317.31V101.032H309.798V100.216ZM309.798 98.0922H310.794V100.528H309.798V98.0922ZM309.75 90.7842H317.07V93.4722H310.758V94.9362H309.774V92.7402H316.098V91.5642H309.75V90.7842ZM309.774 94.6722H317.31V95.4522H309.774V94.6722ZM321.979 95.9682H331.807V96.7842H321.979V95.9682ZM326.467 96.4722H327.463V98.9682H326.467V96.4722ZM323.239 90.9282H330.535V94.7442H323.239V90.9282ZM329.551 91.7322H324.211V93.9402H329.551V91.7322ZM323.227 100.216H330.715V101.032H323.227V100.216ZM323.227 97.9242H324.211V100.504H323.227V97.9242ZM341.274 90.4242H342.234V101.272H341.274V90.4242ZM337.326 94.3122H339.402V95.1402H337.326V94.3122ZM339.102 90.6762H340.038V100.72H339.102V90.6762ZM335.238 92.1042H336.006V93.4842C336.006 95.8602 335.094 98.1042 333.498 99.1122L332.886 98.3682C334.398 97.4562 335.238 95.4762 335.238 93.4842V92.1042ZM335.442 92.1042H336.21V93.4842C336.21 95.3682 337.026 97.2522 338.514 98.1162L337.902 98.8482C336.318 97.8882 335.442 95.7522 335.442 93.4842V92.1042ZM333.186 91.6842H338.142V92.5122H333.186V91.6842ZM345.389 93.6762H352.757V94.4922H345.389V93.6762ZM344.057 95.9442H353.897V96.7602H344.057V95.9442ZM345.389 90.8202H346.373V94.0842H345.389V90.8202ZM345.317 100.192H352.817V101.008H345.317V100.192ZM345.317 97.8402H346.301V100.408H345.317V97.8402ZM357.425 94.3602H367.481V95.6322H357.425V94.3602ZM358.361 90.6642H360.953V91.9242H358.361V90.6642ZM360.485 90.6642H362.045V91.2642C362.045 92.0562 362.045 93.2682 361.493 94.8762L359.957 94.6602C360.485 93.0642 360.485 92.0322 360.485 91.2642V90.6642ZM362.669 90.6642H365.525V91.9242H362.669V90.6642ZM364.781 90.6642H366.341V91.4322C366.341 92.3322 366.341 93.4602 365.873 94.9362L364.325 94.7202C364.781 93.2682 364.781 92.2962 364.781 91.4322V90.6642ZM358.649 96.3882H366.305V97.5642H360.245V100.372H358.649V96.3882ZM358.649 100.096H366.389V101.284H358.649V100.096ZM359.597 98.2482H366.041V99.3762H359.597V98.2482ZM375.7 90.2922H377.296V101.404H375.7V90.2922ZM376.804 94.6362H378.736V95.9562H376.804V94.6362ZM370.252 91.4202H371.74C371.74 94.5042 371.452 96.8682 369.484 99.0762L368.236 98.1762C369.952 96.2802 370.252 94.4322 370.252 91.6122V91.4202ZM368.728 91.4202H370.876V92.7162H368.728V91.4202ZM373.312 91.4202H374.8C374.8 94.6482 374.536 97.3722 372.604 99.7842L371.356 98.8962C373.036 96.7722 373.312 94.6362 373.312 91.6002V91.4202ZM372.112 91.4202H373.972V92.7162H372.112V91.4202ZM382.179 92.0442H383.451V93.2922C383.451 95.8602 382.407 98.3682 380.319 99.3162L379.419 98.0562C381.279 97.2282 382.179 95.1762 382.179 93.2922V92.0442ZM382.539 92.0442H383.799V93.2922C383.799 95.0922 384.687 97.0122 386.547 97.7802L385.683 99.0402C383.571 98.1282 382.539 95.7642 382.539 93.2922V92.0442ZM379.863 91.3602H386.091V92.6682H379.863V91.3602ZM387.123 90.2922H388.731V101.404H387.123V90.2922ZM392.874 91.9602H398.19V93.2322H392.874V91.9602ZM395.55 93.7242C396.966 93.7242 397.986 94.8162 397.986 96.3762C397.986 97.9242 396.966 99.0162 395.55 99.0162C394.146 99.0162 393.114 97.9242 393.114 96.3762C393.114 94.8162 394.146 93.7242 395.55 93.7242ZM395.55 95.0562C394.95 95.0562 394.53 95.5362 394.53 96.3762C394.53 97.2162 394.95 97.6842 395.55 97.6842C396.15 97.6842 396.582 97.2162 396.582 96.3762C396.582 95.5362 396.15 95.0562 395.55 95.0562ZM400.914 90.2922H402.438V101.404H400.914V90.2922ZM399.582 94.8042H401.418V96.0882H399.582V94.8042ZM398.586 90.4962H400.074V100.936H398.586V90.4962ZM394.77 90.5922H396.342V92.7642H394.77V90.5922ZM411.629 90.2922H413.225V95.8722H411.629V90.2922ZM407.921 90.7122H409.661C409.661 93.6642 407.957 95.3922 404.585 96.1242L404.057 94.8402C406.841 94.2882 407.921 93.0642 407.921 91.5762V90.7122ZM404.693 90.7122H408.593V91.9842H404.693V90.7122ZM409.229 91.6722H411.833V92.8842H409.229V91.6722ZM409.157 93.8322H411.773V95.0322H409.157V93.8322ZM405.881 96.2802H413.225V99.3402H407.501V100.72H405.905V98.1642H411.629V97.5282H405.881V96.2802ZM405.905 100.048H413.453V101.296H405.905V100.048ZM422.428 90.4242H423.424V101.272H422.428V90.4242ZM423.184 94.8762H425.2V95.7162H423.184V94.8762ZM415.024 92.1522H421.42V92.9682H415.024V92.1522ZM418.264 93.8682C419.8 93.8682 420.904 94.9002 420.904 96.3642C420.904 97.8282 419.8 98.8602 418.264 98.8602C416.74 98.8602 415.624 97.8282 415.624 96.3642C415.624 94.9002 416.74 93.8682 418.264 93.8682ZM418.264 94.6962C417.28 94.6962 416.572 95.3802 416.572 96.3642C416.572 97.3362 417.28 98.0322 418.264 98.0322C419.248 98.0322 419.956 97.3362 419.956 96.3642C419.956 95.3802 419.248 94.6962 418.264 94.6962ZM417.748 90.5562H418.744V92.5242H417.748V90.5562ZM434.043 90.4122H435.039V101.284H434.043V90.4122ZM431.907 92.8962H434.307V93.7122H431.907V92.8962ZM426.519 97.9242H427.323C429.003 97.9242 430.383 97.8762 432.039 97.6122L432.135 98.4402C430.431 98.7042 429.039 98.7642 427.323 98.7642H426.519V97.9242ZM426.495 91.3962H431.235V95.2842H427.503V98.1162H426.519V94.4682H430.251V92.2242H426.495V91.3962ZM431.835 95.8602H434.235V96.6762H431.835V95.8602ZM438.195 91.5042H445.179V92.3322H438.195V91.5042ZM437.163 98.9322H446.967V99.7602H437.163V98.9322ZM440.967 95.0562H441.963V99.3402H440.967V95.0562ZM444.807 91.5042H445.791V92.5842C445.791 93.9282 445.791 95.4162 445.395 97.6122L444.399 97.4802C444.807 95.4042 444.807 93.8802 444.807 92.5842V91.5042ZM451.839 95.3442H459.351V96.1602H451.839V95.3442ZM450.639 99.0522H460.467V99.8802H450.639V99.0522ZM455.043 95.8482H456.027V99.3162H455.043V95.8482ZM451.839 91.3362H452.835V95.7042H451.839V91.3362ZM462.122 95.8002H462.902C465.038 95.8002 466.094 95.7642 467.39 95.5362L467.498 96.3402C466.154 96.5802 465.074 96.6162 462.902 96.6162H462.122V95.8002ZM462.098 91.0722H466.778V94.1562H463.106V96.2922H462.122V93.3762H465.794V91.8882H462.098V91.0722ZM469.598 90.4362H470.594V97.0962H469.598V90.4362ZM467.498 92.0322H469.826V92.8482H467.498V92.0322ZM467.498 94.2762H469.826V95.0922H467.498V94.2762ZM463.334 97.6842H470.594V101.296H469.598V98.5002H463.334V97.6842ZM472.693 92.2722H478.069V93.0882H472.693V92.2722ZM475.381 93.8082C476.737 93.8082 477.721 94.8282 477.721 96.2922C477.721 97.7442 476.737 98.7642 475.381 98.7642C474.037 98.7642 473.053 97.7442 473.053 96.2922C473.053 94.8282 474.037 93.8082 475.381 93.8082ZM475.381 94.6602C474.553 94.6602 473.953 95.3322 473.953 96.2922C473.953 97.2522 474.553 97.9242 475.381 97.9242C476.221 97.9242 476.833 97.2522 476.833 96.2922C476.833 95.3322 476.221 94.6602 475.381 94.6602ZM480.937 90.4242H481.897V101.272H480.937V90.4242ZM479.209 94.9842H481.261V95.8122H479.209V94.9842ZM478.621 90.6642H479.557V100.744H478.621V90.6642ZM474.901 90.7362H475.885V92.7762H474.901V90.7362ZM486.156 96.0042H487.14V99.2562H486.156V96.0042ZM490.164 96.0042H491.16V99.2562H490.164V96.0042ZM483.756 99.0642H493.584V99.8922H483.756V99.0642ZM488.652 91.1082C490.944 91.1082 492.588 92.2002 492.588 93.9042C492.588 95.5962 490.944 96.6882 488.652 96.6882C486.348 96.6882 484.704 95.5962 484.704 93.9042C484.704 92.2002 486.348 91.1082 488.652 91.1082ZM488.652 91.9002C486.912 91.9002 485.664 92.6922 485.664 93.9042C485.664 95.1042 486.912 95.8962 488.652 95.8962C490.392 95.8962 491.628 95.1042 491.628 93.9042C491.628 92.6922 490.392 91.9002 488.652 91.9002ZM495.695 100.219C495.508 100.219 495.35 100.155 495.221 100.026C495.092 99.8968 495.027 99.7386 495.027 99.5511C495.027 99.3636 495.092 99.2054 495.221 99.0765C495.35 98.9476 495.508 98.8831 495.695 98.8831C495.883 98.8831 496.041 98.9476 496.17 99.0765C496.299 99.2054 496.363 99.3636 496.363 99.5511C496.363 99.7386 496.299 99.8968 496.17 100.026C496.041 100.155 495.883 100.219 495.695 100.219ZM127.062 107.576H134.046V108.38H127.062V107.576ZM126.006 114.86H135.81V115.688H126.006V114.86ZM133.518 107.576H134.49V108.656C134.49 110.048 134.49 111.596 134.082 113.936L133.086 113.84C133.518 111.62 133.518 110 133.518 108.656V107.576ZM137.393 113.852H138.113C139.433 113.852 140.633 113.804 142.097 113.552L142.181 114.38C140.681 114.644 139.457 114.68 138.113 114.68H137.393V113.852ZM137.369 107.6H141.437V111.416H138.365V114.164H137.393V110.6H140.465V108.416H137.369V107.6ZM145.289 106.424H146.249V117.272H145.289V106.424ZM143.453 110.708H145.541V111.524H143.453V110.708ZM142.829 106.664H143.765V116.72H142.829V106.664ZM149.32 111.488H156.772V112.304H149.32V111.488ZM148.084 115.076H157.912V115.916H148.084V115.076ZM152.476 111.836H153.472V115.412H152.476V111.836ZM149.32 107.288H156.664V108.104H150.316V111.848H149.32V107.288ZM161.537 108.272H166.913V109.088H161.537V108.272ZM164.225 109.808C165.581 109.808 166.565 110.828 166.565 112.292C166.565 113.744 165.581 114.764 164.225 114.764C162.881 114.764 161.897 113.744 161.897 112.292C161.897 110.828 162.881 109.808 164.225 109.808ZM164.225 110.66C163.397 110.66 162.797 111.332 162.797 112.292C162.797 113.252 163.397 113.924 164.225 113.924C165.065 113.924 165.677 113.252 165.677 112.292C165.677 111.332 165.065 110.66 164.225 110.66ZM169.781 106.424H170.741V117.272H169.781V106.424ZM168.053 110.984H170.105V111.812H168.053V110.984ZM167.465 106.664H168.401V116.744H167.465V106.664ZM163.745 106.736H164.729V108.776H163.745V106.736ZM180.52 106.424H181.516V111.956H180.52V106.424ZM177.088 106.952H178.168C178.168 109.688 176.284 111.44 173.116 112.208L172.768 111.392C175.576 110.744 177.088 109.316 177.088 107.444V106.952ZM173.332 106.952H177.544V107.768H173.332V106.952ZM177.784 107.984H180.688V108.776H177.784V107.984ZM177.688 110.06H180.628V110.84H177.688V110.06ZM174.532 112.46H181.516V115.124H175.552V116.852H174.568V114.356H180.532V113.264H174.532V112.46ZM174.568 116.372H181.876V117.164H174.568V116.372ZM191.511 106.412H192.507V117.284H191.511V106.412ZM186.783 107.252C188.391 107.252 189.543 108.728 189.543 111.032C189.543 113.348 188.391 114.824 186.783 114.824C185.187 114.824 184.035 113.348 184.035 111.032C184.035 108.728 185.187 107.252 186.783 107.252ZM186.783 108.152C185.727 108.152 184.983 109.28 184.983 111.032C184.983 112.796 185.727 113.948 186.783 113.948C187.851 113.948 188.583 112.796 188.583 111.032C188.583 109.28 187.851 108.152 186.783 108.152ZM200.008 107.252C201.58 107.252 202.708 108.728 202.708 111.032C202.708 113.348 201.58 114.824 200.008 114.824C198.424 114.824 197.308 113.348 197.308 111.032C197.308 108.728 198.424 107.252 200.008 107.252ZM200.008 108.152C198.964 108.152 198.256 109.28 198.256 111.032C198.256 112.796 198.964 113.948 200.008 113.948C201.052 113.948 201.76 112.796 201.76 111.032C201.76 109.28 201.052 108.152 200.008 108.152ZM205.06 106.412H206.044V117.284H205.06V106.412ZM202.384 110.552H205.492V111.368H202.384V110.552ZM216.075 106.412H217.071V117.284H216.075V106.412ZM213.939 108.896H216.339V109.712H213.939V108.896ZM208.551 113.924H209.355C211.035 113.924 212.415 113.876 214.071 113.612L214.167 114.44C212.463 114.704 211.071 114.764 209.355 114.764H208.551V113.924ZM208.527 107.396H213.267V111.284H209.535V114.116H208.551V110.468H212.283V108.224H208.527V107.396ZM213.867 111.86H216.267V112.676H213.867V111.86ZM219.182 111.92H229.022V112.736H219.182V111.92ZM223.67 112.436H224.678V114.932H223.67V112.436ZM220.43 116.204H227.93V117.032H220.43V116.204ZM220.43 113.864H221.426V116.432H220.43V113.864ZM224.09 106.688C226.382 106.688 227.894 107.528 227.894 108.872C227.894 110.216 226.382 111.056 224.09 111.056C221.786 111.056 220.286 110.216 220.286 108.872C220.286 107.528 221.786 106.688 224.09 106.688ZM224.09 107.504C222.434 107.504 221.342 108.032 221.342 108.872C221.342 109.724 222.434 110.24 224.09 110.24C225.746 110.24 226.838 109.724 226.838 108.872C226.838 108.032 225.746 107.504 224.09 107.504ZM233.15 107.612H238.058V108.416H233.15V107.612ZM234.842 110.708H235.826V114.38H234.842V110.708ZM237.65 107.612H238.622V108.188C238.622 109.076 238.622 110.492 238.31 112.508L237.326 112.412C237.65 110.456 237.65 109.064 237.65 108.188V107.612ZM239.99 106.424H240.974V117.272H239.99V106.424ZM240.71 110.96H242.714V111.8H240.71V110.96ZM232.67 114.908L232.55 114.068C234.518 114.068 237.134 114.032 239.33 113.756L239.378 114.488C237.134 114.848 234.59 114.896 232.67 114.908ZM251.953 106.424H252.913V117.272H251.953V106.424ZM248.005 110.312H250.081V111.14H248.005V110.312ZM249.781 106.676H250.717V116.72H249.781V106.676ZM245.917 108.104H246.685V109.484C246.685 111.86 245.773 114.104 244.177 115.112L243.565 114.368C245.077 113.456 245.917 111.476 245.917 109.484V108.104ZM246.121 108.104H246.889V109.484C246.889 111.368 247.705 113.252 249.193 114.116L248.581 114.848C246.997 113.888 246.121 111.752 246.121 109.484V108.104ZM243.865 107.684H248.821V108.512H243.865V107.684ZM256.068 109.676H263.436V110.492H256.068V109.676ZM254.736 111.944H264.576V112.76H254.736V111.944ZM256.068 106.82H257.052V110.084H256.068V106.82ZM255.996 116.192H263.496V117.008H255.996V116.192ZM255.996 113.84H256.98V116.408H255.996V113.84ZM270.985 107.528H271.801V108.404C271.801 110.384 270.577 112.076 268.765 112.748L268.249 111.956C269.869 111.38 270.985 109.94 270.985 108.404V107.528ZM271.177 107.528H271.981V108.404C271.981 109.796 273.037 111.152 274.609 111.704L274.105 112.496C272.341 111.848 271.177 110.216 271.177 108.404V107.528ZM274.021 109.244H276.433V110.072H274.021V109.244ZM268.561 107.168H274.357V107.972H268.561V107.168ZM269.905 113.504H277.141V117.272H276.145V114.32H269.905V113.504ZM276.145 106.424H277.141V112.916H276.145V106.424ZM280.512 106.94H287.496V107.756H280.512V106.94ZM279.264 110.984H289.092V111.8H279.264V110.984ZM286.848 106.94H287.82V107.684C287.82 108.572 287.82 109.724 287.484 111.308L286.512 111.2C286.848 109.652 286.848 108.548 286.848 107.684V106.94ZM280.308 113.42H287.892V117.308H286.896V114.224H280.308V113.42ZM293.063 107.528H293.879V108.404C293.879 110.384 292.655 112.076 290.843 112.748L290.327 111.956C291.947 111.38 293.063 109.94 293.063 108.404V107.528ZM293.255 107.528H294.059V108.404C294.059 109.796 295.115 111.152 296.687 111.704L296.183 112.496C294.419 111.848 293.255 110.216 293.255 108.404V107.528ZM296.099 109.244H298.511V110.072H296.099V109.244ZM290.639 107.168H296.435V107.972H290.639V107.168ZM291.983 113.504H299.219V117.272H298.223V114.32H291.983V113.504ZM298.223 106.424H299.219V112.916H298.223V106.424ZM306.238 107.108C308.494 107.108 310.174 108.308 310.174 110.108C310.174 111.92 308.494 113.108 306.238 113.108C303.982 113.108 302.29 111.92 302.29 110.108C302.29 108.308 303.982 107.108 306.238 107.108ZM306.238 107.924C304.522 107.924 303.25 108.8 303.25 110.108C303.25 111.404 304.522 112.292 306.238 112.292C307.954 112.292 309.226 111.404 309.226 110.108C309.226 108.8 307.954 107.924 306.238 107.924ZM301.342 115.004H311.17V115.844H301.342V115.004ZM312.381 115.112H322.209V115.94H312.381V115.112ZM316.773 112.784H317.769V115.46H316.773V112.784ZM313.569 107.228H320.997V110.516H314.589V112.688H313.605V109.712H320.013V108.032H313.569V107.228ZM313.605 112.268H321.249V113.084H313.605V112.268ZM330.718 113.264C333.022 113.264 334.498 114.02 334.498 115.268C334.498 116.504 333.022 117.248 330.718 117.248C328.402 117.248 326.938 116.504 326.938 115.268C326.938 114.02 328.402 113.264 330.718 113.264ZM330.718 114.044C329.014 114.044 327.922 114.512 327.922 115.268C327.922 116.012 329.014 116.48 330.718 116.48C332.422 116.48 333.502 116.012 333.502 115.268C333.502 114.512 332.422 114.044 330.718 114.044ZM327.022 106.964H334.006V107.78H327.022V106.964ZM325.858 111.476H335.65V112.28H325.858V111.476ZM329.878 109.388H330.862V111.704H329.878V109.388ZM333.43 106.964H334.402V107.888C334.402 108.764 334.402 109.64 334.114 110.768L333.13 110.648C333.43 109.532 333.43 108.74 333.43 107.888V106.964ZM339.405 113.132H340.425V117.272H339.405V113.132ZM343.137 113.132H344.157V117.272H343.137V113.132ZM336.885 112.592H346.725V113.42H336.885V112.592ZM341.781 106.856C344.049 106.856 345.573 107.768 345.573 109.22C345.573 110.66 344.049 111.584 341.781 111.584C339.525 111.584 337.989 110.66 337.989 109.22C337.989 107.768 339.525 106.856 341.781 106.856ZM341.781 107.66C340.125 107.66 338.997 108.272 338.997 109.22C338.997 110.168 340.125 110.78 341.781 110.78C343.437 110.78 344.553 110.168 344.553 109.22C344.553 108.272 343.437 107.66 341.781 107.66ZM355.28 106.424H356.276V117.272H355.28V106.424ZM356.036 110.876H358.052V111.716H356.036V110.876ZM347.876 108.152H354.272V108.968H347.876V108.152ZM351.116 109.868C352.652 109.868 353.756 110.9 353.756 112.364C353.756 113.828 352.652 114.86 351.116 114.86C349.592 114.86 348.476 113.828 348.476 112.364C348.476 110.9 349.592 109.868 351.116 109.868ZM351.116 110.696C350.132 110.696 349.424 111.38 349.424 112.364C349.424 113.336 350.132 114.032 351.116 114.032C352.1 114.032 352.808 113.336 352.808 112.364C352.808 111.38 352.1 110.696 351.116 110.696ZM350.6 106.556H351.596V108.524H350.6V106.556ZM363.955 109.016H367.303V109.832H363.955V109.016ZM363.955 112.004H367.303V112.832H363.955V112.004ZM359.407 107.48H364.339V114.536H359.407V107.48ZM363.355 108.284H360.379V113.732H363.355V108.284ZM366.919 106.412H367.903V117.284H366.919V106.412ZM373.076 111.44H373.952C376.292 111.44 377.576 111.392 379.1 111.128L379.208 111.92C377.636 112.196 376.316 112.232 373.952 112.232H373.076V111.44ZM373.076 107.084H378.236V107.888H374.06V111.848H373.076V107.084ZM373.736 109.22H377.936V110.024H373.736V109.22ZM380.336 106.436H381.344V112.892H380.336V106.436ZM374.336 113.432H381.344V117.128H374.336V113.432ZM380.36 114.236H375.308V116.324H380.36V114.236ZM386.563 111.884H387.559V114.296H386.563V111.884ZM391.375 106.424H392.371V114.68H391.375V106.424ZM384.967 116.216H392.635V117.032H384.967V116.216ZM384.967 113.876H385.963V116.444H384.967V113.876ZM383.563 112.256L383.431 111.44C385.435 111.44 388.123 111.416 390.427 111.116L390.499 111.848C388.159 112.22 385.531 112.256 383.563 112.256ZM389.167 112.832H391.627V113.564H389.167V112.832ZM386.959 106.868C388.543 106.868 389.623 107.612 389.623 108.752C389.623 109.904 388.543 110.648 386.959 110.648C385.363 110.648 384.283 109.904 384.283 108.752C384.283 107.612 385.363 106.868 386.959 106.868ZM386.959 107.612C385.939 107.612 385.231 108.056 385.231 108.752C385.231 109.448 385.939 109.892 386.959 109.892C387.967 109.892 388.675 109.448 388.675 108.752C388.675 108.056 387.967 107.612 386.959 107.612ZM394.53 110.948H404.334V111.764H394.53V110.948ZM395.826 109.268H403.17V110.072H395.826V109.268ZM395.826 106.772H403.05V107.588H396.81V109.916H395.826V106.772ZM395.706 112.7H403.074V115.256H396.714V116.624H395.73V114.512H402.09V113.48H395.706V112.7ZM395.73 116.36H403.398V117.152H395.73V116.36ZM406.049 107.612H410.957V108.416H406.049V107.612ZM407.741 110.708H408.725V114.38H407.741V110.708ZM410.549 107.612H411.521V108.188C411.521 109.076 411.521 110.492 411.209 112.508L410.225 112.412C410.549 110.456 410.549 109.064 410.549 108.188V107.612ZM412.889 106.424H413.873V117.272H412.889V106.424ZM413.609 110.96H415.613V111.8H413.609V110.96ZM405.569 114.908L405.449 114.068C407.417 114.068 410.033 114.032 412.229 113.756L412.277 114.488C410.033 114.848 407.489 114.896 405.569 114.908ZM428.899 106.424H429.895V112.952H428.899V106.424ZM429.619 109.304H431.503V110.132H429.619V109.304ZM423.079 113.564H429.895V117.128H423.079V113.564ZM428.923 114.368H424.051V116.324H428.923V114.368ZM421.507 107.564H427.915V108.38H421.507V107.564ZM424.711 108.908C426.259 108.908 427.303 109.676 427.303 110.852C427.303 112.028 426.259 112.772 424.711 112.772C423.151 112.772 422.107 112.028 422.107 110.852C422.107 109.676 423.151 108.908 424.711 108.908ZM424.711 109.676C423.715 109.676 423.055 110.132 423.055 110.852C423.055 111.56 423.715 112.016 424.711 112.016C425.683 112.016 426.355 111.56 426.355 110.852C426.355 110.132 425.683 109.676 424.711 109.676ZM424.207 106.328H425.203V107.984H424.207V106.328ZM434.334 107.72H435.174C435.174 110.048 434.862 112.604 433.314 114.716L432.534 114.26C434.022 112.328 434.334 110.06 434.334 107.792V107.72ZM432.762 107.72H434.826V108.548H432.762V107.72ZM436.722 107.72H437.574C437.574 110.012 437.43 113.06 435.726 115.412L434.934 114.956C436.59 112.796 436.722 109.976 436.722 107.804V107.72ZM435.534 107.72H437.25V108.548H435.534V107.72ZM440.814 106.424H441.774V117.272H440.814V106.424ZM437.07 110.684H439.014V111.5H437.07V110.684ZM438.81 106.7H439.746V116.72H438.81V106.7ZM447.246 106.94H454.23V107.756H447.246V106.94ZM445.998 110.984H455.826V111.8H445.998V110.984ZM453.582 106.94H454.554V107.684C454.554 108.572 454.554 109.724 454.218 111.308L453.246 111.2C453.582 109.652 453.582 108.548 453.582 107.684V106.94ZM447.042 113.42H454.626V117.308H453.63V114.224H447.042V113.42ZM457.026 112.016H466.83V112.832H457.026V112.016ZM461.442 110.396H462.426V112.268H461.442V110.396ZM458.118 113.888H465.618V117.272H464.622V114.704H458.118V113.888ZM458.334 106.676H459.318V107.9H464.562V106.676H465.558V110.732H458.334V106.676ZM459.318 108.68V109.94H464.562V108.68H459.318ZM475.493 106.424H476.489V112.724H475.493V106.424ZM476.057 109.184H478.097V110.024H476.057V109.184ZM469.673 113.204H470.645V114.356H475.505V113.204H476.489V117.128H469.673V113.204ZM470.645 115.124V116.324H475.505V115.124H470.645ZM468.101 107.528H474.509V108.344H468.101V107.528ZM471.305 108.836C472.853 108.836 473.897 109.592 473.897 110.744C473.897 111.896 472.853 112.652 471.305 112.652C469.745 112.652 468.701 111.896 468.701 110.744C468.701 109.592 469.745 108.836 471.305 108.836ZM471.305 109.592C470.309 109.592 469.649 110.048 469.649 110.744C469.649 111.44 470.309 111.896 471.305 111.896C472.277 111.896 472.949 111.44 472.949 110.744C472.949 110.048 472.277 109.592 471.305 109.592ZM470.801 106.316H471.797V107.972H470.801V106.316ZM487 106.424H487.996V117.272H487V106.424ZM479.8 107.48H480.784V114.2H479.8V107.48ZM479.8 113.612H480.688C482.332 113.612 484.048 113.492 485.884 113.108L486.004 113.96C484.12 114.344 482.404 114.476 480.688 114.476H479.8V113.612ZM497.487 106.412H498.495V117.284H497.487V106.412ZM498.255 110.696H500.271V111.536H498.255V110.696ZM490.611 113.744H491.463C493.467 113.744 494.871 113.672 496.491 113.372L496.599 114.212C494.931 114.524 493.503 114.584 491.463 114.584H490.611V113.744ZM490.611 107.468H495.651V108.284H491.595V114.116H490.611V107.468ZM502.094 116.219C501.906 116.219 501.748 116.155 501.619 116.026C501.49 115.897 501.426 115.739 501.426 115.551C501.426 115.364 501.49 115.205 501.619 115.076C501.748 114.948 501.906 114.883 502.094 114.883C502.281 114.883 502.439 114.948 502.568 115.076C502.697 115.205 502.762 115.364 502.762 115.551C502.762 115.739 502.697 115.897 502.568 116.026C502.439 116.155 502.281 116.219 502.094 116.219Z" fill="white"/>
</svg>
