<svg width="506" height="121" viewBox="0 0 506 121" fill="none" xmlns="http://www.w3.org/2000/svg">
<rect x="0.5" y="0.5" width="505" height="120" rx="1.5" stroke="#0042D2"/>
<path d="M31.3332 15.448H38.3772V16.72H31.3332V15.448ZM30.1092 19.444H40.1652V20.716H30.1092V19.444ZM37.4172 15.448H38.9892V16.336C38.9892 17.296 38.9892 18.328 38.6532 19.768L37.0692 19.744C37.4172 18.304 37.4172 17.284 37.4172 16.336V15.448ZM31.2852 21.88H38.9412V25.948H31.2852V21.88ZM37.3692 23.116H32.8452V24.688H37.3692V23.116ZM43.3683 20.692H44.9643V22.876H43.3683V20.692ZM47.3763 20.692H48.9723V22.876H47.3763V20.692ZM41.1363 19.936H51.1803V21.208H41.1363V19.936ZM46.1403 22.012C48.5403 22.012 49.9923 22.744 49.9923 24.052C49.9923 25.348 48.5403 26.08 46.1403 26.08C43.7283 26.08 42.2763 25.348 42.2763 24.052C42.2763 22.744 43.7283 22.012 46.1403 22.012ZM46.1403 23.224C44.6523 23.224 43.8963 23.488 43.8963 24.052C43.8963 24.616 44.6523 24.868 46.1403 24.868C47.6283 24.868 48.3843 24.616 48.3843 24.052C48.3843 23.488 47.6283 23.224 46.1403 23.224ZM46.1643 15.136C48.6123 15.136 50.1843 15.952 50.1843 17.284C50.1843 18.604 48.6123 19.408 46.1643 19.408C43.7043 19.408 42.1443 18.604 42.1443 17.284C42.1443 15.952 43.7043 15.136 46.1643 15.136ZM46.1643 16.36C44.6403 16.36 43.7883 16.66 43.7883 17.284C43.7883 17.896 44.6403 18.196 46.1643 18.196C47.6763 18.196 48.5403 17.896 48.5403 17.284C48.5403 16.66 47.6763 16.36 46.1643 16.36ZM55.6951 19.912H63.5071V21.184H55.6951V19.912ZM54.5311 23.512H64.5871V24.82H54.5311V23.512ZM58.7431 20.488H60.3391V23.932H58.7431V20.488ZM55.6951 15.712H63.4231V16.996H57.2911V20.464H55.6951V15.712ZM65.8701 16.096H70.2621V23.296H65.8701V16.096ZM68.7741 17.344H67.3581V22.048H68.7741V17.344ZM73.5861 14.956H75.1101V26.068H73.5861V14.956ZM69.4581 18.988H71.9541V20.272H69.4581V18.988ZM71.3181 15.124H72.8181V25.564H71.3181V15.124ZM84.2292 14.968H85.8372V22.948H84.2292V14.968ZM78.4332 24.604H86.1132V25.876H78.4332V24.604ZM78.4332 22.144H80.0292V25.12H78.4332V22.144ZM79.7892 15.664C81.4932 15.664 82.8012 16.84 82.8012 18.484C82.8012 20.116 81.4932 21.304 79.7892 21.304C78.0852 21.304 76.7652 20.116 76.7652 18.484C76.7652 16.84 78.0852 15.664 79.7892 15.664ZM79.7892 17.044C78.9612 17.044 78.3252 17.572 78.3252 18.484C78.3252 19.384 78.9612 19.912 79.7892 19.912C80.6052 19.912 81.2412 19.384 81.2412 18.484C81.2412 17.572 80.6052 17.044 79.7892 17.044ZM91.2723 15.868C92.9643 15.868 94.1763 16.912 94.1763 18.424C94.1763 19.948 92.9643 20.992 91.2723 20.992C89.5803 20.992 88.3563 19.948 88.3563 18.424C88.3563 16.912 89.5803 15.868 91.2723 15.868ZM91.2723 16.732C90.1443 16.732 89.3283 17.416 89.3283 18.424C89.3283 19.432 90.1443 20.128 91.2723 20.128C92.3883 20.128 93.2043 19.432 93.2043 18.424C93.2043 17.416 92.3883 16.732 91.2723 16.732ZM95.5923 15.076H96.5883V25.948H95.5923V15.076ZM87.9482 23.572L87.8043 22.744C89.7843 22.744 92.5203 22.732 94.8843 22.36L94.9683 23.092C92.5323 23.56 89.8803 23.572 87.9482 23.572ZM106.645 18.76H109.669V19.576H106.645V18.76ZM104.029 16.024H104.845V17.956C104.845 20.392 103.561 22.72 101.845 23.644L101.209 22.852C102.805 22.06 104.029 19.972 104.029 17.956V16.024ZM104.221 16.024H105.025V17.956C105.025 19.936 106.249 21.904 107.821 22.648L107.233 23.452C105.481 22.564 104.221 20.332 104.221 17.956V16.024ZM109.177 15.076H110.161V25.948H109.177V15.076ZM120.144 15.076H121.14V25.948H120.144V15.076ZM112.884 16H113.868V18.868H117V16H117.996V23.332H112.884V16ZM113.868 19.66V22.516H117V19.66H113.868ZM127.655 15.832H128.519V16.66C128.519 19.024 126.323 20.86 124.151 21.352L123.707 20.524C125.615 20.164 127.655 18.508 127.655 16.66V15.832ZM127.835 15.832H128.699V16.66C128.699 18.52 130.751 20.164 132.647 20.524L132.203 21.352C130.043 20.86 127.835 19.036 127.835 16.66V15.832ZM123.311 23.656H133.139V24.472H123.311V23.656ZM139.872 21.592H140.88V23.38H139.872V21.592ZM144.624 15.088H145.62V25.936H144.624V15.088ZM136.979 23.872L136.848 23.044C138.9 23.032 141.6 23.008 143.94 22.708L144.012 23.44C141.6 23.848 138.984 23.872 136.979 23.872ZM137.076 16.408H143.664V17.212H137.076V16.408ZM140.364 17.836C141.924 17.836 142.98 18.628 142.98 19.84C142.98 21.064 141.924 21.844 140.364 21.844C138.816 21.844 137.76 21.064 137.76 19.84C137.76 18.628 138.816 17.836 140.364 17.836ZM140.364 18.604C139.392 18.604 138.708 19.096 138.708 19.84C138.708 20.584 139.392 21.076 140.364 21.076C141.348 21.076 142.032 20.584 142.032 19.84C142.032 19.096 141.348 18.604 140.364 18.604ZM139.872 15.088H140.868V16.852H139.872V15.088ZM150.479 16.024H151.295V17.968C151.295 20.368 149.999 22.708 148.283 23.62L147.671 22.828C149.243 22.036 150.479 19.948 150.479 17.968V16.024ZM150.659 16.024H151.463V17.968C151.463 19.876 152.675 21.856 154.211 22.624L153.599 23.416C151.919 22.516 150.659 20.296 150.659 17.968V16.024ZM155.159 15.088H156.167V25.936H155.159V15.088ZM155.927 19.48H157.943V20.32H155.927V19.48ZM163.258 19.3H165.31V20.128H163.258V19.3ZM167.122 15.088H168.082V25.936H167.122V15.088ZM164.974 15.316H165.922V25.396H164.974V15.316ZM161.302 15.988C162.706 15.988 163.618 17.44 163.618 19.768C163.618 22.096 162.706 23.548 161.302 23.548C159.898 23.548 158.998 22.096 158.998 19.768C158.998 17.44 159.898 15.988 161.302 15.988ZM161.302 16.912C160.45 16.912 159.91 18.016 159.91 19.768C159.91 21.52 160.45 22.624 161.302 22.624C162.166 22.624 162.706 21.52 162.706 19.768C162.706 18.016 162.166 16.912 161.302 16.912ZM175.317 18.76H178.341V19.576H175.317V18.76ZM172.701 16.024H173.517V17.956C173.517 20.392 172.233 22.72 170.517 23.644L169.881 22.852C171.477 22.06 172.701 19.972 172.701 17.956V16.024ZM172.893 16.024H173.697V17.956C173.697 19.936 174.921 21.904 176.493 22.648L175.905 23.452C174.153 22.564 172.893 20.332 172.893 17.956V16.024ZM177.849 15.076H178.833V25.948H177.849V15.076ZM188.265 22.576C190.641 22.576 191.985 23.164 191.985 24.256C191.985 25.348 190.641 25.924 188.265 25.924C185.901 25.924 184.545 25.348 184.545 24.256C184.545 23.164 185.901 22.576 188.265 22.576ZM188.265 23.32C186.537 23.32 185.565 23.644 185.565 24.256C185.565 24.868 186.537 25.18 188.265 25.18C190.005 25.18 190.965 24.868 190.965 24.256C190.965 23.644 190.005 23.32 188.265 23.32ZM183.885 16.012H192.609V16.792H183.885V16.012ZM188.277 17.224C190.509 17.224 191.781 17.776 191.781 18.796C191.781 19.816 190.509 20.368 188.277 20.368C186.033 20.368 184.773 19.816 184.773 18.796C184.773 17.776 186.033 17.224 188.277 17.224ZM188.277 17.932C186.705 17.932 185.829 18.244 185.829 18.796C185.829 19.348 186.705 19.66 188.277 19.66C189.837 19.66 190.713 19.348 190.713 18.796C190.713 18.244 189.837 17.932 188.277 17.932ZM187.785 14.92H188.769V16.48H187.785V14.92ZM183.369 21.064H193.173V21.856H183.369V21.064ZM195.032 16.144H200.024V23.212H195.032V16.144ZM199.052 16.948H196.004V22.408H199.052V16.948ZM202.292 15.076H203.288V25.948H202.292V15.076ZM205.447 20.632H215.287V21.448H205.447V20.632ZM209.863 19.324H210.859V21.04H209.863V19.324ZM206.767 21.988H207.751V23.032H213.043V21.988H214.027V25.792H206.767V21.988ZM207.751 23.812V25H213.043V23.812H207.751ZM206.695 15.316H214.015V17.812H207.703V19.24H206.719V17.068H213.043V16.084H206.695V15.316ZM206.719 18.832H214.255V19.612H206.719V18.832ZM217.53 16.168H224.514V16.996H217.53V16.168ZM216.498 23.596H226.302V24.424H216.498V23.596ZM220.302 19.72H221.298V24.004H220.302V19.72ZM224.142 16.168H225.126V17.248C225.126 18.592 225.126 20.08 224.73 22.276L223.734 22.144C224.142 20.068 224.142 18.544 224.142 17.248V16.168ZM232.243 16.108H233.023V18.172C233.023 20.44 232.063 22.636 230.479 23.596L229.843 22.852C231.343 21.976 232.243 20.032 232.243 18.172V16.108ZM232.423 16.108H233.203V18.112C233.203 19.9 234.043 21.736 235.483 22.54L234.883 23.32C233.299 22.408 232.423 20.296 232.423 18.112V16.108ZM238.231 15.088H239.191V25.936H238.231V15.088ZM236.515 19.444H238.591V20.272H236.515V19.444ZM235.843 15.316H236.791V25.396H235.843V15.316ZM241.014 23.776H250.842V24.604H241.014V23.776ZM245.406 21.448H246.402V24.124H245.406V21.448ZM242.202 15.892H249.63V19.18H243.222V21.352H242.238V18.376H248.646V16.696H242.202V15.892ZM242.238 20.932H249.882V21.748H242.238V20.932ZM252.041 20.584H261.881V21.4H252.041V20.584ZM256.529 21.1H257.537V23.596H256.529V21.1ZM253.289 24.868H260.789V25.696H253.289V24.868ZM253.289 22.528H254.285V25.096H253.289V22.528ZM256.949 15.352C259.241 15.352 260.753 16.192 260.753 17.536C260.753 18.88 259.241 19.72 256.949 19.72C254.645 19.72 253.145 18.88 253.145 17.536C253.145 16.192 254.645 15.352 256.949 15.352ZM256.949 16.168C255.293 16.168 254.201 16.696 254.201 17.536C254.201 18.388 255.293 18.904 256.949 18.904C258.605 18.904 259.697 18.388 259.697 17.536C259.697 16.696 258.605 16.168 256.949 16.168ZM265.53 23.716H275.358V24.544H265.53V23.716ZM266.382 16.168H274.434V16.984H266.382V16.168ZM266.406 20.752H274.422V21.568H266.406V20.752ZM268.074 16.924H269.07V20.836H268.074V16.924ZM271.77 16.924H272.754V20.836H271.77V16.924ZM276.569 23.776H286.397V24.604H276.569V23.776ZM280.961 21.448H281.957V24.124H280.961V21.448ZM277.757 15.892H285.185V19.18H278.777V21.352H277.793V18.376H284.201V16.696H277.757V15.892ZM277.793 20.932H285.437V21.748H277.793V20.932ZM288.196 20.248H289C291.124 20.248 292.324 20.2 293.716 19.912L293.836 20.716C292.396 21.004 291.16 21.076 289 21.076H288.196V20.248ZM288.196 15.844H293.128V16.648H289.168V20.512H288.196V15.844ZM289.288 22.132H296.524V25.936H295.528V22.948H289.288V22.132ZM295.528 15.088H296.524V21.58H295.528V15.088ZM292.492 17.896H295.804V18.7H292.492V17.896ZM299.907 20.932H307.359V21.736H299.907V20.932ZM298.647 23.716H308.475V24.544H298.647V23.716ZM299.907 16.012H307.239V16.828H300.915V21.184H299.907V16.012ZM300.591 18.436H307.011V19.228H300.591V18.436ZM309.674 20.128H319.514V20.884H309.674V20.128ZM310.838 21.76H318.278V24.076H311.858V25.348H310.874V23.392H317.306V22.468H310.838V21.76ZM310.874 25.084H318.626V25.804H310.874V25.084ZM310.922 15.4H318.242V17.656H311.93V18.832H310.946V16.984H317.27V16.108H310.922V15.4ZM310.946 18.592H318.446V19.312H310.946V18.592ZM331.335 15.088H332.295V21.808H331.335V15.088ZM329.379 15.28H330.327V21.772H329.379V15.28ZM327.483 20.464H329.847V21.172H327.483V20.464ZM325.562 19.684H326.511V21.772H325.562V19.684ZM323.199 20.08L323.091 19.3C324.579 19.3 327.003 19.276 328.803 18.988L328.875 19.672C327.015 20.056 324.699 20.08 323.199 20.08ZM324.999 22.204H325.983V23.212H331.311V22.204H332.295V25.792H324.999V22.204ZM325.983 23.98V25H331.311V23.98H325.983ZM326.019 15.46C327.423 15.46 328.371 16.084 328.371 17.068C328.371 18.064 327.423 18.688 326.019 18.688C324.603 18.688 323.655 18.064 323.655 17.068C323.655 16.084 324.603 15.46 326.019 15.46ZM326.019 16.168C325.131 16.168 324.555 16.516 324.555 17.068C324.555 17.632 325.131 17.968 326.019 17.968C326.895 17.968 327.471 17.632 327.471 17.068C327.471 16.516 326.895 16.168 326.019 16.168ZM336.662 21.556H337.658V25.936H336.662V21.556ZM340.538 21.556H341.546V25.936H340.538V21.556ZM334.19 21.424H344.03V22.24H334.19V21.424ZM335.426 15.508H336.422V16.96H341.786V15.508H342.77V20.152H335.426V15.508ZM336.422 17.776V19.324H341.786V17.776H336.422ZM355.082 15.088H356.078V23.584H355.082V15.088ZM355.658 18.868H357.662V19.696H355.658V18.868ZM349.214 24.88H356.462V25.696H349.214V24.88ZM349.214 23.02H350.21V25.132H349.214V23.02ZM350.51 20.392H351.506V21.868H350.51V20.392ZM347.738 22.336L347.606 21.532C349.526 21.532 352.202 21.496 354.434 21.148L354.518 21.856C352.226 22.276 349.622 22.324 347.738 22.336ZM347.882 16.144H354.11V16.9H347.882V16.144ZM351.002 17.344C352.526 17.344 353.522 17.98 353.522 19.012C353.522 20.056 352.526 20.692 351.002 20.692C349.478 20.692 348.47 20.056 348.47 19.012C348.47 17.98 349.478 17.344 351.002 17.344ZM351.002 18.052C350.03 18.052 349.406 18.424 349.406 19.012C349.406 19.612 350.03 19.972 351.002 19.972C351.962 19.972 352.586 19.612 352.586 19.012C352.586 18.424 351.962 18.052 351.002 18.052ZM350.51 15.04H351.506V16.48H350.51V15.04ZM363.901 17.08H366.805V17.896H363.901V17.08ZM363.805 19.336H366.733V20.152H363.805V19.336ZM366.637 15.088H367.633V21.592H366.637V15.088ZM363.241 15.904H364.309C364.309 18.7 362.377 20.656 359.257 21.592L358.849 20.788C361.621 19.984 363.241 18.388 363.241 16.336V15.904ZM359.413 15.904H363.925V16.72H359.413V15.904ZM364.105 21.712C366.301 21.712 367.693 22.492 367.693 23.8C367.693 25.108 366.301 25.888 364.105 25.888C361.909 25.888 360.517 25.108 360.517 23.8C360.517 22.492 361.909 21.712 364.105 21.712ZM364.105 22.492C362.521 22.492 361.501 22.984 361.501 23.8C361.501 24.616 362.521 25.096 364.105 25.096C365.701 25.096 366.721 24.616 366.721 23.8C366.721 22.984 365.701 22.492 364.105 22.492ZM374.148 19.3H376.2V20.128H374.148V19.3ZM378.012 15.088H378.972V25.936H378.012V15.088ZM375.864 15.316H376.812V25.396H375.864V15.316ZM372.192 15.988C373.596 15.988 374.508 17.44 374.508 19.768C374.508 22.096 373.596 23.548 372.192 23.548C370.788 23.548 369.888 22.096 369.888 19.768C369.888 17.44 370.788 15.988 372.192 15.988ZM372.192 16.912C371.34 16.912 370.8 18.016 370.8 19.768C370.8 21.52 371.34 22.624 372.192 22.624C373.056 22.624 373.596 21.52 373.596 19.768C373.596 18.016 373.056 16.912 372.192 16.912ZM386.207 18.76H389.231V19.576H386.207V18.76ZM383.591 16.024H384.407V17.956C384.407 20.392 383.123 22.72 381.407 23.644L380.771 22.852C382.367 22.06 383.591 19.972 383.591 17.956V16.024ZM383.783 16.024H384.587V17.956C384.587 19.936 385.811 21.904 387.383 22.648L386.795 23.452C385.043 22.564 383.783 20.332 383.783 17.956V16.024ZM388.739 15.076H389.723V25.948H388.739V15.076ZM402.504 15.088H403.464V25.936H402.504V15.088ZM400.752 19.444H402.828V20.26H400.752V19.444ZM397.944 16.48H398.904C398.904 19.276 397.944 21.868 394.848 23.608L394.26 22.9C396.984 21.376 397.944 19.18 397.944 16.672V16.48ZM394.68 16.48H398.28V17.308H394.68V16.48ZM400.092 15.376H401.04V25.408H400.092V15.376ZM405.755 15.532H406.739V17.092H409.799V15.532H410.771V20.272H405.755V15.532ZM406.739 17.872V19.468H409.799V17.872H406.739ZM412.727 15.088H413.723V20.68H412.727V15.088ZM413.291 17.416H415.319V18.244H413.291V17.416ZM406.835 21.208H413.723V23.836H407.843V25.468H406.859V23.092H412.751V22H406.835V21.208ZM406.859 25.024H414.119V25.816H406.859V25.024ZM423.694 15.088H424.69V25.936H423.694V15.088ZM424.45 19.54H426.466V20.38H424.45V19.54ZM416.29 16.816H422.686V17.632H416.29V16.816ZM419.53 18.532C421.066 18.532 422.17 19.564 422.17 21.028C422.17 22.492 421.066 23.524 419.53 23.524C418.006 23.524 416.89 22.492 416.89 21.028C416.89 19.564 418.006 18.532 419.53 18.532ZM419.53 19.36C418.546 19.36 417.838 20.044 417.838 21.028C417.838 22 418.546 22.696 419.53 22.696C420.514 22.696 421.222 22 421.222 21.028C421.222 20.044 420.514 19.36 419.53 19.36ZM419.014 15.22H420.01V17.188H419.014V15.22ZM428.421 16.168H435.405V16.996H428.421V16.168ZM427.389 23.596H437.193V24.424H427.389V23.596ZM431.193 19.72H432.189V24.004H431.193V19.72ZM435.033 16.168H436.017V17.248C436.017 18.592 436.017 20.08 435.621 22.276L434.625 22.144C435.033 20.068 435.033 18.544 435.033 17.248V16.168ZM443.566 21.76H444.334V22.348C444.334 23.764 443.446 25.192 441.886 25.792L441.382 25.048C442.75 24.556 443.566 23.392 443.566 22.348V21.76ZM443.782 21.76H444.526V22.348C444.526 23.44 445.174 24.604 446.47 25.132L446.05 25.888C444.49 25.276 443.782 23.788 443.782 22.348V21.76ZM447.574 21.76H448.318V22.348C448.318 23.62 447.598 25.228 446.05 25.888L445.63 25.132C446.914 24.544 447.574 23.284 447.574 22.348V21.76ZM447.778 21.76H448.546V22.348C448.546 23.464 449.35 24.58 450.73 25.048L450.226 25.792C448.642 25.216 447.778 23.848 447.778 22.348V21.76ZM448.75 15.1H449.758V21.292H448.75V15.1ZM443.938 15.724C445.582 15.724 446.758 16.756 446.758 18.256C446.758 19.756 445.582 20.776 443.938 20.776C442.294 20.776 441.106 19.756 441.106 18.256C441.106 16.756 442.294 15.724 443.938 15.724ZM443.938 16.552C442.858 16.552 442.078 17.248 442.078 18.256C442.078 19.264 442.858 19.948 443.938 19.948C445.018 19.948 445.798 19.264 445.798 18.256C445.798 17.248 445.018 16.552 443.938 16.552ZM454.797 15.916C456.369 15.916 457.497 17.392 457.497 19.696C457.497 22.012 456.369 23.488 454.797 23.488C453.213 23.488 452.097 22.012 452.097 19.696C452.097 17.392 453.213 15.916 454.797 15.916ZM454.797 16.816C453.753 16.816 453.045 17.944 453.045 19.696C453.045 21.46 453.753 22.612 454.797 22.612C455.841 22.612 456.549 21.46 456.549 19.696C456.549 17.944 455.841 16.816 454.797 16.816ZM459.849 15.076H460.833V25.948H459.849V15.076ZM457.173 19.216H460.281V20.032H457.173V19.216ZM465.344 20.668H466.328V23.92H465.344V20.668ZM469.352 20.668H470.348V23.92H469.352V20.668ZM462.944 23.728H472.772V24.556H462.944V23.728ZM467.84 15.772C470.132 15.772 471.776 16.864 471.776 18.568C471.776 20.26 470.132 21.352 467.84 21.352C465.536 21.352 463.892 20.26 463.892 18.568C463.892 16.864 465.536 15.772 467.84 15.772ZM467.84 16.564C466.1 16.564 464.852 17.356 464.852 18.568C464.852 19.768 466.1 20.56 467.84 20.56C469.58 20.56 470.816 19.768 470.816 18.568C470.816 17.356 469.58 16.564 467.84 16.564ZM474.883 24.8828C474.695 24.8828 474.537 24.8184 474.408 24.6895C474.279 24.5605 474.215 24.4023 474.215 24.2148C474.215 24.0273 474.279 23.8691 474.408 23.7402C474.537 23.6113 474.695 23.5469 474.883 23.5469C475.07 23.5469 475.229 23.6113 475.357 23.7402C475.486 23.8691 475.551 24.0273 475.551 24.2148C475.551 24.4023 475.486 24.5605 475.357 24.6895C475.229 24.8184 475.07 24.8828 474.883 24.8828ZM74.1737 32.432C74.9497 32.432 75.5897 32.528 76.0937 32.72C76.5977 32.904 76.9737 33.188 77.2217 33.572C77.4697 33.948 77.5937 34.424 77.5937 35C77.5937 35.392 77.5177 35.736 77.3657 36.032C77.2217 36.32 77.0257 36.568 76.7777 36.776C76.5377 36.976 76.2777 37.14 75.9977 37.268L78.5177 41H76.5017L74.4617 37.712H73.4897V41H71.6777V32.432H74.1737ZM74.0417 33.92H73.4897V36.236H74.0777C74.4777 36.236 74.8017 36.192 75.0497 36.104C75.2977 36.016 75.4777 35.884 75.5897 35.708C75.7017 35.524 75.7577 35.304 75.7577 35.048C75.7577 34.776 75.6937 34.56 75.5657 34.4C75.4457 34.232 75.2577 34.112 75.0017 34.04C74.7537 33.96 74.4337 33.92 74.0417 33.92ZM82.1555 34.328C82.7635 34.328 83.2835 34.444 83.7155 34.676C84.1555 34.908 84.4955 35.244 84.7355 35.684C84.9755 36.124 85.0955 36.664 85.0955 37.304V38.168H80.8715C80.8875 38.672 81.0355 39.068 81.3155 39.356C81.6035 39.644 81.9995 39.788 82.5035 39.788C82.9275 39.788 83.3115 39.748 83.6555 39.668C83.9995 39.58 84.3555 39.448 84.7235 39.272V40.652C84.4035 40.812 84.0635 40.928 83.7035 41C83.3515 41.08 82.9235 41.12 82.4195 41.12C81.7635 41.12 81.1835 41 80.6795 40.76C80.1755 40.512 79.7795 40.14 79.4915 39.644C79.2035 39.148 79.0595 38.524 79.0595 37.772C79.0595 37.004 79.1875 36.368 79.4435 35.864C79.7075 35.352 80.0715 34.968 80.5355 34.712C80.9995 34.456 81.5395 34.328 82.1555 34.328ZM82.1675 35.6C81.8235 35.6 81.5355 35.712 81.3035 35.936C81.0795 36.16 80.9475 36.508 80.9075 36.98H83.4155C83.4155 36.716 83.3675 36.48 83.2715 36.272C83.1835 36.064 83.0475 35.9 82.8635 35.78C82.6795 35.66 82.4475 35.6 82.1675 35.6ZM89.2334 34.316C90.1134 34.316 90.7854 34.508 91.2494 34.892C91.7214 35.268 91.9574 35.848 91.9574 36.632V41H90.7094L90.3614 40.112H90.3134C90.1294 40.344 89.9374 40.536 89.7374 40.688C89.5454 40.84 89.3214 40.948 89.0654 41.012C88.8174 41.084 88.5094 41.12 88.1414 41.12C87.7574 41.12 87.4094 41.048 87.0974 40.904C86.7934 40.752 86.5534 40.524 86.3774 40.22C86.2014 39.908 86.1134 39.516 86.1134 39.044C86.1134 38.348 86.3574 37.836 86.8454 37.508C87.3334 37.172 88.0654 36.988 89.0414 36.956L90.1814 36.92V36.632C90.1814 36.288 90.0894 36.036 89.9054 35.876C89.7294 35.716 89.4814 35.636 89.1614 35.636C88.8414 35.636 88.5294 35.684 88.2254 35.78C87.9214 35.868 87.6174 35.98 87.3134 36.116L86.7254 34.904C87.0774 34.72 87.4654 34.576 87.8894 34.472C88.3214 34.368 88.7694 34.316 89.2334 34.316ZM89.4854 37.988C88.9094 38.004 88.5094 38.108 88.2854 38.3C88.0614 38.492 87.9494 38.744 87.9494 39.056C87.9494 39.328 88.0294 39.524 88.1894 39.644C88.3494 39.756 88.5574 39.812 88.8134 39.812C89.1974 39.812 89.5214 39.7 89.7854 39.476C90.0494 39.244 90.1814 38.92 90.1814 38.504V37.964L89.4854 37.988ZM96.4516 41.12C95.8036 41.12 95.2516 41.004 94.7956 40.772C94.3396 40.532 93.9916 40.164 93.7516 39.668C93.5116 39.172 93.3916 38.536 93.3916 37.76C93.3916 36.96 93.5276 36.308 93.7996 35.804C94.0716 35.3 94.4476 34.928 94.9276 34.688C95.4156 34.448 95.9756 34.328 96.6076 34.328C97.0556 34.328 97.4436 34.372 97.7716 34.46C98.1076 34.548 98.3996 34.652 98.6476 34.772L98.1196 36.152C97.8396 36.04 97.5756 35.948 97.3276 35.876C97.0876 35.804 96.8476 35.768 96.6076 35.768C96.2956 35.768 96.0356 35.844 95.8276 35.996C95.6196 36.14 95.4636 36.36 95.3596 36.656C95.2636 36.944 95.2156 37.308 95.2156 37.748C95.2156 38.18 95.2676 38.54 95.3716 38.828C95.4836 39.108 95.6436 39.32 95.8516 39.464C96.0596 39.6 96.3116 39.668 96.6076 39.668C96.9836 39.668 97.3156 39.62 97.6036 39.524C97.8916 39.42 98.1716 39.28 98.4436 39.104V40.628C98.1716 40.804 97.8836 40.928 97.5796 41C97.2836 41.08 96.9076 41.12 96.4516 41.12ZM102.712 39.692C102.912 39.692 103.104 39.672 103.288 39.632C103.472 39.592 103.656 39.544 103.84 39.488V40.82C103.648 40.9 103.408 40.968 103.12 41.024C102.84 41.088 102.532 41.12 102.196 41.12C101.804 41.12 101.452 41.056 101.14 40.928C100.836 40.8 100.592 40.58 100.408 40.268C100.232 39.948 100.144 39.508 100.144 38.948V35.792H99.2916V35.036L100.276 34.436L100.792 33.056H101.932V34.448H103.768V35.792H101.932V38.948C101.932 39.196 102.004 39.384 102.148 39.512C102.292 39.632 102.48 39.692 102.712 39.692ZM107.555 36.56H108.551V39.152H107.555V36.56ZM108.047 31.784C109.715 31.784 110.915 32.828 110.915 34.34C110.915 35.852 109.715 36.896 108.047 36.896C106.379 36.896 105.179 35.852 105.179 34.34C105.179 32.828 106.379 31.784 108.047 31.784ZM108.047 32.636C106.943 32.636 106.151 33.332 106.151 34.34C106.151 35.348 106.943 36.044 108.047 36.044C109.151 36.044 109.943 35.348 109.943 34.34C109.943 33.332 109.151 32.636 108.047 32.636ZM112.151 31.088H113.147V41.936H112.151V31.088ZM112.859 35.552H114.863V36.392H112.859V35.552ZM104.831 39.596L104.687 38.768C106.643 38.756 109.259 38.744 111.467 38.444L111.551 39.188C109.259 39.572 106.727 39.596 104.831 39.596ZM126.371 41H124.067L120.335 34.52H120.287C120.295 34.72 120.303 34.924 120.311 35.132C120.319 35.332 120.327 35.536 120.335 35.744C120.351 35.944 120.363 36.148 120.371 36.356C120.379 36.556 120.387 36.76 120.395 36.968V41H118.775V32.432H121.067L124.787 38.852H124.823C124.815 38.652 124.807 38.456 124.799 38.264C124.791 38.064 124.783 37.868 124.775 37.676C124.775 37.476 124.771 37.28 124.763 37.088C124.755 36.888 124.747 36.688 124.739 36.488V32.432H126.371V41ZM131.093 34.328C131.701 34.328 132.221 34.444 132.653 34.676C133.093 34.908 133.433 35.244 133.673 35.684C133.913 36.124 134.033 36.664 134.033 37.304V38.168H129.809C129.825 38.672 129.973 39.068 130.253 39.356C130.541 39.644 130.937 39.788 131.441 39.788C131.865 39.788 132.249 39.748 132.593 39.668C132.937 39.58 133.293 39.448 133.661 39.272V40.652C133.341 40.812 133.001 40.928 132.641 41C132.289 41.08 131.861 41.12 131.357 41.12C130.701 41.12 130.121 41 129.617 40.76C129.113 40.512 128.717 40.14 128.429 39.644C128.141 39.148 127.997 38.524 127.997 37.772C127.997 37.004 128.125 36.368 128.381 35.864C128.645 35.352 129.009 34.968 129.473 34.712C129.937 34.456 130.477 34.328 131.093 34.328ZM131.105 35.6C130.761 35.6 130.473 35.712 130.241 35.936C130.017 36.16 129.885 36.508 129.845 36.98H132.353C132.353 36.716 132.305 36.48 132.209 36.272C132.121 36.064 131.985 35.9 131.801 35.78C131.617 35.66 131.385 35.6 131.105 35.6ZM136.593 37.652L134.481 34.448H136.509L137.781 36.536L139.065 34.448H141.092L138.957 37.652L141.189 41H139.161L137.781 38.756L136.401 41H134.373L136.593 37.652ZM144.946 39.692C145.146 39.692 145.338 39.672 145.522 39.632C145.706 39.592 145.89 39.544 146.074 39.488V40.82C145.882 40.9 145.642 40.968 145.354 41.024C145.074 41.088 144.766 41.12 144.43 41.12C144.038 41.12 143.686 41.056 143.374 40.928C143.07 40.8 142.826 40.58 142.642 40.268C142.466 39.948 142.378 39.508 142.378 38.948V35.792H141.526V35.036L142.51 34.436L143.026 33.056H144.166V34.448H146.002V35.792H144.166V38.948C144.166 39.196 144.238 39.384 144.382 39.512C144.526 39.632 144.714 39.692 144.946 39.692ZM148.1 40.7715C147.842 40.7715 147.621 40.6816 147.438 40.502C147.258 40.3223 147.168 40.1016 147.168 39.8398C147.168 39.582 147.258 39.3633 147.438 39.1836C147.621 39.0039 147.842 38.9141 148.1 38.9141C148.361 38.9141 148.582 39.0039 148.762 39.1836C148.941 39.3633 149.031 39.582 149.031 39.8398C149.031 40.1016 148.941 40.3223 148.762 40.502C148.582 40.6816 148.361 40.7715 148.1 40.7715ZM150.166 43.88C149.966 43.88 149.758 43.864 149.542 43.832C149.318 43.808 149.134 43.776 148.99 43.736V42.332C149.134 42.364 149.27 42.388 149.398 42.404C149.526 42.428 149.67 42.44 149.83 42.44C150.07 42.44 150.274 42.372 150.442 42.236C150.61 42.1 150.694 41.836 150.694 41.444V34.448H152.482V41.708C152.482 42.108 152.406 42.472 152.254 42.8C152.102 43.128 151.854 43.388 151.51 43.58C151.174 43.78 150.726 43.88 150.166 43.88ZM150.622 32.756C150.622 32.42 150.714 32.192 150.898 32.072C151.09 31.944 151.322 31.88 151.594 31.88C151.858 31.88 152.086 31.944 152.278 32.072C152.47 32.192 152.566 32.42 152.566 32.756C152.566 33.084 152.47 33.312 152.278 33.44C152.086 33.568 151.858 33.632 151.594 33.632C151.322 33.632 151.09 33.568 150.898 33.44C150.714 33.312 150.622 33.084 150.622 32.756ZM158.922 39.056C158.922 39.496 158.818 39.872 158.61 40.184C158.402 40.488 158.09 40.72 157.674 40.88C157.258 41.04 156.742 41.12 156.126 41.12C155.67 41.12 155.278 41.088 154.95 41.024C154.622 40.968 154.294 40.872 153.966 40.736V39.26C154.318 39.42 154.698 39.552 155.106 39.656C155.514 39.76 155.874 39.812 156.186 39.812C156.538 39.812 156.786 39.76 156.93 39.656C157.082 39.552 157.158 39.416 157.158 39.248C157.158 39.136 157.126 39.036 157.062 38.948C157.006 38.86 156.878 38.76 156.678 38.648C156.478 38.536 156.166 38.392 155.742 38.216C155.334 38.04 154.998 37.868 154.734 37.7C154.47 37.524 154.274 37.316 154.146 37.076C154.018 36.828 153.954 36.52 153.954 36.152C153.954 35.544 154.19 35.088 154.662 34.784C155.134 34.48 155.762 34.328 156.546 34.328C156.954 34.328 157.342 34.368 157.71 34.448C158.078 34.528 158.458 34.66 158.85 34.844L158.31 36.128C158.094 36.032 157.886 35.948 157.686 35.876C157.486 35.804 157.29 35.748 157.098 35.708C156.914 35.668 156.722 35.648 156.522 35.648C156.258 35.648 156.058 35.684 155.922 35.756C155.794 35.828 155.73 35.936 155.73 36.08C155.73 36.184 155.762 36.28 155.826 36.368C155.898 36.448 156.03 36.536 156.222 36.632C156.422 36.728 156.714 36.856 157.098 37.016C157.474 37.168 157.798 37.328 158.07 37.496C158.342 37.656 158.55 37.86 158.694 38.108C158.846 38.348 158.922 38.664 158.922 39.056ZM159.967 36.128H169.807V36.884H159.967V36.128ZM161.131 37.76H168.571V40.076H162.151V41.348H161.167V39.392H167.599V38.468H161.131V37.76ZM161.167 41.084H168.919V41.804H161.167V41.084ZM161.215 31.4H168.535V33.656H162.223V34.832H161.239V32.984H167.563V32.108H161.215V31.4ZM161.239 34.592H168.739V35.312H161.239V34.592ZM176.107 32.024H176.923V33.968C176.923 36.368 175.627 38.708 173.911 39.62L173.299 38.828C174.871 38.036 176.107 35.948 176.107 33.968V32.024ZM176.287 32.024H177.091V33.968C177.091 35.876 178.303 37.856 179.839 38.624L179.227 39.416C177.547 38.516 176.287 36.296 176.287 33.968V32.024ZM180.787 31.088H181.795V41.936H180.787V31.088ZM181.555 35.48H183.571V36.32H181.555V35.48ZM186.907 34.76H187.891V36.812H186.907V34.76ZM190.891 34.76H191.875V36.812H190.891V34.76ZM184.483 36.452H194.287V37.256H184.483V36.452ZM189.379 38.072C191.707 38.072 193.099 38.756 193.099 39.992C193.099 41.228 191.707 41.924 189.379 41.924C187.051 41.924 185.659 41.228 185.659 39.992C185.659 38.756 187.051 38.072 189.379 38.072ZM189.379 38.84C187.687 38.84 186.667 39.26 186.667 39.992C186.667 40.736 187.687 41.144 189.379 41.144C191.083 41.144 192.091 40.736 192.091 39.992C192.091 39.26 191.083 38.84 189.379 38.84ZM189.391 31.28C191.743 31.28 193.207 32.036 193.207 33.308C193.207 34.568 191.743 35.312 189.391 35.312C187.027 35.312 185.575 34.568 185.575 33.308C185.575 32.036 187.027 31.28 189.391 31.28ZM189.391 32.06C187.663 32.06 186.595 32.516 186.595 33.308C186.595 34.088 187.663 34.544 189.391 34.544C191.119 34.544 192.187 34.088 192.187 33.308C192.187 32.516 191.119 32.06 189.391 32.06ZM195.51 32.936H200.886V33.752H195.51V32.936ZM198.198 34.472C199.554 34.472 200.538 35.492 200.538 36.956C200.538 38.408 199.554 39.428 198.198 39.428C196.854 39.428 195.87 38.408 195.87 36.956C195.87 35.492 196.854 34.472 198.198 34.472ZM198.198 35.324C197.37 35.324 196.77 35.996 196.77 36.956C196.77 37.916 197.37 38.588 198.198 38.588C199.038 38.588 199.65 37.916 199.65 36.956C199.65 35.996 199.038 35.324 198.198 35.324ZM203.754 31.088H204.714V41.936H203.754V31.088ZM202.026 35.648H204.078V36.476H202.026V35.648ZM201.438 31.328H202.374V41.408H201.438V31.328ZM197.718 31.4H198.702V33.44H197.718V31.4ZM216.342 31.076H217.35V41.948H216.342V31.076ZM217.11 35.36H219.126V36.2H217.11V35.36ZM209.466 38.408H210.318C212.322 38.408 213.726 38.336 215.346 38.036L215.454 38.876C213.786 39.188 212.358 39.248 210.318 39.248H209.466V38.408ZM209.466 32.132H214.506V32.948H210.45V38.78H209.466V32.132ZM228.161 32.708H230.045V33.536H228.161V32.708ZM228.161 35.012H230.045V35.84H228.161V35.012ZM223.073 31.724C224.705 31.724 225.905 32.78 225.905 34.292C225.905 35.792 224.705 36.836 223.073 36.836C221.441 36.836 220.241 35.792 220.241 34.292C220.241 32.78 221.441 31.724 223.073 31.724ZM223.073 32.564C221.993 32.564 221.213 33.272 221.213 34.292C221.213 35.312 221.993 36.008 223.073 36.008C224.153 36.008 224.933 35.312 224.933 34.292C224.933 33.272 224.153 32.564 223.073 32.564ZM227.465 31.088H228.461V37.508H227.465V31.088ZM225.005 37.856C227.213 37.856 228.569 38.612 228.569 39.884C228.569 41.168 227.213 41.912 225.005 41.912C222.797 41.912 221.441 41.168 221.441 39.884C221.441 38.612 222.797 37.856 225.005 37.856ZM225.005 38.66C223.397 38.66 222.413 39.104 222.413 39.884C222.413 40.664 223.397 41.12 225.005 41.12C226.613 41.12 227.597 40.664 227.597 39.884C227.597 39.104 226.613 38.66 225.005 38.66ZM238.504 31.1H239.5V39.236H238.504V31.1ZM239.188 34.652H241.108V35.492H239.188V34.652ZM231.112 32.408H237.52V33.212H231.112V32.408ZM234.316 33.812C235.852 33.812 236.908 34.616 236.908 35.84C236.908 37.052 235.852 37.856 234.316 37.856C232.768 37.856 231.712 37.052 231.712 35.84C231.712 34.616 232.768 33.812 234.316 33.812ZM234.316 34.592C233.332 34.592 232.66 35.084 232.66 35.84C232.66 36.584 233.332 37.076 234.316 37.076C235.288 37.076 235.96 36.584 235.96 35.84C235.96 35.084 235.288 34.592 234.316 34.592ZM233.812 31.088H234.808V32.828H233.812V31.088ZM232.744 40.88H239.992V41.696H232.744V40.88ZM232.744 38.588H233.74V41.228H232.744V38.588ZM246.209 41H245.129V32.432H249.917V33.38H246.209V36.416H249.689V37.364H246.209V41ZM256.14 41H251.352V32.432H256.14V33.38H252.432V36.056H255.924V36.992H252.432V40.052H256.14V41ZM265.305 34.76H268.329V35.576H265.305V34.76ZM262.689 32.024H263.505V33.956C263.505 36.392 262.221 38.72 260.505 39.644L259.869 38.852C261.465 38.06 262.689 35.972 262.689 33.956V32.024ZM262.881 32.024H263.685V33.956C263.685 35.936 264.909 37.904 266.481 38.648L265.893 39.452C264.141 38.564 262.881 36.332 262.881 33.956V32.024ZM267.837 31.076H268.821V41.948H267.837V31.076ZM278.804 31.076H279.8V41.948H278.804V31.076ZM271.544 32H272.528V34.868H275.66V32H276.656V39.332H271.544V32ZM272.528 35.66V38.516H275.66V35.66H272.528ZM286.315 31.832H287.179V32.66C287.179 35.024 284.983 36.86 282.811 37.352L282.367 36.524C284.275 36.164 286.315 34.508 286.315 32.66V31.832ZM286.495 31.832H287.359V32.66C287.359 34.52 289.411 36.164 291.307 36.524L290.863 37.352C288.703 36.86 286.495 35.036 286.495 32.66V31.832ZM281.971 39.656H291.799V40.472H281.971V39.656ZM292.998 36.128H302.838V36.884H292.998V36.128ZM294.162 37.76H301.602V40.076H295.182V41.348H294.198V39.392H300.63V38.468H294.162V37.76ZM294.198 41.084H301.95V41.804H294.198V41.084ZM294.246 31.4H301.566V33.656H295.254V34.832H294.27V32.984H300.594V32.108H294.246V31.4ZM294.27 34.592H301.77V35.312H294.27V34.592ZM306.871 32.108H307.819V34.76H310.087V32.108H311.011V39.224H306.871V32.108ZM307.819 35.564V38.408H310.087V35.564H307.819ZM314.743 31.088H315.703V41.936H314.743V31.088ZM313.003 35.384H315.091V36.2H313.003V35.384ZM312.343 31.316H313.291V41.396H312.343V31.316ZM317.526 39.764H327.354V40.592H317.526V39.764ZM321.906 36.956H322.902V40.136H321.906V36.956ZM318.378 32.12H326.43V32.936H318.378V32.12ZM318.402 36.488H326.418V37.292H318.402V36.488ZM320.07 32.78H321.066V36.632H320.07V32.78ZM323.766 32.78H324.75V36.632H323.766V32.78ZM335.909 31.088H336.905V41.936H335.909V31.088ZM336.665 35.54H338.681V36.38H336.665V35.54ZM328.505 32.816H334.901V33.632H328.505V32.816ZM331.745 34.532C333.281 34.532 334.385 35.564 334.385 37.028C334.385 38.492 333.281 39.524 331.745 39.524C330.221 39.524 329.105 38.492 329.105 37.028C329.105 35.564 330.221 34.532 331.745 34.532ZM331.745 35.36C330.761 35.36 330.053 36.044 330.053 37.028C330.053 38 330.761 38.696 331.745 38.696C332.729 38.696 333.437 38 333.437 37.028C333.437 36.044 332.729 35.36 331.745 35.36ZM331.229 31.22H332.225V33.188H331.229V31.22ZM340.636 32.168H347.62V32.996H340.636V32.168ZM339.604 39.596H349.408V40.424H339.604V39.596ZM343.408 35.72H344.404V40.004H343.408V35.72ZM347.248 32.168H348.232V33.248C348.232 34.592 348.232 36.08 347.836 38.276L346.84 38.144C347.248 36.068 347.248 34.544 347.248 33.248V32.168ZM352.347 39.74C352.275 40.02 352.183 40.324 352.071 40.652C351.959 40.98 351.835 41.304 351.699 41.624C351.571 41.952 351.443 42.26 351.315 42.548H350.535C350.615 42.244 350.691 41.916 350.763 41.564C350.843 41.22 350.915 40.88 350.979 40.544C351.043 40.2 351.095 39.888 351.135 39.608H352.263L352.347 39.74ZM357.539 31.592H364.523V32.396H357.539V31.592ZM363.875 31.592H364.847V32.432C364.847 33.332 364.847 34.4 364.535 35.828L363.551 35.72C363.875 34.316 363.875 33.32 363.875 32.432V31.592ZM364.151 33.428V34.136L357.395 34.436L357.263 33.644L364.151 33.428ZM356.291 35.528H366.083V36.32H356.291V35.528ZM357.431 37.352H364.931V39.884H358.439V41.348H357.455V39.14H363.947V38.12H357.431V37.352ZM357.455 41.012H365.303V41.792H357.455V41.012ZM374.674 31.076H375.67V41.948H374.674V31.076ZM375.43 35.396H377.446V36.236H375.43V35.396ZM367.762 38.504H368.626C370.666 38.504 372.082 38.432 373.726 38.12L373.834 38.948C372.142 39.248 370.702 39.332 368.626 39.332H367.762V38.504ZM367.738 32.096H372.646V35.984H368.746V38.84H367.762V35.168H371.662V32.912H367.738V32.096ZM386.242 31.076H387.238V41.948H386.242V31.076ZM381.514 31.916C383.122 31.916 384.274 33.392 384.274 35.696C384.274 38.012 383.122 39.488 381.514 39.488C379.918 39.488 378.766 38.012 378.766 35.696C378.766 33.392 379.918 31.916 381.514 31.916ZM381.514 32.816C380.458 32.816 379.714 33.944 379.714 35.696C379.714 37.46 380.458 38.612 381.514 38.612C382.582 38.612 383.314 37.46 383.314 35.696C383.314 33.944 382.582 32.816 381.514 32.816ZM394.809 34.1H397.785V34.904H394.809V34.1ZM397.329 31.1H398.325V39.08H397.329V31.1ZM391.401 40.88H398.625V41.696H391.401V40.88ZM391.401 38.276H392.397V41.228H391.401V38.276ZM392.361 31.784C393.957 31.784 395.157 32.9 395.157 34.472C395.157 36.044 393.957 37.16 392.361 37.16C390.765 37.16 389.565 36.044 389.565 34.472C389.565 32.9 390.765 31.784 392.361 31.784ZM392.361 32.66C391.305 32.66 390.525 33.404 390.525 34.472C390.525 35.54 391.305 36.284 392.361 36.284C393.405 36.284 394.197 35.54 394.197 34.472C394.197 33.404 393.405 32.66 392.361 32.66ZM401.708 36.932H409.16V37.736H401.708V36.932ZM400.448 39.716H410.276V40.544H400.448V39.716ZM401.708 32.012H409.04V32.828H402.716V37.184H401.708V32.012ZM402.392 34.436H408.812V35.228H402.392V34.436ZM415.879 35.3H417.931V36.128H415.879V35.3ZM419.743 31.088H420.703V41.936H419.743V31.088ZM417.595 31.316H418.543V41.396H417.595V31.316ZM413.923 31.988C415.327 31.988 416.239 33.44 416.239 35.768C416.239 38.096 415.327 39.548 413.923 39.548C412.519 39.548 411.619 38.096 411.619 35.768C411.619 33.44 412.519 31.988 413.923 31.988ZM413.923 32.912C413.071 32.912 412.531 34.016 412.531 35.768C412.531 37.52 413.071 38.624 413.923 38.624C414.787 38.624 415.327 37.52 415.327 35.768C415.327 34.016 414.787 32.912 413.923 32.912ZM427.938 34.76H430.962V35.576H427.938V34.76ZM425.322 32.024H426.138V33.956C426.138 36.392 424.854 38.72 423.138 39.644L422.502 38.852C424.098 38.06 425.322 35.972 425.322 33.956V32.024ZM425.514 32.024H426.318V33.956C426.318 35.936 427.542 37.904 429.114 38.648L428.526 39.452C426.774 38.564 425.514 36.332 425.514 33.956V32.024ZM430.47 31.076H431.454V41.948H430.47V31.076ZM89.4179 47.088H90.4259V52.704H89.4179V47.088ZM83.3459 53.232H90.4259V55.848H84.3539V57.48H83.3819V55.104H89.4299V54.024H83.3459V53.232ZM83.3819 57.024H90.8219V57.816H83.3819V57.024ZM82.0019 47.82H87.8219V48.612H82.0019V47.82ZM81.8099 52.344L81.7019 51.516C83.6339 51.516 86.2259 51.468 88.3379 51.204L88.3979 51.936C86.2379 52.26 83.7179 52.332 81.8099 52.344ZM83.0699 48.18H84.0299V51.876H83.0699V48.18ZM85.7819 48.18H86.7539V51.876H85.7819V48.18ZM94.9609 52.668H95.9449V55.92H94.9609V52.668ZM98.9689 52.668H99.9649V55.92H98.9689V52.668ZM92.5609 55.728H102.389V56.556H92.5609V55.728ZM97.4569 47.772C99.7489 47.772 101.393 48.864 101.393 50.568C101.393 52.26 99.7489 53.352 97.4569 53.352C95.1529 53.352 93.5089 52.26 93.5089 50.568C93.5089 48.864 95.1529 47.772 97.4569 47.772ZM97.4569 48.564C95.7169 48.564 94.4689 49.356 94.4689 50.568C94.4689 51.768 95.7169 52.56 97.4569 52.56C99.1969 52.56 100.433 51.768 100.433 50.568C100.433 49.356 99.1969 48.564 97.4569 48.564ZM111.016 47.1H112.012V55.236H111.016V47.1ZM111.7 50.652H113.62V51.492H111.7V50.652ZM103.624 48.408H110.032V49.212H103.624V48.408ZM106.828 49.812C108.364 49.812 109.42 50.616 109.42 51.84C109.42 53.052 108.364 53.856 106.828 53.856C105.28 53.856 104.224 53.052 104.224 51.84C104.224 50.616 105.28 49.812 106.828 49.812ZM106.828 50.592C105.844 50.592 105.172 51.084 105.172 51.84C105.172 52.584 105.844 53.076 106.828 53.076C107.8 53.076 108.472 52.584 108.472 51.84C108.472 51.084 107.8 50.592 106.828 50.592ZM106.324 47.088H107.32V48.828H106.324V47.088ZM105.256 56.88H112.504V57.696H105.256V56.88ZM105.256 54.588H106.252V57.228H105.256V54.588ZM122.861 49.896H125.309V50.724H122.861V49.896ZM124.997 47.088H125.993V53.556H124.997V47.088ZM122.429 53.88C124.661 53.88 126.041 54.636 126.041 55.908C126.041 57.192 124.661 57.924 122.429 57.924C120.185 57.924 118.805 57.192 118.805 55.908C118.805 54.636 120.185 53.88 122.429 53.88ZM122.429 54.66C120.797 54.66 119.801 55.116 119.801 55.908C119.801 56.688 120.797 57.144 122.429 57.144C124.061 57.144 125.057 56.688 125.057 55.908C125.057 55.116 124.061 54.66 122.429 54.66ZM119.837 48.18H120.653V49.056C120.653 51.06 119.429 52.776 117.629 53.448L117.113 52.656C118.721 52.068 119.837 50.616 119.837 49.056V48.18ZM120.029 48.18H120.833V49.056C120.833 50.46 121.889 51.804 123.461 52.356L122.957 53.148C121.193 52.512 120.029 50.88 120.029 49.056V48.18ZM117.413 47.88H123.209V48.696H117.413V47.88ZM128.116 55.728H137.944V56.556H128.116V55.728ZM132.508 53.136H133.504V55.968H132.508V53.136ZM129.268 47.856H130.252V49.788H135.784V47.856H136.768V53.4H129.268V47.856ZM130.252 50.592V52.584H135.784V50.592H130.252ZM140.475 50.34H147.843V51.156H140.475V50.34ZM139.143 52.608H148.983V53.424H139.143V52.608ZM140.475 47.484H141.459V50.748H140.475V47.484ZM140.403 56.856H147.903V57.672H140.403V56.856ZM140.403 54.504H141.387V57.072H140.403V54.504ZM152.295 59.88C152.095 59.88 151.919 59.864 151.767 59.832C151.615 59.808 151.483 59.776 151.371 59.736V58.884C151.491 58.916 151.615 58.944 151.743 58.968C151.871 58.992 152.011 59.004 152.163 59.004C152.419 59.004 152.631 58.932 152.799 58.788C152.967 58.652 153.051 58.388 153.051 57.996V50.568H154.107V57.96C154.107 58.36 154.043 58.704 153.915 58.992C153.787 59.28 153.591 59.5 153.327 59.652C153.063 59.804 152.719 59.88 152.295 59.88ZM152.967 48.828C152.967 48.596 153.027 48.428 153.147 48.324C153.267 48.212 153.415 48.156 153.591 48.156C153.751 48.156 153.891 48.212 154.011 48.324C154.139 48.428 154.203 48.596 154.203 48.828C154.203 49.052 154.139 49.22 154.011 49.332C153.891 49.444 153.751 49.5 153.591 49.5C153.415 49.5 153.267 49.444 153.147 49.332C153.027 49.22 152.967 49.052 152.967 48.828ZM160.333 55.224C160.333 55.64 160.229 55.988 160.021 56.268C159.813 56.548 159.517 56.76 159.133 56.904C158.749 57.048 158.293 57.12 157.765 57.12C157.317 57.12 156.929 57.084 156.601 57.012C156.281 56.94 155.997 56.84 155.749 56.712V55.752C156.005 55.88 156.313 56 156.673 56.112C157.041 56.216 157.413 56.268 157.789 56.268C158.325 56.268 158.713 56.184 158.953 56.016C159.193 55.84 159.313 55.608 159.313 55.32C159.313 55.16 159.269 55.016 159.181 54.888C159.093 54.76 158.933 54.632 158.701 54.504C158.477 54.376 158.153 54.232 157.729 54.072C157.313 53.912 156.957 53.752 156.661 53.592C156.365 53.432 156.137 53.24 155.977 53.016C155.817 52.792 155.737 52.504 155.737 52.152C155.737 51.608 155.957 51.188 156.397 50.892C156.845 50.596 157.429 50.448 158.149 50.448C158.541 50.448 158.905 50.488 159.241 50.568C159.585 50.64 159.905 50.744 160.201 50.88L159.841 51.72C159.665 51.64 159.477 51.572 159.277 51.516C159.085 51.452 158.889 51.404 158.689 51.372C158.489 51.332 158.285 51.312 158.077 51.312C157.645 51.312 157.313 51.384 157.081 51.528C156.857 51.664 156.745 51.852 156.745 52.092C156.745 52.268 156.797 52.42 156.901 52.548C157.005 52.668 157.177 52.788 157.417 52.908C157.665 53.02 157.993 53.156 158.401 53.316C158.809 53.468 159.157 53.624 159.445 53.784C159.733 53.944 159.953 54.14 160.105 54.372C160.257 54.596 160.333 54.88 160.333 55.224ZM164.323 50.46C165.107 50.46 165.687 50.632 166.063 50.976C166.439 51.32 166.627 51.868 166.627 52.62V57H165.859L165.655 56.088H165.607C165.423 56.32 165.231 56.516 165.031 56.676C164.839 56.828 164.615 56.94 164.359 57.012C164.111 57.084 163.807 57.12 163.447 57.12C163.063 57.12 162.715 57.052 162.403 56.916C162.099 56.78 161.859 56.572 161.683 56.292C161.507 56.004 161.419 55.644 161.419 55.212C161.419 54.572 161.671 54.08 162.175 53.736C162.679 53.384 163.455 53.192 164.503 53.16L165.595 53.124V52.74C165.595 52.204 165.479 51.832 165.247 51.624C165.015 51.416 164.687 51.312 164.263 51.312C163.927 51.312 163.607 51.364 163.303 51.468C162.999 51.564 162.715 51.676 162.451 51.804L162.127 51.012C162.407 50.86 162.739 50.732 163.123 50.628C163.507 50.516 163.907 50.46 164.323 50.46ZM164.635 53.892C163.835 53.924 163.279 54.052 162.967 54.276C162.663 54.5 162.511 54.816 162.511 55.224C162.511 55.584 162.619 55.848 162.835 56.016C163.059 56.184 163.343 56.268 163.687 56.268C164.231 56.268 164.683 56.12 165.043 55.824C165.403 55.52 165.583 55.056 165.583 54.432V53.856L164.635 53.892ZM171.674 50.448C172.466 50.448 173.102 50.724 173.582 51.276C174.07 51.828 174.314 52.66 174.314 53.772C174.314 54.5 174.202 55.116 173.978 55.62C173.762 56.116 173.454 56.492 173.054 56.748C172.662 56.996 172.198 57.12 171.662 57.12C171.334 57.12 171.042 57.076 170.786 56.988C170.53 56.9 170.31 56.788 170.126 56.652C169.95 56.508 169.798 56.352 169.67 56.184H169.598C169.614 56.32 169.63 56.492 169.646 56.7C169.662 56.908 169.67 57.088 169.67 57.24V59.88H168.614V50.568H169.478L169.622 51.444H169.67C169.798 51.26 169.95 51.092 170.126 50.94C170.31 50.788 170.526 50.668 170.774 50.58C171.03 50.492 171.33 50.448 171.674 50.448ZM171.482 51.336C171.05 51.336 170.702 51.42 170.438 51.588C170.174 51.748 169.982 51.992 169.862 52.32C169.742 52.648 169.678 53.064 169.67 53.568V53.772C169.67 54.3 169.726 54.748 169.838 55.116C169.95 55.484 170.138 55.764 170.402 55.956C170.674 56.148 171.042 56.244 171.506 56.244C171.898 56.244 172.218 56.136 172.466 55.92C172.722 55.704 172.91 55.412 173.03 55.044C173.158 54.668 173.222 54.24 173.222 53.76C173.222 53.024 173.078 52.436 172.79 51.996C172.51 51.556 172.074 51.336 171.482 51.336ZM177.053 50.568V57H175.997V50.568H177.053ZM176.537 48.156C176.697 48.156 176.837 48.212 176.957 48.324C177.085 48.428 177.149 48.596 177.149 48.828C177.149 49.052 177.085 49.22 176.957 49.332C176.837 49.444 176.697 49.5 176.537 49.5C176.361 49.5 176.213 49.444 176.093 49.332C175.973 49.22 175.913 49.052 175.913 48.828C175.913 48.596 175.973 48.428 176.093 48.324C176.213 48.212 176.361 48.156 176.537 48.156ZM178.658 52.128H188.498V52.884H178.658V52.128ZM179.822 53.76H187.262V56.076H180.842V57.348H179.858V55.392H186.29V54.468H179.822V53.76ZM179.858 57.084H187.61V57.804H179.858V57.084ZM179.906 47.4H187.226V49.656H180.914V50.832H179.93V48.984H186.254V48.108H179.906V47.4ZM179.93 50.592H187.43V51.312H179.93V50.592ZM199.551 47.088H200.547V53.484H199.551V47.088ZM200.127 49.86H202.131V50.688H200.127V49.86ZM193.527 53.976H200.547V56.172H194.523V57.324H193.551V55.512H199.575V54.684H193.527V53.976ZM193.551 57.108H200.967V57.816H193.551V57.108ZM194.979 51.54H195.975V52.92H194.979V51.54ZM192.195 53.244L192.075 52.512C194.007 52.512 196.671 52.5 198.903 52.188L198.987 52.824C196.671 53.232 194.091 53.244 192.195 53.244ZM192.351 47.916H198.579V48.624H192.351V47.916ZM195.471 48.96C197.007 48.96 197.991 49.488 197.991 50.388C197.991 51.288 197.007 51.816 195.471 51.816C193.923 51.816 192.939 51.288 192.939 50.388C192.939 49.488 193.923 48.96 195.471 48.96ZM195.471 49.62C194.499 49.62 193.875 49.908 193.875 50.388C193.875 50.868 194.499 51.168 195.471 51.168C196.443 51.168 197.055 50.868 197.055 50.388C197.055 49.908 196.443 49.62 195.471 49.62ZM194.979 46.98H195.975V48.288H194.979V46.98ZM205.598 50.76H206.582V52.812H205.598V50.76ZM209.582 50.76H210.566V52.812H209.582V50.76ZM203.174 52.452H212.978V53.256H203.174V52.452ZM208.07 54.072C210.398 54.072 211.79 54.756 211.79 55.992C211.79 57.228 210.398 57.924 208.07 57.924C205.742 57.924 204.35 57.228 204.35 55.992C204.35 54.756 205.742 54.072 208.07 54.072ZM208.07 54.84C206.378 54.84 205.358 55.26 205.358 55.992C205.358 56.736 206.378 57.144 208.07 57.144C209.774 57.144 210.782 56.736 210.782 55.992C210.782 55.26 209.774 54.84 208.07 54.84ZM208.082 47.28C210.434 47.28 211.898 48.036 211.898 49.308C211.898 50.568 210.434 51.312 208.082 51.312C205.718 51.312 204.266 50.568 204.266 49.308C204.266 48.036 205.718 47.28 208.082 47.28ZM208.082 48.06C206.354 48.06 205.286 48.516 205.286 49.308C205.286 50.088 206.354 50.544 208.082 50.544C209.81 50.544 210.878 50.088 210.878 49.308C210.878 48.516 209.81 48.06 208.082 48.06ZM221.569 47.088H222.565V57.936H221.569V47.088ZM222.325 51.54H224.341V52.38H222.325V51.54ZM214.165 48.816H220.561V49.632H214.165V48.816ZM217.405 50.532C218.941 50.532 220.045 51.564 220.045 53.028C220.045 54.492 218.941 55.524 217.405 55.524C215.881 55.524 214.765 54.492 214.765 53.028C214.765 51.564 215.881 50.532 217.405 50.532ZM217.405 51.36C216.421 51.36 215.713 52.044 215.713 53.028C215.713 54 216.421 54.696 217.405 54.696C218.389 54.696 219.097 54 219.097 53.028C219.097 52.044 218.389 51.36 217.405 51.36ZM216.889 47.22H217.885V49.188H216.889V47.22ZM230.148 49.5H233.424V50.328H230.148V49.5ZM230.148 52.932H233.424V53.76H230.148V52.932ZM228.156 47.916C229.728 47.916 230.856 49.392 230.856 51.696C230.856 54.012 229.728 55.488 228.156 55.488C226.572 55.488 225.456 54.012 225.456 51.696C225.456 49.392 226.572 47.916 228.156 47.916ZM228.156 48.816C227.112 48.816 226.392 49.944 226.392 51.696C226.392 53.46 227.112 54.612 228.156 54.612C229.2 54.612 229.92 53.46 229.92 51.696C229.92 49.944 229.2 48.816 228.156 48.816ZM233.208 47.076H234.192V57.948H233.208V47.076ZM241.393 48.024H242.209V49.968C242.209 52.368 240.913 54.708 239.197 55.62L238.585 54.828C240.157 54.036 241.393 51.948 241.393 49.968V48.024ZM241.573 48.024H242.377V49.968C242.377 51.876 243.589 53.856 245.125 54.624L244.513 55.416C242.833 54.516 241.573 52.296 241.573 49.968V48.024ZM246.073 47.088H247.081V57.936H246.073V47.088ZM246.841 51.48H248.857V52.32H246.841V51.48ZM252.192 50.76H253.176V52.812H252.192V50.76ZM256.176 50.76H257.16V52.812H256.176V50.76ZM249.768 52.452H259.572V53.256H249.768V52.452ZM254.664 54.072C256.992 54.072 258.384 54.756 258.384 55.992C258.384 57.228 256.992 57.924 254.664 57.924C252.336 57.924 250.944 57.228 250.944 55.992C250.944 54.756 252.336 54.072 254.664 54.072ZM254.664 54.84C252.972 54.84 251.952 55.26 251.952 55.992C251.952 56.736 252.972 57.144 254.664 57.144C256.368 57.144 257.376 56.736 257.376 55.992C257.376 55.26 256.368 54.84 254.664 54.84ZM254.676 47.28C257.028 47.28 258.492 48.036 258.492 49.308C258.492 50.568 257.028 51.312 254.676 51.312C252.312 51.312 250.86 50.568 250.86 49.308C250.86 48.036 252.312 47.28 254.676 47.28ZM254.676 48.06C252.948 48.06 251.88 48.516 251.88 49.308C251.88 50.088 252.948 50.544 254.676 50.544C256.404 50.544 257.472 50.088 257.472 49.308C257.472 48.516 256.404 48.06 254.676 48.06ZM263.495 48.636H264.287V50.4C264.287 52.656 262.907 54.984 261.215 55.848L260.639 55.056C262.187 54.3 263.495 52.236 263.495 50.4V48.636ZM263.675 48.636H264.467V50.4C264.467 52.116 265.691 54.048 267.263 54.792L266.699 55.584C264.983 54.732 263.675 52.548 263.675 50.4V48.636ZM261.023 48.192H266.867V49.032H261.023V48.192ZM268.151 47.088H269.159V57.936H268.151V47.088ZM268.919 51.468H270.935V52.308H268.919V51.468ZM276.25 51.3H278.302V52.128H276.25V51.3ZM280.114 47.088H281.074V57.936H280.114V47.088ZM277.966 47.316H278.914V57.396H277.966V47.316ZM274.294 47.988C275.698 47.988 276.61 49.44 276.61 51.768C276.61 54.096 275.698 55.548 274.294 55.548C272.89 55.548 271.99 54.096 271.99 51.768C271.99 49.44 272.89 47.988 274.294 47.988ZM274.294 48.912C273.442 48.912 272.902 50.016 272.902 51.768C272.902 53.52 273.442 54.624 274.294 54.624C275.158 54.624 275.698 53.52 275.698 51.768C275.698 50.016 275.158 48.912 274.294 48.912ZM291.153 47.088H292.113V57.936H291.153V47.088ZM286.449 51.516H289.185V52.32H286.449V51.516ZM288.897 47.364H289.833V57.384H288.897V47.364ZM286.581 48.456H287.541C287.541 51.3 286.401 53.856 283.473 55.596L282.885 54.888C285.441 53.352 286.581 51.192 286.581 48.636V48.456ZM283.365 48.456H286.953V49.272H283.365V48.456ZM304.293 47.088H305.289V55.164H304.293V47.088ZM296.685 47.964H302.397V48.78H296.685V47.964ZM296.505 53.532L296.397 52.68C298.173 52.68 300.705 52.656 302.733 52.416L302.793 53.16C300.705 53.496 298.269 53.532 296.505 53.532ZM297.765 48.66H298.725V52.824H297.765V48.66ZM300.357 48.66H301.317V52.824H300.357V48.66ZM302.493 49.14H304.821V49.956H302.493V49.14ZM302.493 51.216H304.821V52.032H302.493V51.216ZM298.353 56.88H305.577V57.696H298.353V56.88ZM298.353 54.504H299.349V57.396H298.353V54.504ZM315.309 47.076H316.305V57.948H315.309V47.076ZM308.037 54.504H308.937C310.749 54.504 312.369 54.432 314.289 54.12L314.397 54.936C312.429 55.26 310.797 55.332 308.937 55.332H308.037V54.504ZM308.013 48.096H313.029V51.972H309.033V54.816H308.037V51.156H312.021V48.912H308.013V48.096ZM325.868 47.1H326.864V55.236H325.868V47.1ZM326.552 50.652H328.472V51.492H326.552V50.652ZM318.476 48.408H324.884V49.212H318.476V48.408ZM321.68 49.812C323.216 49.812 324.272 50.616 324.272 51.84C324.272 53.052 323.216 53.856 321.68 53.856C320.132 53.856 319.076 53.052 319.076 51.84C319.076 50.616 320.132 49.812 321.68 49.812ZM321.68 50.592C320.696 50.592 320.024 51.084 320.024 51.84C320.024 52.584 320.696 53.076 321.68 53.076C322.652 53.076 323.324 52.584 323.324 51.84C323.324 51.084 322.652 50.592 321.68 50.592ZM321.176 47.088H322.172V48.828H321.176V47.088ZM320.108 56.88H327.356V57.696H320.108V56.88ZM320.108 54.588H321.104V57.228H320.108V54.588ZM337.112 49.08H340.016V49.896H337.112V49.08ZM337.016 51.336H339.944V52.152H337.016V51.336ZM339.848 47.088H340.844V53.592H339.848V47.088ZM336.452 47.904H337.52C337.52 50.7 335.588 52.656 332.468 53.592L332.06 52.788C334.832 51.984 336.452 50.388 336.452 48.336V47.904ZM332.624 47.904H337.136V48.72H332.624V47.904ZM337.316 53.712C339.512 53.712 340.904 54.492 340.904 55.8C340.904 57.108 339.512 57.888 337.316 57.888C335.12 57.888 333.728 57.108 333.728 55.8C333.728 54.492 335.12 53.712 337.316 53.712ZM337.316 54.492C335.732 54.492 334.712 54.984 334.712 55.8C334.712 56.616 335.732 57.096 337.316 57.096C338.912 57.096 339.932 56.616 339.932 55.8C339.932 54.984 338.912 54.492 337.316 54.492ZM350.887 47.088H351.883V53.652H350.887V47.088ZM349.087 50.376H351.331V51.204H349.087V50.376ZM344.851 54.228H351.883V57.792H344.851V54.228ZM350.911 55.032H345.823V56.988H350.911V55.032ZM342.979 48.216H349.255V49.02H342.979V48.216ZM346.111 49.572C347.575 49.572 348.619 50.364 348.619 51.516C348.619 52.668 347.575 53.436 346.111 53.436C344.647 53.436 343.603 52.668 343.603 51.516C343.603 50.364 344.647 49.572 346.111 49.572ZM346.111 50.34C345.199 50.34 344.551 50.808 344.551 51.516C344.551 52.212 345.199 52.68 346.111 52.68C347.023 52.68 347.671 52.212 347.671 51.516C347.671 50.808 347.023 50.34 346.111 50.34ZM345.619 46.98H346.615V48.792H345.619V46.98ZM358.902 47.268C361.29 47.268 362.718 47.94 362.718 49.152C362.718 50.364 361.29 51.036 358.902 51.036C356.502 51.036 355.086 50.364 355.086 49.152C355.086 47.94 356.502 47.268 358.902 47.268ZM358.902 48.024C357.126 48.024 356.106 48.432 356.106 49.152C356.106 49.872 357.126 50.28 358.902 50.28C360.666 50.28 361.686 49.872 361.686 49.152C361.686 48.432 360.666 48.024 358.902 48.024ZM353.994 51.756H363.798V52.56H353.994V51.756ZM355.182 53.484H362.55V55.932H356.19V57.252H355.206V55.212H361.566V54.252H355.182V53.484ZM355.206 57.036H362.874V57.816H355.206V57.036ZM375.727 47.088H376.687V57.936H375.727V47.088ZM371.779 50.976H373.855V51.804H371.779V50.976ZM373.555 47.34H374.491V57.384H373.555V47.34ZM369.691 48.768H370.459V50.148C370.459 52.524 369.547 54.768 367.951 55.776L367.339 55.032C368.851 54.12 369.691 52.14 369.691 50.148V48.768ZM369.895 48.768H370.663V50.148C370.663 52.032 371.479 53.916 372.967 54.78L372.355 55.512C370.771 54.552 369.895 52.416 369.895 50.148V48.768ZM367.639 48.348H372.595V49.176H367.639V48.348ZM383.382 53.928C385.686 53.928 387.162 54.684 387.162 55.932C387.162 57.168 385.686 57.912 383.382 57.912C381.066 57.912 379.602 57.168 379.602 55.932C379.602 54.684 381.066 53.928 383.382 53.928ZM383.382 54.708C381.678 54.708 380.586 55.176 380.586 55.932C380.586 56.676 381.678 57.144 383.382 57.144C385.086 57.144 386.166 56.676 386.166 55.932C386.166 55.176 385.086 54.708 383.382 54.708ZM379.686 47.628H386.67V48.444H379.686V47.628ZM378.522 52.14H388.314V52.944H378.522V52.14ZM382.542 50.052H383.526V52.368H382.542V50.052ZM386.094 47.628H387.066V48.552C387.066 49.428 387.066 50.304 386.778 51.432L385.794 51.312C386.094 50.196 386.094 49.404 386.094 48.552V47.628ZM396.977 47.088H397.973V53.388H396.977V47.088ZM397.541 49.848H399.581V50.688H397.541V49.848ZM391.157 53.868H392.129V55.02H396.989V53.868H397.973V57.792H391.157V53.868ZM392.129 55.788V56.988H396.989V55.788H392.129ZM389.585 48.192H395.993V49.008H389.585V48.192ZM392.789 49.5C394.337 49.5 395.381 50.256 395.381 51.408C395.381 52.56 394.337 53.316 392.789 53.316C391.229 53.316 390.185 52.56 390.185 51.408C390.185 50.256 391.229 49.5 392.789 49.5ZM392.789 50.256C391.793 50.256 391.133 50.712 391.133 51.408C391.133 52.104 391.793 52.56 392.789 52.56C393.761 52.56 394.433 52.104 394.433 51.408C394.433 50.712 393.761 50.256 392.789 50.256ZM392.285 46.98H393.281V48.636H392.285V46.98ZM408.484 47.088H409.48V57.936H408.484V47.088ZM401.284 48.144H402.268V54.864H401.284V48.144ZM401.284 54.276H402.172C403.816 54.276 405.532 54.156 407.368 53.772L407.488 54.624C405.604 55.008 403.888 55.14 402.172 55.14H401.284V54.276ZM418.971 47.076H419.979V57.948H418.971V47.076ZM419.739 51.36H421.755V52.2H419.739V51.36ZM412.095 54.408H412.947C414.951 54.408 416.355 54.336 417.975 54.036L418.083 54.876C416.415 55.188 414.987 55.248 412.947 55.248H412.095V54.408ZM412.095 48.132H417.135V48.948H413.079V54.78H412.095V48.132ZM423.578 56.8828C423.391 56.8828 423.232 56.8184 423.104 56.6895C422.975 56.5605 422.91 56.4023 422.91 56.2148C422.91 56.0273 422.975 55.8691 423.104 55.7402C423.232 55.6113 423.391 55.5469 423.578 55.5469C423.766 55.5469 423.924 55.6113 424.053 55.7402C424.182 55.8691 424.246 56.0273 424.246 56.2148C424.246 56.4023 424.182 56.5605 424.053 56.6895C423.924 56.8184 423.766 56.8828 423.578 56.8828ZM70.7352 80.108H71.5152V82.172C71.5152 84.44 70.5552 86.636 68.9712 87.596L68.3352 86.852C69.8352 85.976 70.7352 84.032 70.7352 82.172V80.108ZM70.9152 80.108H71.6952V82.112C71.6952 83.9 72.5352 85.736 73.9752 86.54L73.3752 87.32C71.7912 86.408 70.9152 84.296 70.9152 82.112V80.108ZM76.7232 79.088H77.6832V89.936H76.7232V79.088ZM75.0072 83.444H77.0832V84.272H75.0072V83.444ZM74.3352 79.316H75.2832V89.396H74.3352V79.316ZM79.5063 87.776H89.3343V88.604H79.5063V87.776ZM83.8983 85.448H84.8943V88.124H83.8983V85.448ZM80.6943 79.892H88.1223V83.18H81.7143V85.352H80.7303V82.376H87.1383V80.696H80.6943V79.892ZM80.7303 84.932H88.3743V85.748H80.7303V84.932ZM90.5333 84.584H100.373V85.4H90.5333V84.584ZM95.0213 85.1H96.0293V87.596H95.0213V85.1ZM91.7813 88.868H99.2813V89.696H91.7813V88.868ZM91.7813 86.528H92.7773V89.096H91.7813V86.528ZM95.4413 79.352C97.7333 79.352 99.2453 80.192 99.2453 81.536C99.2453 82.88 97.7333 83.72 95.4413 83.72C93.1373 83.72 91.6373 82.88 91.6373 81.536C91.6373 80.192 93.1373 79.352 95.4413 79.352ZM95.4413 80.168C93.7853 80.168 92.6933 80.696 92.6933 81.536C92.6933 82.388 93.7853 82.904 95.4413 82.904C97.0973 82.904 98.1893 82.388 98.1893 81.536C98.1893 80.696 97.0973 80.168 95.4413 80.168ZM111.426 79.088H112.422V87.584H111.426V79.088ZM112.002 82.868H114.006V83.696H112.002V82.868ZM105.558 88.88H112.806V89.696H105.558V88.88ZM105.558 87.02H106.554V89.132H105.558V87.02ZM106.854 84.392H107.85V85.868H106.854V84.392ZM104.082 86.336L103.95 85.532C105.87 85.532 108.546 85.496 110.778 85.148L110.862 85.856C108.57 86.276 105.966 86.324 104.082 86.336ZM104.226 80.144H110.454V80.9H104.226V80.144ZM107.346 81.344C108.87 81.344 109.866 81.98 109.866 83.012C109.866 84.056 108.87 84.692 107.346 84.692C105.822 84.692 104.814 84.056 104.814 83.012C104.814 81.98 105.822 81.344 107.346 81.344ZM107.346 82.052C106.374 82.052 105.75 82.424 105.75 83.012C105.75 83.612 106.374 83.972 107.346 83.972C108.306 83.972 108.93 83.612 108.93 83.012C108.93 82.424 108.306 82.052 107.346 82.052ZM106.854 79.04H107.85V80.48H106.854V79.04ZM120.245 81.08H123.149V81.896H120.245V81.08ZM120.149 83.336H123.077V84.152H120.149V83.336ZM122.981 79.088H123.977V85.592H122.981V79.088ZM119.585 79.904H120.653C120.653 82.7 118.721 84.656 115.601 85.592L115.193 84.788C117.965 83.984 119.585 82.388 119.585 80.336V79.904ZM115.757 79.904H120.269V80.72H115.757V79.904ZM120.449 85.712C122.645 85.712 124.037 86.492 124.037 87.8C124.037 89.108 122.645 89.888 120.449 89.888C118.253 89.888 116.861 89.108 116.861 87.8C116.861 86.492 118.253 85.712 120.449 85.712ZM120.449 86.492C118.865 86.492 117.845 86.984 117.845 87.8C117.845 88.616 118.865 89.096 120.449 89.096C122.045 89.096 123.065 88.616 123.065 87.8C123.065 86.984 122.045 86.492 120.449 86.492ZM130.492 83.3H132.544V84.128H130.492V83.3ZM134.356 79.088H135.316V89.936H134.356V79.088ZM132.208 79.316H133.156V89.396H132.208V79.316ZM128.536 79.988C129.94 79.988 130.852 81.44 130.852 83.768C130.852 86.096 129.94 87.548 128.536 87.548C127.132 87.548 126.232 86.096 126.232 83.768C126.232 81.44 127.132 79.988 128.536 79.988ZM128.536 80.912C127.684 80.912 127.144 82.016 127.144 83.768C127.144 85.52 127.684 86.624 128.536 86.624C129.4 86.624 129.94 85.52 129.94 83.768C129.94 82.016 129.4 80.912 128.536 80.912ZM147.221 79.088H148.205V89.936H147.221V79.088ZM147.641 83.324H149.645V84.152H147.641V83.324ZM139.769 80.096H140.621V82.88H141.941V80.096H142.769V87.308H139.769V80.096ZM140.621 83.672V86.492H141.941V83.672H140.621ZM143.345 80.096H144.185V82.88H145.469V80.096H146.309V87.308H143.345V80.096ZM144.185 83.672V86.492H145.469V83.672H144.185ZM150.616 87.74H160.444V88.58H150.616V87.74ZM151.804 79.916H159.232V83.204H152.824V85.376H151.84V82.412H158.248V80.732H151.804V79.916ZM151.84 84.956H159.484V85.772H151.84V84.956ZM169.911 79.088H170.871V89.936H169.911V79.088ZM165.207 83.516H167.943V84.32H165.207V83.516ZM167.655 79.364H168.591V89.384H167.655V79.364ZM165.339 80.456H166.299C166.299 83.3 165.159 85.856 162.231 87.596L161.643 86.888C164.199 85.352 165.339 83.192 165.339 80.636V80.456ZM162.123 80.456H165.711V81.272H162.123V80.456ZM177.891 80.192H178.707V81.068C178.707 83.048 177.483 84.74 175.671 85.412L175.155 84.62C176.775 84.044 177.891 82.604 177.891 81.068V80.192ZM178.083 80.192H178.887V81.068C178.887 82.46 179.943 83.816 181.515 84.368L181.011 85.16C179.247 84.512 178.083 82.88 178.083 81.068V80.192ZM180.927 81.908H183.339V82.736H180.927V81.908ZM175.467 79.832H181.263V80.636H175.467V79.832ZM176.811 86.168H184.047V89.936H183.051V86.984H176.811V86.168ZM183.051 79.088H184.047V85.58H183.051V79.088ZM186.158 84.356H195.962V85.172H186.158V84.356ZM191.054 86.06C193.382 86.06 194.774 86.756 194.774 87.992C194.774 89.24 193.382 89.936 191.054 89.936C188.726 89.936 187.334 89.24 187.334 87.992C187.334 86.756 188.726 86.06 191.054 86.06ZM191.054 86.84C189.362 86.84 188.342 87.26 188.342 87.992C188.342 88.748 189.362 89.156 191.054 89.156C192.758 89.156 193.766 88.748 193.766 87.992C193.766 87.26 192.758 86.84 191.054 86.84ZM191.066 79.352C193.406 79.352 194.882 80.132 194.882 81.428C194.882 82.712 193.406 83.492 191.066 83.492C188.714 83.492 187.25 82.712 187.25 81.428C187.25 80.132 188.714 79.352 191.066 79.352ZM191.066 80.144C189.338 80.144 188.27 80.624 188.27 81.428C188.27 82.232 189.338 82.7 191.066 82.7C192.782 82.7 193.862 82.232 193.862 81.428C193.862 80.624 192.782 80.144 191.066 80.144ZM204.553 79.088H205.549V89.936H204.553V79.088ZM205.309 83.54H207.325V84.38H205.309V83.54ZM197.149 80.816H203.545V81.632H197.149V80.816ZM200.389 82.532C201.925 82.532 203.029 83.564 203.029 85.028C203.029 86.492 201.925 87.524 200.389 87.524C198.865 87.524 197.749 86.492 197.749 85.028C197.749 83.564 198.865 82.532 200.389 82.532ZM200.389 83.36C199.405 83.36 198.697 84.044 198.697 85.028C198.697 86 199.405 86.696 200.389 86.696C201.373 86.696 202.081 86 202.081 85.028C202.081 84.044 201.373 83.36 200.389 83.36ZM199.873 79.22H200.869V81.188H199.873V79.22ZM213.228 81.68H216.576V82.496H213.228V81.68ZM213.228 84.668H216.576V85.496H213.228V84.668ZM208.68 80.144H213.612V87.2H208.68V80.144ZM212.628 80.948H209.652V86.396H212.628V80.948ZM216.192 79.076H217.176V89.948H216.192V79.076ZM220.992 87.74C220.92 88.02 220.828 88.324 220.716 88.652C220.604 88.98 220.48 89.304 220.344 89.624C220.216 89.952 220.088 90.26 219.96 90.548H219.18C219.26 90.244 219.336 89.916 219.408 89.564C219.488 89.22 219.56 88.88 219.624 88.544C219.688 88.2 219.74 87.888 219.78 87.608H220.908L220.992 87.74ZM225.26 86.324H225.728C226.376 86.324 227.132 86.312 227.984 86.096L228.104 86.924C227.18 87.14 226.436 87.152 225.728 87.152H225.26V86.324ZM225.26 80.18H227.936V80.996H226.244V86.708H225.26V80.18ZM228.524 86.324H229.076C230.156 86.324 230.96 86.288 231.896 86.06L231.992 86.888C231.008 87.128 230.204 87.152 229.076 87.152H228.524V86.324ZM228.524 80.18H231.464V80.996H229.508V86.72H228.524V80.18ZM232.976 79.088H233.972V89.936H232.976V79.088ZM230.924 83.048H233.336V83.876H230.924V83.048ZM240.367 85.22H241.363V87.92H240.367V85.22ZM240.871 79.796C243.163 79.796 244.807 80.912 244.807 82.64C244.807 84.368 243.163 85.484 240.871 85.484C238.579 85.484 236.923 84.368 236.923 82.64C236.923 80.912 238.579 79.796 240.871 79.796ZM240.871 80.588C239.143 80.588 237.883 81.404 237.883 82.64C237.883 83.876 239.143 84.692 240.871 84.692C242.587 84.692 243.847 83.876 243.847 82.64C243.847 81.404 242.587 80.588 240.871 80.588ZM235.975 87.728H245.803V88.556H235.975V87.728ZM247.002 85.1H256.842V85.904H247.002V85.1ZM248.298 88.88H255.81V89.696H248.298V88.88ZM248.298 86.756H249.294V89.192H248.298V86.756ZM248.25 79.448H255.57V82.136H249.258V83.6H248.274V81.404H254.598V80.228H248.25V79.448ZM248.274 83.336H255.81V84.116H248.274V83.336ZM260.479 84.632H270.307V85.448H260.479V84.632ZM264.967 85.136H265.963V87.632H264.967V85.136ZM261.739 79.592H269.035V83.408H261.739V79.592ZM268.051 80.396H262.711V82.604H268.051V80.396ZM261.727 88.88H269.215V89.696H261.727V88.88ZM261.727 86.588H262.711V89.168H261.727V86.588ZM279.774 79.088H280.734V89.936H279.774V79.088ZM275.826 82.976H277.902V83.804H275.826V82.976ZM277.602 79.34H278.538V89.384H277.602V79.34ZM273.738 80.768H274.506V82.148C274.506 84.524 273.594 86.768 271.998 87.776L271.386 87.032C272.898 86.12 273.738 84.14 273.738 82.148V80.768ZM273.942 80.768H274.71V82.148C274.71 84.032 275.526 85.916 277.014 86.78L276.402 87.512C274.818 86.552 273.942 84.416 273.942 82.148V80.768ZM271.686 80.348H276.642V81.176H271.686V80.348ZM283.889 82.34H291.257V83.156H283.889V82.34ZM282.557 84.608H292.397V85.424H282.557V84.608ZM283.889 79.484H284.873V82.748H283.889V79.484ZM283.817 88.856H291.317V89.672H283.817V88.856ZM283.817 86.504H284.801V89.072H283.817V86.504ZM295.925 83.024H305.981V84.296H295.925V83.024ZM296.861 79.328H299.453V80.588H296.861V79.328ZM298.985 79.328H300.545V79.928C300.545 80.72 300.545 81.932 299.993 83.54L298.457 83.324C298.985 81.728 298.985 80.696 298.985 79.928V79.328ZM301.169 79.328H304.025V80.588H301.169V79.328ZM303.281 79.328H304.841V80.096C304.841 80.996 304.841 82.124 304.373 83.6L302.825 83.384C303.281 81.932 303.281 80.96 303.281 80.096V79.328ZM297.149 85.052H304.805V86.228H298.745V89.036H297.149V85.052ZM297.149 88.76H304.889V89.948H297.149V88.76ZM298.097 86.912H304.541V88.04H298.097V86.912ZM314.2 78.956H315.796V90.068H314.2V78.956ZM315.304 83.3H317.236V84.62H315.304V83.3ZM308.752 80.084H310.24C310.24 83.168 309.952 85.532 307.984 87.74L306.736 86.84C308.452 84.944 308.752 83.096 308.752 80.276V80.084ZM307.228 80.084H309.376V81.38H307.228V80.084ZM311.812 80.084H313.3C313.3 83.312 313.036 86.036 311.104 88.448L309.856 87.56C311.536 85.436 311.812 83.3 311.812 80.264V80.084ZM310.612 80.084H312.472V81.38H310.612V80.084ZM320.679 80.708H321.951V81.956C321.951 84.524 320.907 87.032 318.819 87.98L317.919 86.72C319.779 85.892 320.679 83.84 320.679 81.956V80.708ZM321.039 80.708H322.299V81.956C322.299 83.756 323.187 85.676 325.047 86.444L324.183 87.704C322.071 86.792 321.039 84.428 321.039 81.956V80.708ZM318.363 80.024H324.591V81.332H318.363V80.024ZM325.623 78.956H327.231V90.068H325.623V78.956ZM331.374 80.624H336.69V81.896H331.374V80.624ZM334.05 82.388C335.466 82.388 336.486 83.48 336.486 85.04C336.486 86.588 335.466 87.68 334.05 87.68C332.646 87.68 331.614 86.588 331.614 85.04C331.614 83.48 332.646 82.388 334.05 82.388ZM334.05 83.72C333.45 83.72 333.03 84.2 333.03 85.04C333.03 85.88 333.45 86.348 334.05 86.348C334.65 86.348 335.082 85.88 335.082 85.04C335.082 84.2 334.65 83.72 334.05 83.72ZM339.414 78.956H340.938V90.068H339.414V78.956ZM338.082 83.468H339.918V84.752H338.082V83.468ZM337.086 79.16H338.574V89.6H337.086V79.16ZM333.27 79.256H334.842V81.428H333.27V79.256ZM350.129 78.956H351.725V84.536H350.129V78.956ZM346.421 79.376H348.161C348.161 82.328 346.457 84.056 343.085 84.788L342.557 83.504C345.341 82.952 346.421 81.728 346.421 80.24V79.376ZM343.193 79.376H347.093V80.648H343.193V79.376ZM347.729 80.336H350.333V81.548H347.729V80.336ZM347.657 82.496H350.273V83.696H347.657V82.496ZM344.381 84.944H351.725V88.004H346.001V89.384H344.405V86.828H350.129V86.192H344.381V84.944ZM344.405 88.712H351.953V89.96H344.405V88.712ZM360.928 79.088H361.924V89.936H360.928V79.088ZM361.684 83.54H363.7V84.38H361.684V83.54ZM353.524 80.816H359.92V81.632H353.524V80.816ZM356.764 82.532C358.3 82.532 359.404 83.564 359.404 85.028C359.404 86.492 358.3 87.524 356.764 87.524C355.24 87.524 354.124 86.492 354.124 85.028C354.124 83.564 355.24 82.532 356.764 82.532ZM356.764 83.36C355.78 83.36 355.072 84.044 355.072 85.028C355.072 86 355.78 86.696 356.764 86.696C357.748 86.696 358.456 86 358.456 85.028C358.456 84.044 357.748 83.36 356.764 83.36ZM356.248 79.22H357.244V81.188H356.248V79.22ZM372.543 79.076H373.539V89.948H372.543V79.076ZM370.407 81.56H372.807V82.376H370.407V81.56ZM365.019 86.588H365.823C367.503 86.588 368.883 86.54 370.539 86.276L370.635 87.104C368.931 87.368 367.539 87.428 365.823 87.428H365.019V86.588ZM364.995 80.06H369.735V83.948H366.003V86.78H365.019V83.132H368.751V80.888H364.995V80.06ZM370.335 84.524H372.735V85.34H370.335V84.524ZM376.695 80.168H383.679V80.996H376.695V80.168ZM375.663 87.596H385.467V88.424H375.663V87.596ZM379.467 83.72H380.463V88.004H379.467V83.72ZM383.307 80.168H384.291V81.248C384.291 82.592 384.291 84.08 383.895 86.276L382.899 86.144C383.307 84.068 383.307 82.544 383.307 81.248V80.168ZM390.339 84.008H397.851V84.824H390.339V84.008ZM389.139 87.716H398.967V88.544H389.139V87.716ZM393.543 84.512H394.527V87.98H393.543V84.512ZM390.339 80H391.335V84.368H390.339V80ZM400.622 84.464H401.402C403.538 84.464 404.594 84.428 405.89 84.2L405.998 85.004C404.654 85.244 403.574 85.28 401.402 85.28H400.622V84.464ZM400.598 79.736H405.278V82.82H401.606V84.956H400.622V82.04H404.294V80.552H400.598V79.736ZM408.098 79.1H409.094V85.76H408.098V79.1ZM405.998 80.696H408.326V81.512H405.998V80.696ZM405.998 82.94H408.326V83.756H405.998V82.94ZM401.834 86.348H409.094V89.96H408.098V87.164H401.834V86.348ZM411.193 80.936H416.569V81.752H411.193V80.936ZM413.881 82.472C415.237 82.472 416.221 83.492 416.221 84.956C416.221 86.408 415.237 87.428 413.881 87.428C412.537 87.428 411.553 86.408 411.553 84.956C411.553 83.492 412.537 82.472 413.881 82.472ZM413.881 83.324C413.053 83.324 412.453 83.996 412.453 84.956C412.453 85.916 413.053 86.588 413.881 86.588C414.721 86.588 415.333 85.916 415.333 84.956C415.333 83.996 414.721 83.324 413.881 83.324ZM419.437 79.088H420.397V89.936H419.437V79.088ZM417.709 83.648H419.761V84.476H417.709V83.648ZM417.121 79.328H418.057V89.408H417.121V79.328ZM413.401 79.4H414.385V81.44H413.401V79.4ZM424.656 84.668H425.64V87.92H424.656V84.668ZM428.664 84.668H429.66V87.92H428.664V84.668ZM422.256 87.728H432.084V88.556H422.256V87.728ZM427.152 79.772C429.444 79.772 431.088 80.864 431.088 82.568C431.088 84.26 429.444 85.352 427.152 85.352C424.848 85.352 423.204 84.26 423.204 82.568C423.204 80.864 424.848 79.772 427.152 79.772ZM427.152 80.564C425.412 80.564 424.164 81.356 424.164 82.568C424.164 83.768 425.412 84.56 427.152 84.56C428.892 84.56 430.128 83.768 430.128 82.568C430.128 81.356 428.892 80.564 427.152 80.564ZM434.195 88.8828C434.008 88.8828 433.85 88.8184 433.721 88.6895C433.592 88.5605 433.527 88.4023 433.527 88.2148C433.527 88.0273 433.592 87.8691 433.721 87.7402C433.85 87.6113 434.008 87.5469 434.195 87.5469C434.383 87.5469 434.541 87.6113 434.67 87.7402C434.799 87.8691 434.863 88.0273 434.863 88.2148C434.863 88.4023 434.799 88.5605 434.67 88.6895C434.541 88.8184 434.383 88.8828 434.195 88.8828ZM65.5623 96.24H72.5463V97.044H65.5623V96.24ZM64.5063 103.524H74.3103V104.352H64.5063V103.524ZM72.0183 96.24H72.9903V97.32C72.9903 98.712 72.9903 100.26 72.5823 102.6L71.5863 102.504C72.0183 100.284 72.0183 98.664 72.0183 97.32V96.24ZM75.8933 102.516H76.6133C77.9333 102.516 79.1333 102.468 80.5973 102.216L80.6813 103.044C79.1813 103.308 77.9573 103.344 76.6133 103.344H75.8933V102.516ZM75.8693 96.264H79.9373V100.08H76.8653V102.828H75.8933V99.264H78.9653V97.08H75.8693V96.264ZM83.7893 95.088H84.7493V105.936H83.7893V95.088ZM81.9533 99.372H84.0413V100.188H81.9533V99.372ZM81.3293 95.328H82.2653V105.384H81.3293V95.328ZM87.8204 100.152H95.2724V100.968H87.8204V100.152ZM86.5844 103.74H96.4124V104.58H86.5844V103.74ZM90.9764 100.5H91.9724V104.076H90.9764V100.5ZM87.8204 95.952H95.1644V96.768H88.8164V100.512H87.8204V95.952ZM100.037 96.936H105.413V97.752H100.037V96.936ZM102.725 98.472C104.081 98.472 105.065 99.492 105.065 100.956C105.065 102.408 104.081 103.428 102.725 103.428C101.381 103.428 100.397 102.408 100.397 100.956C100.397 99.492 101.381 98.472 102.725 98.472ZM102.725 99.324C101.897 99.324 101.297 99.996 101.297 100.956C101.297 101.916 101.897 102.588 102.725 102.588C103.565 102.588 104.177 101.916 104.177 100.956C104.177 99.996 103.565 99.324 102.725 99.324ZM108.281 95.088H109.241V105.936H108.281V95.088ZM106.553 99.648H108.605V100.476H106.553V99.648ZM105.965 95.328H106.901V105.408H105.965V95.328ZM102.245 95.4H103.229V97.44H102.245V95.4ZM119.02 95.088H120.016V100.62H119.02V95.088ZM115.588 95.616H116.668C116.668 98.352 114.784 100.104 111.616 100.872L111.268 100.056C114.076 99.408 115.588 97.98 115.588 96.108V95.616ZM111.832 95.616H116.044V96.432H111.832V95.616ZM116.284 96.648H119.188V97.44H116.284V96.648ZM116.188 98.724H119.128V99.504H116.188V98.724ZM113.032 101.124H120.016V103.788H114.052V105.516H113.068V103.02H119.032V101.928H113.032V101.124ZM113.068 105.036H120.376V105.828H113.068V105.036ZM130.011 95.076H131.007V105.948H130.011V95.076ZM125.283 95.916C126.891 95.916 128.043 97.392 128.043 99.696C128.043 102.012 126.891 103.488 125.283 103.488C123.687 103.488 122.535 102.012 122.535 99.696C122.535 97.392 123.687 95.916 125.283 95.916ZM125.283 96.816C124.227 96.816 123.483 97.944 123.483 99.696C123.483 101.46 124.227 102.612 125.283 102.612C126.351 102.612 127.083 101.46 127.083 99.696C127.083 97.944 126.351 96.816 125.283 96.816ZM138.508 95.916C140.08 95.916 141.208 97.392 141.208 99.696C141.208 102.012 140.08 103.488 138.508 103.488C136.924 103.488 135.808 102.012 135.808 99.696C135.808 97.392 136.924 95.916 138.508 95.916ZM138.508 96.816C137.464 96.816 136.756 97.944 136.756 99.696C136.756 101.46 137.464 102.612 138.508 102.612C139.552 102.612 140.26 101.46 140.26 99.696C140.26 97.944 139.552 96.816 138.508 96.816ZM143.56 95.076H144.544V105.948H143.56V95.076ZM140.884 99.216H143.992V100.032H140.884V99.216ZM154.575 95.076H155.571V105.948H154.575V95.076ZM152.439 97.56H154.839V98.376H152.439V97.56ZM147.051 102.588H147.855C149.535 102.588 150.915 102.54 152.571 102.276L152.667 103.104C150.963 103.368 149.571 103.428 147.855 103.428H147.051V102.588ZM147.027 96.06H151.767V99.948H148.035V102.78H147.051V99.132H150.783V96.888H147.027V96.06ZM152.367 100.524H154.767V101.34H152.367V100.524ZM157.682 100.584H167.522V101.4H157.682V100.584ZM162.17 101.1H163.178V103.596H162.17V101.1ZM158.93 104.868H166.43V105.696H158.93V104.868ZM158.93 102.528H159.926V105.096H158.93V102.528ZM162.59 95.352C164.882 95.352 166.394 96.192 166.394 97.536C166.394 98.88 164.882 99.72 162.59 99.72C160.286 99.72 158.786 98.88 158.786 97.536C158.786 96.192 160.286 95.352 162.59 95.352ZM162.59 96.168C160.934 96.168 159.842 96.696 159.842 97.536C159.842 98.388 160.934 98.904 162.59 98.904C164.246 98.904 165.338 98.388 165.338 97.536C165.338 96.696 164.246 96.168 162.59 96.168ZM171.65 96.276H176.558V97.08H171.65V96.276ZM173.342 99.372H174.326V103.044H173.342V99.372ZM176.15 96.276H177.122V96.852C177.122 97.74 177.122 99.156 176.81 101.172L175.826 101.076C176.15 99.12 176.15 97.728 176.15 96.852V96.276ZM178.49 95.088H179.474V105.936H178.49V95.088ZM179.21 99.624H181.214V100.464H179.21V99.624ZM171.17 103.572L171.05 102.732C173.018 102.732 175.634 102.696 177.83 102.42L177.878 103.152C175.634 103.512 173.09 103.56 171.17 103.572ZM190.453 95.088H191.413V105.936H190.453V95.088ZM186.505 98.976H188.581V99.804H186.505V98.976ZM188.281 95.34H189.217V105.384H188.281V95.34ZM184.417 96.768H185.185V98.148C185.185 100.524 184.273 102.768 182.677 103.776L182.065 103.032C183.577 102.12 184.417 100.14 184.417 98.148V96.768ZM184.621 96.768H185.389V98.148C185.389 100.032 186.205 101.916 187.693 102.78L187.081 103.512C185.497 102.552 184.621 100.416 184.621 98.148V96.768ZM182.365 96.348H187.321V97.176H182.365V96.348ZM194.568 98.34H201.936V99.156H194.568V98.34ZM193.236 100.608H203.076V101.424H193.236V100.608ZM194.568 95.484H195.552V98.748H194.568V95.484ZM194.496 104.856H201.996V105.672H194.496V104.856ZM194.496 102.504H195.48V105.072H194.496V102.504ZM209.485 96.192H210.301V97.068C210.301 99.048 209.077 100.74 207.265 101.412L206.749 100.62C208.369 100.044 209.485 98.604 209.485 97.068V96.192ZM209.677 96.192H210.481V97.068C210.481 98.46 211.537 99.816 213.109 100.368L212.605 101.16C210.841 100.512 209.677 98.88 209.677 97.068V96.192ZM212.521 97.908H214.933V98.736H212.521V97.908ZM207.061 95.832H212.857V96.636H207.061V95.832ZM208.405 102.168H215.641V105.936H214.645V102.984H208.405V102.168ZM214.645 95.088H215.641V101.58H214.645V95.088ZM219.012 95.604H225.996V96.42H219.012V95.604ZM217.764 99.648H227.592V100.464H217.764V99.648ZM225.348 95.604H226.32V96.348C226.32 97.236 226.32 98.388 225.984 99.972L225.012 99.864C225.348 98.316 225.348 97.212 225.348 96.348V95.604ZM218.808 102.084H226.392V105.972H225.396V102.888H218.808V102.084ZM231.563 96.192H232.379V97.068C232.379 99.048 231.155 100.74 229.343 101.412L228.827 100.62C230.447 100.044 231.563 98.604 231.563 97.068V96.192ZM231.755 96.192H232.559V97.068C232.559 98.46 233.615 99.816 235.187 100.368L234.683 101.16C232.919 100.512 231.755 98.88 231.755 97.068V96.192ZM234.599 97.908H237.011V98.736H234.599V97.908ZM229.139 95.832H234.935V96.636H229.139V95.832ZM230.483 102.168H237.719V105.936H236.723V102.984H230.483V102.168ZM236.723 95.088H237.719V101.58H236.723V95.088ZM244.738 95.772C246.994 95.772 248.674 96.972 248.674 98.772C248.674 100.584 246.994 101.772 244.738 101.772C242.482 101.772 240.79 100.584 240.79 98.772C240.79 96.972 242.482 95.772 244.738 95.772ZM244.738 96.588C243.022 96.588 241.75 97.464 241.75 98.772C241.75 100.068 243.022 100.956 244.738 100.956C246.454 100.956 247.726 100.068 247.726 98.772C247.726 97.464 246.454 96.588 244.738 96.588ZM239.842 103.668H249.67V104.508H239.842V103.668ZM250.881 103.776H260.709V104.604H250.881V103.776ZM255.273 101.448H256.269V104.124H255.273V101.448ZM252.069 95.892H259.497V99.18H253.089V101.352H252.105V98.376H258.513V96.696H252.069V95.892ZM252.105 100.932H259.749V101.748H252.105V100.932ZM269.218 101.928C271.522 101.928 272.998 102.684 272.998 103.932C272.998 105.168 271.522 105.912 269.218 105.912C266.902 105.912 265.438 105.168 265.438 103.932C265.438 102.684 266.902 101.928 269.218 101.928ZM269.218 102.708C267.514 102.708 266.422 103.176 266.422 103.932C266.422 104.676 267.514 105.144 269.218 105.144C270.922 105.144 272.002 104.676 272.002 103.932C272.002 103.176 270.922 102.708 269.218 102.708ZM265.522 95.628H272.506V96.444H265.522V95.628ZM264.358 100.14H274.15V100.944H264.358V100.14ZM268.378 98.052H269.362V100.368H268.378V98.052ZM271.93 95.628H272.902V96.552C272.902 97.428 272.902 98.304 272.614 99.432L271.63 99.312C271.93 98.196 271.93 97.404 271.93 96.552V95.628ZM277.905 101.796H278.925V105.936H277.905V101.796ZM281.637 101.796H282.657V105.936H281.637V101.796ZM275.385 101.256H285.225V102.084H275.385V101.256ZM280.281 95.52C282.549 95.52 284.073 96.432 284.073 97.884C284.073 99.324 282.549 100.248 280.281 100.248C278.025 100.248 276.489 99.324 276.489 97.884C276.489 96.432 278.025 95.52 280.281 95.52ZM280.281 96.324C278.625 96.324 277.497 96.936 277.497 97.884C277.497 98.832 278.625 99.444 280.281 99.444C281.937 99.444 283.053 98.832 283.053 97.884C283.053 96.936 281.937 96.324 280.281 96.324ZM293.78 95.088H294.776V105.936H293.78V95.088ZM294.536 99.54H296.552V100.38H294.536V99.54ZM286.376 96.816H292.772V97.632H286.376V96.816ZM289.616 98.532C291.152 98.532 292.256 99.564 292.256 101.028C292.256 102.492 291.152 103.524 289.616 103.524C288.092 103.524 286.976 102.492 286.976 101.028C286.976 99.564 288.092 98.532 289.616 98.532ZM289.616 99.36C288.632 99.36 287.924 100.044 287.924 101.028C287.924 102 288.632 102.696 289.616 102.696C290.6 102.696 291.308 102 291.308 101.028C291.308 100.044 290.6 99.36 289.616 99.36ZM289.1 95.22H290.096V97.188H289.1V95.22ZM302.455 97.68H305.803V98.496H302.455V97.68ZM302.455 100.668H305.803V101.496H302.455V100.668ZM297.907 96.144H302.839V103.2H297.907V96.144ZM301.855 96.948H298.879V102.396H301.855V96.948ZM305.419 95.076H306.403V105.948H305.419V95.076ZM311.576 100.104H312.452C314.792 100.104 316.076 100.056 317.6 99.792L317.708 100.584C316.136 100.86 314.816 100.896 312.452 100.896H311.576V100.104ZM311.576 95.748H316.736V96.552H312.56V100.512H311.576V95.748ZM312.236 97.884H316.436V98.688H312.236V97.884ZM318.836 95.1H319.844V101.556H318.836V95.1ZM312.836 102.096H319.844V105.792H312.836V102.096ZM318.86 102.9H313.808V104.988H318.86V102.9ZM325.063 100.548H326.059V102.96H325.063V100.548ZM329.875 95.088H330.871V103.344H329.875V95.088ZM323.467 104.88H331.135V105.696H323.467V104.88ZM323.467 102.54H324.463V105.108H323.467V102.54ZM322.063 100.92L321.931 100.104C323.935 100.104 326.623 100.08 328.927 99.78L328.999 100.512C326.659 100.884 324.031 100.92 322.063 100.92ZM327.667 101.496H330.127V102.228H327.667V101.496ZM325.459 95.532C327.043 95.532 328.123 96.276 328.123 97.416C328.123 98.568 327.043 99.312 325.459 99.312C323.863 99.312 322.783 98.568 322.783 97.416C322.783 96.276 323.863 95.532 325.459 95.532ZM325.459 96.276C324.439 96.276 323.731 96.72 323.731 97.416C323.731 98.112 324.439 98.556 325.459 98.556C326.467 98.556 327.175 98.112 327.175 97.416C327.175 96.72 326.467 96.276 325.459 96.276ZM333.03 99.612H342.834V100.428H333.03V99.612ZM334.326 97.932H341.67V98.736H334.326V97.932ZM334.326 95.436H341.55V96.252H335.31V98.58H334.326V95.436ZM334.206 101.364H341.574V103.92H335.214V105.288H334.23V103.176H340.59V102.144H334.206V101.364ZM334.23 105.024H341.898V105.816H334.23V105.024ZM344.549 96.276H349.457V97.08H344.549V96.276ZM346.241 99.372H347.225V103.044H346.241V99.372ZM349.049 96.276H350.021V96.852C350.021 97.74 350.021 99.156 349.709 101.172L348.725 101.076C349.049 99.12 349.049 97.728 349.049 96.852V96.276ZM351.389 95.088H352.373V105.936H351.389V95.088ZM352.109 99.624H354.113V100.464H352.109V99.624ZM344.069 103.572L343.949 102.732C345.917 102.732 348.533 102.696 350.729 102.42L350.777 103.152C348.533 103.512 345.989 103.56 344.069 103.572ZM367.399 95.088H368.395V101.616H367.399V95.088ZM368.119 97.968H370.003V98.796H368.119V97.968ZM361.579 102.228H368.395V105.792H361.579V102.228ZM367.423 103.032H362.551V104.988H367.423V103.032ZM360.007 96.228H366.415V97.044H360.007V96.228ZM363.211 97.572C364.759 97.572 365.803 98.34 365.803 99.516C365.803 100.692 364.759 101.436 363.211 101.436C361.651 101.436 360.607 100.692 360.607 99.516C360.607 98.34 361.651 97.572 363.211 97.572ZM363.211 98.34C362.215 98.34 361.555 98.796 361.555 99.516C361.555 100.224 362.215 100.68 363.211 100.68C364.183 100.68 364.855 100.224 364.855 99.516C364.855 98.796 364.183 98.34 363.211 98.34ZM362.707 94.992H363.703V96.648H362.707V94.992ZM372.834 96.384H373.674C373.674 98.712 373.362 101.268 371.814 103.38L371.034 102.924C372.522 100.992 372.834 98.724 372.834 96.456V96.384ZM371.262 96.384H373.326V97.212H371.262V96.384ZM375.222 96.384H376.074C376.074 98.676 375.93 101.724 374.226 104.076L373.434 103.62C375.09 101.46 375.222 98.64 375.222 96.468V96.384ZM374.034 96.384H375.75V97.212H374.034V96.384ZM379.314 95.088H380.274V105.936H379.314V95.088ZM375.57 99.348H377.514V100.164H375.57V99.348ZM377.31 95.364H378.246V105.384H377.31V95.364ZM385.746 95.604H392.73V96.42H385.746V95.604ZM384.498 99.648H394.326V100.464H384.498V99.648ZM392.082 95.604H393.054V96.348C393.054 97.236 393.054 98.388 392.718 99.972L391.746 99.864C392.082 98.316 392.082 97.212 392.082 96.348V95.604ZM385.542 102.084H393.126V105.972H392.13V102.888H385.542V102.084ZM395.526 100.68H405.33V101.496H395.526V100.68ZM399.942 99.06H400.926V100.932H399.942V99.06ZM396.618 102.552H404.118V105.936H403.122V103.368H396.618V102.552ZM396.834 95.34H397.818V96.564H403.062V95.34H404.058V99.396H396.834V95.34ZM397.818 97.344V98.604H403.062V97.344H397.818ZM413.993 95.088H414.989V101.388H413.993V95.088ZM414.557 97.848H416.597V98.688H414.557V97.848ZM408.173 101.868H409.145V103.02H414.005V101.868H414.989V105.792H408.173V101.868ZM409.145 103.788V104.988H414.005V103.788H409.145ZM406.601 96.192H413.009V97.008H406.601V96.192ZM409.805 97.5C411.353 97.5 412.397 98.256 412.397 99.408C412.397 100.56 411.353 101.316 409.805 101.316C408.245 101.316 407.201 100.56 407.201 99.408C407.201 98.256 408.245 97.5 409.805 97.5ZM409.805 98.256C408.809 98.256 408.149 98.712 408.149 99.408C408.149 100.104 408.809 100.56 409.805 100.56C410.777 100.56 411.449 100.104 411.449 99.408C411.449 98.712 410.777 98.256 409.805 98.256ZM409.301 94.98H410.297V96.636H409.301V94.98ZM425.5 95.088H426.496V105.936H425.5V95.088ZM418.3 96.144H419.284V102.864H418.3V96.144ZM418.3 102.276H419.188C420.832 102.276 422.548 102.156 424.384 101.772L424.504 102.624C422.62 103.008 420.904 103.14 419.188 103.14H418.3V102.276ZM435.987 95.076H436.995V105.948H435.987V95.076ZM436.755 99.36H438.771V100.2H436.755V99.36ZM429.111 102.408H429.963C431.967 102.408 433.371 102.336 434.991 102.036L435.099 102.876C433.431 103.188 432.003 103.248 429.963 103.248H429.111V102.408ZM429.111 96.132H434.151V96.948H430.095V102.78H429.111V96.132ZM440.594 104.883C440.406 104.883 440.248 104.818 440.119 104.689C439.99 104.561 439.926 104.402 439.926 104.215C439.926 104.027 439.99 103.869 440.119 103.74C440.248 103.611 440.406 103.547 440.594 103.547C440.781 103.547 440.939 103.611 441.068 103.74C441.197 103.869 441.262 104.027 441.262 104.215C441.262 104.402 441.197 104.561 441.068 104.689C440.939 104.818 440.781 104.883 440.594 104.883Z" fill="white"/>
</svg>
