<svg width="135" height="33" viewBox="0 0 135 33" fill="none" xmlns="http://www.w3.org/2000/svg">
<path d="M120.841 4.03125C120.841 3.75775 120.732 3.49544 120.539 3.30205C120.346 3.10865 120.083 3 119.81 3C119.536 3 119.274 3.10865 119.081 3.30205C118.887 3.49544 118.779 3.75775 118.779 4.03125V6.751C118.779 7.0245 118.887 7.28681 119.081 7.4802C119.274 7.6736 119.536 7.78225 119.81 7.78225C120.083 7.78225 120.346 7.6736 120.539 7.4802C120.732 7.28681 120.841 7.0245 120.841 6.751V4.03125ZM113.133 6.70563C112.939 6.51652 112.679 6.41101 112.409 6.41185C112.138 6.41269 111.879 6.51981 111.687 6.71012C111.494 6.90043 111.385 7.15868 111.381 7.42919C111.377 7.69971 111.48 7.96083 111.667 8.15625L113.688 10.1954C113.781 10.3004 113.895 10.3855 114.022 10.4452C114.148 10.505 114.286 10.5382 114.426 10.5429C114.567 10.5476 114.706 10.5237 114.837 10.4725C114.967 10.4214 115.086 10.3442 115.186 10.2456C115.286 10.147 115.364 10.029 115.417 9.89901C115.469 9.76899 115.495 9.6296 115.492 9.48938C115.489 9.34916 115.457 9.21104 115.399 9.08348C115.34 8.95592 115.257 8.8416 115.153 8.7475L113.133 6.70563ZM127.953 8.15625C128.134 7.95992 128.232 7.70085 128.226 7.43366C128.22 7.16646 128.111 6.912 127.921 6.72392C127.731 6.53583 127.475 6.4288 127.208 6.42538C126.941 6.42197 126.683 6.52244 126.488 6.70563L124.467 8.74612C124.366 8.84103 124.285 8.95526 124.23 9.08201C124.174 9.20876 124.144 9.34544 124.143 9.48389C124.141 9.62233 124.167 9.75972 124.219 9.88785C124.272 10.016 124.35 10.1322 124.448 10.2297C124.546 10.3271 124.663 10.4038 124.792 10.455C124.921 10.5063 125.058 10.5311 125.197 10.528C125.335 10.525 125.472 10.4941 125.598 10.4371C125.724 10.3802 125.837 10.2985 125.931 10.1968L127.953 8.15625ZM121.131 13.7882C119.722 13.2327 118.389 14.6366 118.917 16.002L123.841 28.7207C124.405 30.1755 126.455 30.1769 127.019 28.7207L128.908 23.8491L133.732 21.9447C135.173 21.3755 135.173 19.3281 133.732 18.7589L121.131 13.7882ZM111.726 13.8804H109.031C108.758 13.8804 108.495 13.989 108.302 14.1824C108.109 14.3758 108 14.6381 108 14.9116C108 15.1851 108.109 15.4474 108.302 15.6408C108.495 15.8342 108.758 15.9429 109.031 15.9429H111.726C112 15.9429 112.262 15.8342 112.455 15.6408C112.649 15.4474 112.758 15.1851 112.758 14.9116C112.758 14.6381 112.649 14.3758 112.455 14.1824C112.262 13.989 112 13.8804 111.726 13.8804ZM115.153 21.0771C115.34 20.8819 115.443 20.6209 115.439 20.3504C115.436 20.0799 115.327 19.8216 115.134 19.6312C114.942 19.4407 114.683 19.3334 114.413 19.3322C114.142 19.3311 113.882 19.4363 113.688 19.6251L111.667 21.6656C111.572 21.7619 111.496 21.8759 111.445 22.0013C111.394 22.1267 111.368 22.261 111.368 22.3965C111.369 22.532 111.396 22.666 111.449 22.7909C111.501 22.9158 111.578 23.0292 111.674 23.1245C111.77 23.2198 111.884 23.2953 112.01 23.3465C112.135 23.3978 112.269 23.4238 112.405 23.4232C112.54 23.4226 112.674 23.3953 112.799 23.3428C112.924 23.2904 113.038 23.2139 113.133 23.1176L115.153 21.0771Z" fill="white"/>
<path d="M4.7 10.75C5.06667 10.75 5.25 10.9167 5.25 11.25V12C5.25 12.1 5.28333 12.1583 5.35 12.175C5.41667 12.175 5.5 12.1333 5.6 12.05C5.86667 11.8 6.15833 11.5583 6.475 11.325C6.80833 11.0917 7.2 10.9 7.65 10.75C8.1 10.5833 8.63333 10.5 9.25 10.5C10.2333 10.5 11.1083 10.75 11.875 11.25C12.6417 11.7333 13.25 12.475 13.7 13.475C14.15 14.4583 14.375 15.725 14.375 17.275C14.375 18.875 14.1417 20.1917 13.675 21.225C13.2083 22.2583 12.575 23.025 11.775 23.525C10.975 24.0083 10.0667 24.25 9.05 24.25C8.4 24.25 7.8 24.15 7.25 23.95C6.7 23.75 6.18333 23.425 5.7 22.975C5.53333 22.8083 5.40833 22.7333 5.325 22.75C5.25833 22.7667 5.225 22.8917 5.225 23.125V27.7C5.225 27.9833 5.1 28.125 4.85 28.125H1.775C1.50833 28.125 1.375 27.975 1.375 27.675V11.3C1.375 11.1167 1.41667 10.9833 1.5 10.9C1.58333 10.8 1.73333 10.75 1.95 10.75H4.7ZM5.225 20.575C5.55833 20.9417 5.91667 21.2417 6.3 21.475C6.68333 21.7083 7.125 21.825 7.625 21.825C8.20833 21.825 8.70833 21.675 9.125 21.375C9.55833 21.0583 9.89167 20.5667 10.125 19.9C10.3583 19.2167 10.475 18.3167 10.475 17.2C10.475 16.1167 10.3583 15.2667 10.125 14.65C9.89167 14.0333 9.55833 13.5917 9.125 13.325C8.70833 13.0583 8.23333 12.925 7.7 12.925C7.23333 12.925 6.80833 13.025 6.425 13.225C6.05833 13.4083 5.76667 13.6583 5.55 13.975C5.33333 14.275 5.225 14.5917 5.225 14.925V20.575ZM22.7094 24.25C21.3927 24.25 20.226 23.9583 19.2094 23.375C18.2094 22.7917 17.426 21.9917 16.8594 20.975C16.2927 19.9417 16.0094 18.7667 16.0094 17.45C16.0094 16.0667 16.301 14.8583 16.8844 13.825C17.4677 12.775 18.2677 11.9583 19.2844 11.375C20.301 10.7917 21.451 10.5 22.7344 10.5C24.0844 10.5 25.2594 10.8 26.2594 11.4C27.2594 11.9833 28.0344 12.8 28.5844 13.85C29.151 14.8833 29.4344 16.075 29.4344 17.425C29.4344 18.7583 29.151 19.9417 28.5844 20.975C28.0177 21.9917 27.226 22.7917 26.2094 23.375C25.2094 23.9583 24.0427 24.25 22.7094 24.25ZM22.7344 21.7C23.351 21.7 23.8677 21.5417 24.2844 21.225C24.701 20.8917 25.0094 20.4 25.2094 19.75C25.426 19.1 25.5344 18.3083 25.5344 17.375C25.5344 16.3917 25.426 15.5833 25.2094 14.95C25.0094 14.3 24.701 13.8083 24.2844 13.475C23.8677 13.1417 23.351 12.975 22.7344 12.975C22.1344 12.975 21.6177 13.1417 21.1844 13.475C20.7677 13.8083 20.451 14.3 20.2344 14.95C20.0177 15.5833 19.9094 16.3917 19.9094 17.375C19.9094 18.325 20.0177 19.125 20.2344 19.775C20.451 20.4083 20.7677 20.8917 21.1844 21.225C21.6177 21.5417 22.1344 21.7 22.7344 21.7ZM32.1002 24C31.9169 24 31.7835 23.9583 31.7002 23.875C31.6169 23.7917 31.5752 23.6667 31.5752 23.5V11.225C31.5752 10.9083 31.7085 10.75 31.9752 10.75H34.9002C35.1669 10.75 35.3002 10.8917 35.3002 11.175V12.65C35.3002 12.75 35.3335 12.8167 35.4002 12.85C35.4835 12.8667 35.5669 12.825 35.6502 12.725C35.9835 12.275 36.3585 11.8833 36.7752 11.55C37.2085 11.2167 37.6502 10.9583 38.1002 10.775C38.5502 10.5917 38.9752 10.5 39.3752 10.5C39.9752 10.5 40.2752 10.6417 40.2752 10.925V13.825C40.2752 14.0917 40.1502 14.2 39.9002 14.15C39.6002 14.0667 39.2919 14.0167 38.9752 14C38.6585 13.9667 38.3835 13.95 38.1502 13.95C37.8502 13.95 37.5335 14.0083 37.2002 14.125C36.8835 14.2417 36.5919 14.4083 36.3252 14.625C36.0585 14.8417 35.8419 15.075 35.6752 15.325C35.5085 15.575 35.4252 15.8417 35.4252 16.125V23.425C35.4252 23.8083 35.2085 24 34.7752 24H32.1002ZM47.7947 13.4C47.6114 13.4 47.5197 13.5 47.5197 13.7V19.725C47.5197 20.2917 47.6531 20.7 47.9197 20.95C48.1864 21.1833 48.6114 21.3 49.1947 21.3H50.5447C50.6614 21.3 50.7531 21.3417 50.8197 21.425C50.8864 21.5083 50.9197 21.6083 50.9197 21.725L50.8947 23.25C50.8947 23.5667 50.7114 23.7667 50.3447 23.85C50.0447 23.8833 49.7197 23.9167 49.3697 23.95C49.0364 23.9667 48.6947 23.9833 48.3447 24C48.0114 24 47.6864 24 47.3697 24C46.2364 24 45.3364 23.7333 44.6697 23.2C44.0031 22.65 43.6697 21.8417 43.6697 20.775V13.775C43.6697 13.525 43.5614 13.4 43.3447 13.4H41.8197C41.5031 13.4 41.3447 13.2583 41.3447 12.975V11.125C41.3447 10.875 41.4947 10.75 41.7947 10.75H43.5197C43.6697 10.75 43.7531 10.6583 43.7697 10.475L44.1197 6.675C44.1364 6.39167 44.2614 6.25 44.4947 6.25H47.2197C47.4864 6.25 47.6197 6.40833 47.6197 6.725V10.475C47.6197 10.6417 47.7031 10.725 47.8697 10.725H50.4947C50.7947 10.725 50.9447 10.8583 50.9447 11.125V12.975C50.9447 13.2583 50.7781 13.4 50.4447 13.4H47.7947ZM60.7107 10.75C60.8774 10.75 60.9941 10.7917 61.0607 10.875C61.1441 10.9583 61.1857 11.0583 61.1857 11.175V13.025C61.1857 13.275 61.0441 13.4 60.7607 13.4H58.6857C58.5191 13.4 58.4357 13.4917 58.4357 13.675V23.525C58.4357 23.8417 58.3024 24 58.0357 24H54.9607C54.7107 24 54.5857 23.8583 54.5857 23.575V13.625C54.5857 13.475 54.5191 13.4 54.3857 13.4H52.5857C52.2857 13.4 52.1357 13.275 52.1357 13.025V11.175C52.1357 11.0583 52.1691 10.9583 52.2357 10.875C52.3191 10.7917 52.4441 10.75 52.6107 10.75H54.2857C54.4857 10.75 54.5857 10.625 54.5857 10.375V8.85C54.5857 7.78333 54.9024 6.95 55.5357 6.35C56.1691 5.75 57.0607 5.45 58.2107 5.45H60.7357C61.1024 5.45 61.2857 5.625 61.2857 5.975L61.3107 7.6C61.3107 7.71667 61.2774 7.81667 61.2107 7.9C61.1607 7.98333 61.0691 8.025 60.9357 8.025H59.5857C59.2191 8.025 58.9191 8.16667 58.6857 8.45C58.4524 8.71667 58.3357 9.06667 58.3357 9.5V10.475C58.3357 10.6583 58.4357 10.75 58.6357 10.75H60.7107ZM68.6811 24.25C67.3644 24.25 66.1977 23.9583 65.1811 23.375C64.1811 22.7917 63.3977 21.9917 62.8311 20.975C62.2644 19.9417 61.9811 18.7667 61.9811 17.45C61.9811 16.0667 62.2727 14.8583 62.8561 13.825C63.4394 12.775 64.2394 11.9583 65.2561 11.375C66.2727 10.7917 67.4227 10.5 68.7061 10.5C70.0561 10.5 71.2311 10.8 72.2311 11.4C73.2311 11.9833 74.0061 12.8 74.5561 13.85C75.1227 14.8833 75.4061 16.075 75.4061 17.425C75.4061 18.7583 75.1227 19.9417 74.5561 20.975C73.9894 21.9917 73.1977 22.7917 72.1811 23.375C71.1811 23.9583 70.0144 24.25 68.6811 24.25ZM68.7061 21.7C69.3227 21.7 69.8394 21.5417 70.2561 21.225C70.6727 20.8917 70.9811 20.4 71.1811 19.75C71.3977 19.1 71.5061 18.3083 71.5061 17.375C71.5061 16.3917 71.3977 15.5833 71.1811 14.95C70.9811 14.3 70.6727 13.8083 70.2561 13.475C69.8394 13.1417 69.3227 12.975 68.7061 12.975C68.1061 12.975 67.5894 13.1417 67.1561 13.475C66.7394 13.8083 66.4227 14.3 66.2061 14.95C65.9894 15.5833 65.8811 16.3917 65.8811 17.375C65.8811 18.325 65.9894 19.125 66.2061 19.775C66.4227 20.4083 66.7394 20.8917 67.1561 21.225C67.5894 21.5417 68.1061 21.7 68.7061 21.7ZM81.4219 23.4C81.4219 23.6167 81.3719 23.775 81.2719 23.875C81.1719 23.9583 80.9969 24 80.7469 24H78.0969C77.7302 24 77.5469 23.825 77.5469 23.475L77.6219 5.925C77.6219 5.60833 77.7552 5.45 78.0219 5.45H81.0469C81.2969 5.45 81.4219 5.6 81.4219 5.9V23.4ZM88.0375 23.4C88.0375 23.6167 87.9875 23.775 87.8875 23.875C87.7875 23.9583 87.6125 24 87.3625 24H84.7375C84.5208 24 84.3708 23.9583 84.2875 23.875C84.2208 23.7917 84.1875 23.6583 84.1875 23.475V11.225C84.1875 10.9083 84.3208 10.75 84.5875 10.75H87.6625C87.9125 10.75 88.0375 10.8917 88.0375 11.175V23.4ZM88.0875 8.525C88.0875 8.94167 87.8625 9.15 87.4125 9.15H84.7125C84.4958 9.15 84.3458 9.1 84.2625 9C84.1958 8.9 84.1625 8.75833 84.1625 8.575V5.95C84.1625 5.61667 84.3042 5.45 84.5875 5.45H87.6875C87.9542 5.45 88.0875 5.60833 88.0875 5.925V8.525ZM96.9037 24.25C95.587 24.25 94.4204 23.9583 93.4037 23.375C92.4037 22.7917 91.6204 21.9917 91.0537 20.975C90.487 19.9417 90.2037 18.7667 90.2037 17.45C90.2037 16.0667 90.4954 14.8583 91.0787 13.825C91.662 12.775 92.462 11.9583 93.4787 11.375C94.4954 10.7917 95.6454 10.5 96.9287 10.5C98.2787 10.5 99.4537 10.8 100.454 11.4C101.454 11.9833 102.229 12.8 102.779 13.85C103.345 14.8833 103.629 16.075 103.629 17.425C103.629 18.7583 103.345 19.9417 102.779 20.975C102.212 21.9917 101.42 22.7917 100.404 23.375C99.4037 23.9583 98.237 24.25 96.9037 24.25ZM96.9287 21.7C97.5454 21.7 98.062 21.5417 98.4787 21.225C98.8954 20.8917 99.2037 20.4 99.4037 19.75C99.6204 19.1 99.7287 18.3083 99.7287 17.375C99.7287 16.3917 99.6204 15.5833 99.4037 14.95C99.2037 14.3 98.8954 13.8083 98.4787 13.475C98.062 13.1417 97.5454 12.975 96.9287 12.975C96.3287 12.975 95.812 13.1417 95.3787 13.475C94.962 13.8083 94.6454 14.3 94.4287 14.95C94.212 15.5833 94.1037 16.3917 94.1037 17.375C94.1037 18.325 94.212 19.125 94.4287 19.775C94.6454 20.4083 94.962 20.8917 95.3787 21.225C95.812 21.5417 96.3287 21.7 96.9287 21.7Z" fill="white"/>
</svg>
