<svg width="121" height="33" viewBox="0 0 121 33" fill="none" xmlns="http://www.w3.org/2000/svg">
<path d="M106.841 4.03125C106.841 3.75775 106.732 3.49544 106.539 3.30205C106.346 3.10865 106.083 3 105.81 3C105.536 3 105.274 3.10865 105.081 3.30205C104.887 3.49544 104.779 3.75775 104.779 4.03125V6.751C104.779 7.0245 104.887 7.28681 105.081 7.4802C105.274 7.6736 105.536 7.78225 105.81 7.78225C106.083 7.78225 106.346 7.6736 106.539 7.4802C106.732 7.28681 106.841 7.0245 106.841 6.751V4.03125ZM99.1329 6.70563C98.9394 6.51652 98.6794 6.41101 98.4088 6.41185C98.1383 6.41269 97.8789 6.51981 97.6866 6.71012C97.4943 6.90043 97.3845 7.15868 97.3809 7.42919C97.3772 7.69971 97.48 7.96083 97.6671 8.15625L99.6884 10.1954C99.7813 10.3004 99.8947 10.3855 100.022 10.4452C100.148 10.505 100.286 10.5382 100.426 10.5429C100.567 10.5476 100.706 10.5237 100.837 10.4725C100.967 10.4214 101.086 10.3442 101.186 10.2456C101.286 10.147 101.364 10.029 101.417 9.89901C101.469 9.76899 101.495 9.6296 101.492 9.48938C101.489 9.34916 101.457 9.21104 101.399 9.08348C101.34 8.95592 101.257 8.8416 101.153 8.7475L99.1329 6.70563ZM113.953 8.15625C114.134 7.95992 114.232 7.70085 114.226 7.43366C114.22 7.16646 114.111 6.912 113.921 6.72392C113.731 6.53583 113.475 6.4288 113.208 6.42538C112.941 6.42197 112.683 6.52244 112.488 6.70563L110.467 8.74612C110.366 8.84103 110.285 8.95526 110.23 9.08201C110.174 9.20876 110.144 9.34544 110.143 9.48389C110.141 9.62233 110.167 9.75972 110.219 9.88785C110.272 10.016 110.35 10.1322 110.448 10.2297C110.546 10.3271 110.663 10.4038 110.792 10.455C110.921 10.5063 111.058 10.5311 111.197 10.528C111.335 10.525 111.472 10.4941 111.598 10.4371C111.724 10.3802 111.837 10.2985 111.931 10.1968L113.953 8.15625ZM107.131 13.7882C105.722 13.2327 104.389 14.6366 104.917 16.002L109.841 28.7207C110.405 30.1755 112.455 30.1769 113.019 28.7207L114.908 23.8491L119.732 21.9447C121.173 21.3755 121.173 19.3281 119.732 18.7589L107.131 13.7882ZM97.7263 13.8804H95.0312C94.7577 13.8804 94.4954 13.989 94.302 14.1824C94.1086 14.3758 94 14.6381 94 14.9116C94 15.1851 94.1086 15.4474 94.302 15.6408C94.4954 15.8342 94.7577 15.9429 95.0312 15.9429H97.7263C97.9998 15.9429 98.2621 15.8342 98.4555 15.6408C98.6489 15.4474 98.7575 15.1851 98.7575 14.9116C98.7575 14.6381 98.6489 14.3758 98.4555 14.1824C98.2621 13.989 97.9998 13.8804 97.7263 13.8804ZM101.153 21.0771C101.34 20.8819 101.443 20.6209 101.439 20.3504C101.436 20.0799 101.327 19.8216 101.134 19.6312C100.942 19.4407 100.683 19.3334 100.413 19.3322C100.142 19.3311 99.882 19.4363 99.6884 19.6251L97.6671 21.6656C97.5718 21.7619 97.4963 21.8759 97.4451 22.0013C97.3938 22.1267 97.3678 22.261 97.3684 22.3965C97.3691 22.532 97.3964 22.666 97.4488 22.7909C97.5012 22.9158 97.5778 23.0292 97.674 23.1245C97.7702 23.2198 97.8843 23.2953 98.0097 23.3465C98.1351 23.3978 98.2694 23.4238 98.4049 23.4232C98.5403 23.4226 98.6743 23.3953 98.7993 23.3428C98.9242 23.2904 99.0375 23.2139 99.1329 23.1176L101.153 21.0771Z" fill="black"/>
<path d="M1.9 24C1.71667 24 1.58333 23.9583 1.5 23.875C1.41667 23.7917 1.375 23.6667 1.375 23.5V11.225C1.375 10.9083 1.50833 10.75 1.775 10.75H4.7C4.96667 10.75 5.1 10.8917 5.1 11.175V12.65C5.1 12.75 5.13333 12.8167 5.2 12.85C5.28333 12.8667 5.36667 12.825 5.45 12.725C5.78333 12.275 6.15833 11.8833 6.575 11.55C7.00833 11.2167 7.45 10.9583 7.9 10.775C8.35 10.5917 8.775 10.5 9.175 10.5C9.775 10.5 10.075 10.6417 10.075 10.925V13.825C10.075 14.0917 9.95 14.2 9.7 14.15C9.4 14.0667 9.09167 14.0167 8.775 14C8.45833 13.9667 8.18333 13.95 7.95 13.95C7.65 13.95 7.33333 14.0083 7 14.125C6.68333 14.2417 6.39167 14.4083 6.125 14.625C5.85833 14.8417 5.64167 15.075 5.475 15.325C5.30833 15.575 5.225 15.8417 5.225 16.125V23.425C5.225 23.8083 5.00833 24 4.575 24H1.9ZM14.9795 18.5C14.9795 19.1167 15.1212 19.6667 15.4045 20.15C15.7045 20.6167 16.0962 20.9833 16.5795 21.25C17.0795 21.5 17.6378 21.625 18.2545 21.625C18.8545 21.625 19.4045 21.5 19.9045 21.25C20.4212 20.9833 20.9378 20.55 21.4545 19.95C21.5212 19.8833 21.5795 19.85 21.6295 19.85C21.6795 19.8333 21.7712 19.8583 21.9045 19.925L23.7045 20.675C23.9378 20.775 23.9628 20.9417 23.7795 21.175C23.2462 21.9417 22.6878 22.55 22.1045 23C21.5212 23.45 20.8712 23.775 20.1545 23.975C19.4545 24.1583 18.6628 24.25 17.7795 24.25C16.4795 24.25 15.3212 23.9667 14.3045 23.4C13.2878 22.8333 12.4795 22.05 11.8795 21.05C11.2962 20.0333 11.0045 18.875 11.0045 17.575C11.0045 16.1417 11.3045 14.9 11.9045 13.85C12.5212 12.7833 13.3378 11.9583 14.3545 11.375C15.3712 10.7917 16.4878 10.5 17.7045 10.5C18.9878 10.5 20.1128 10.7833 21.0795 11.35C22.0462 11.9 22.8045 12.6917 23.3545 13.725C23.9212 14.7583 24.2045 16.0167 24.2045 17.5C24.2045 17.6833 24.1878 17.825 24.1545 17.925C24.1212 18.025 23.9962 18.0833 23.7795 18.1H15.2795C15.1795 18.1 15.1045 18.1333 15.0545 18.2C15.0045 18.2667 14.9795 18.3667 14.9795 18.5ZM20.0045 16C20.1878 16 20.3045 15.9833 20.3545 15.95C20.4045 15.9 20.4295 15.8 20.4295 15.65C20.4295 15.2333 20.3295 14.8083 20.1295 14.375C19.9462 13.9417 19.6628 13.5833 19.2795 13.3C18.9128 13 18.4378 12.85 17.8545 12.85C17.3045 12.85 16.8128 12.9833 16.3795 13.25C15.9462 13.5167 15.6128 13.8917 15.3795 14.375C15.1462 14.8417 15.0295 15.375 15.0295 15.975L20.0045 16ZM21.2795 7.1C21.3962 7.43333 21.2712 7.65 20.9045 7.75L15.1295 9.3C14.9462 9.33333 14.8128 9.33333 14.7295 9.3C14.6462 9.25 14.5795 9.15833 14.5295 9.025L14.2295 8.15C14.1462 7.9 14.1962 7.73333 14.3795 7.65L20.3045 5.25C20.5045 5.16667 20.6462 5.24167 20.7295 5.475L21.2795 7.1ZM34.4279 14.2C34.1446 13.8333 33.7613 13.5167 33.2779 13.25C32.7946 12.9833 32.2029 12.85 31.5029 12.85C30.8863 12.85 30.3613 12.975 29.9279 13.225C29.5113 13.4583 29.3029 13.7833 29.3029 14.2C29.3029 14.4167 29.3863 14.625 29.5529 14.825C29.7196 15.0083 30.1029 15.175 30.7029 15.325L33.5779 16.025C34.9613 16.3417 35.9446 16.8583 36.5279 17.575C37.1113 18.2917 37.4029 19.0917 37.4029 19.975C37.4029 20.875 37.1446 21.6417 36.6279 22.275C36.1279 22.9083 35.4279 23.4 34.5279 23.75C33.6279 24.0833 32.5946 24.25 31.4279 24.25C29.9446 24.25 28.6863 23.9917 27.6529 23.475C26.6196 22.9417 25.8946 22.2833 25.4779 21.5C25.4113 21.3833 25.3779 21.275 25.3779 21.175C25.3779 21.0583 25.4279 20.975 25.5279 20.925L27.2279 20.05C27.3946 19.9667 27.5196 19.9333 27.6029 19.95C27.7029 19.95 27.7863 19.9917 27.8529 20.075C28.0696 20.375 28.3279 20.6583 28.6279 20.925C28.9279 21.1917 29.3029 21.4083 29.7529 21.575C30.2029 21.725 30.7696 21.7917 31.4529 21.775C31.9196 21.775 32.3363 21.725 32.7029 21.625C33.0863 21.5083 33.3863 21.35 33.6029 21.15C33.8196 20.9333 33.9279 20.6833 33.9279 20.4C33.9279 20.1167 33.8113 19.875 33.5779 19.675C33.3446 19.4583 32.9113 19.275 32.2779 19.125L29.7029 18.575C28.4529 18.2917 27.5029 17.85 26.8529 17.25C26.2196 16.6333 25.9029 15.8333 25.9029 14.85C25.9029 14 26.1196 13.25 26.5529 12.6C27.0029 11.95 27.6529 11.4417 28.5029 11.075C29.3529 10.6917 30.3696 10.5 31.5529 10.5C32.8196 10.5 33.9113 10.7333 34.8279 11.2C35.7613 11.6667 36.4279 12.225 36.8279 12.875C36.8946 12.975 36.9446 13.0833 36.9779 13.2C37.0113 13.3 36.9529 13.3917 36.8029 13.475L35.0029 14.35C34.8863 14.4 34.7779 14.4167 34.6779 14.4C34.5946 14.3667 34.5113 14.3 34.4279 14.2ZM44.9848 21.475C45.5014 21.475 45.9848 21.3417 46.4348 21.075C46.9014 20.7917 47.3264 20.4333 47.7098 20V11.325C47.7098 10.9417 47.9264 10.75 48.3598 10.75H51.0598C51.4098 10.75 51.5848 10.925 51.5848 11.275L51.5348 23.55C51.5348 23.85 51.4014 24 51.1348 24H48.1598C47.9098 24 47.7848 23.8583 47.7848 23.575V22.35C47.7848 22.25 47.7598 22.1917 47.7098 22.175C47.6598 22.1417 47.5931 22.1667 47.5098 22.25C46.8098 22.9667 46.1098 23.4833 45.4098 23.8C44.7264 24.1 43.9931 24.25 43.2098 24.25C42.4764 24.25 41.8181 24.0917 41.2348 23.775C40.6681 23.4583 40.2181 23 39.8848 22.4C39.5514 21.7833 39.3848 21.0583 39.3848 20.225V11.35C39.3848 10.95 39.5848 10.75 39.9848 10.75H42.7598C43.0764 10.75 43.2348 10.925 43.2348 11.275V19.675C43.2348 20.225 43.3848 20.6667 43.6848 21C44.0014 21.3167 44.4348 21.475 44.9848 21.475ZM54.8297 24C54.4797 24 54.3047 23.8333 54.3047 23.5V11.225C54.3047 10.9083 54.438 10.75 54.7047 10.75H57.7047C57.9547 10.75 58.0797 10.8917 58.0797 11.175V12.4C58.0797 12.5 58.1047 12.5667 58.1547 12.6C58.2214 12.6333 58.2964 12.6 58.3797 12.5C58.813 12.1 59.2464 11.75 59.6797 11.45C60.113 11.15 60.5714 10.9167 61.0547 10.75C61.538 10.5667 62.038 10.475 62.5547 10.475C63.4547 10.475 64.2047 10.6917 64.8047 11.125C65.4214 11.5417 65.8547 12.1 66.1047 12.8C66.138 12.8667 66.1797 12.9 66.2297 12.9C66.2964 12.8833 66.363 12.8417 66.4297 12.775C66.8297 12.3417 67.263 11.9583 67.7297 11.625C68.213 11.275 68.7214 11 69.2547 10.8C69.788 10.6 70.313 10.5 70.8297 10.5C71.9964 10.5 72.9214 10.8583 73.6047 11.575C74.3047 12.2917 74.6547 13.275 74.6547 14.525V23.4C74.6547 23.8 74.4547 24 74.0547 24H71.2797C71.113 24 70.988 23.9667 70.9047 23.9C70.838 23.8167 70.8047 23.6833 70.8047 23.5V15.05C70.8047 14.4833 70.6547 14.05 70.3547 13.75C70.0547 13.4333 69.6297 13.275 69.0797 13.275C68.763 13.275 68.4547 13.3417 68.1547 13.475C67.8547 13.6083 67.5797 13.7667 67.3297 13.95C67.0797 14.1333 66.863 14.3333 66.6797 14.55C66.563 14.6667 66.488 14.7833 66.4547 14.9C66.4214 15 66.4047 15.1167 66.4047 15.25V23.4C66.4047 23.8 66.2047 24 65.8047 24H63.0547C62.888 24 62.763 23.9667 62.6797 23.9C62.613 23.8167 62.5797 23.6833 62.5797 23.5V15.05C62.5797 14.4833 62.4297 14.05 62.1297 13.75C61.8297 13.4333 61.3964 13.275 60.8297 13.275C60.3297 13.275 59.8714 13.4083 59.4547 13.675C59.038 13.925 58.6047 14.3083 58.1547 14.825V23.425C58.1547 23.8083 57.938 24 57.5047 24H54.8297ZM80.6533 18.5C80.6533 19.1167 80.795 19.6667 81.0783 20.15C81.3783 20.6167 81.77 20.9833 82.2533 21.25C82.7533 21.5 83.3117 21.625 83.9283 21.625C84.5283 21.625 85.0783 21.5 85.5783 21.25C86.095 20.9833 86.6117 20.55 87.1283 19.95C87.195 19.8833 87.2533 19.85 87.3033 19.85C87.3533 19.8333 87.445 19.8583 87.5783 19.925L89.3783 20.675C89.6117 20.775 89.6367 20.9417 89.4533 21.175C88.92 21.9417 88.3617 22.55 87.7783 23C87.195 23.45 86.545 23.775 85.8283 23.975C85.1283 24.1583 84.3367 24.25 83.4533 24.25C82.1533 24.25 80.995 23.9667 79.9783 23.4C78.9617 22.8333 78.1533 22.05 77.5533 21.05C76.97 20.0333 76.6783 18.875 76.6783 17.575C76.6783 16.1417 76.9783 14.9 77.5783 13.85C78.195 12.7833 79.0117 11.9583 80.0283 11.375C81.045 10.7917 82.1617 10.5 83.3783 10.5C84.6617 10.5 85.7867 10.7833 86.7533 11.35C87.72 11.9 88.4783 12.6917 89.0283 13.725C89.595 14.7583 89.8783 16.0167 89.8783 17.5C89.8783 17.6833 89.8617 17.825 89.8283 17.925C89.795 18.025 89.67 18.0833 89.4533 18.1H80.9533C80.8533 18.1 80.7783 18.1333 80.7283 18.2C80.6783 18.2667 80.6533 18.3667 80.6533 18.5ZM85.6783 16C85.8617 16 85.9783 15.9833 86.0283 15.95C86.0783 15.9 86.1033 15.8 86.1033 15.65C86.1033 15.2333 86.0033 14.8083 85.8033 14.375C85.62 13.9417 85.3367 13.5833 84.9533 13.3C84.5867 13 84.1117 12.85 83.5283 12.85C82.9783 12.85 82.4867 12.9833 82.0533 13.25C81.62 13.5167 81.2867 13.8917 81.0533 14.375C80.82 14.8417 80.7033 15.375 80.7033 15.975L85.6783 16ZM86.9533 7.1C87.07 7.43333 86.945 7.65 86.5783 7.75L80.8033 9.3C80.62 9.33333 80.4867 9.33333 80.4033 9.3C80.32 9.25 80.2533 9.15833 80.2033 9.025L79.9033 8.15C79.82 7.9 79.87 7.73333 80.0533 7.65L85.9783 5.25C86.1783 5.16667 86.32 5.24167 86.4033 5.475L86.9533 7.1Z" fill="black"/>
</svg>
